SplineFontDB: 3.2
FontName: NotoSans-Regular
FullName: Noto Sans Regular
FamilyName: Noto Sans
Weight: Book
Copyright: Copyright 2022 The Noto Project Authors (https://github.com/notofonts/latin-greek-cyrillic)
Version: 2.013
ItalicAngle: 0
UnderlinePosition: -125
UnderlineWidth: 50
Ascent: 800
Descent: 200
InvalidEm: 0
sfntRevision: 0x00020354
LayerCount: 2
Layer: 0 1 "Back" 1
Layer: 1 1 "Fore" 0
XUID: [1021 426 849761687 13685114]
StyleMap: 0x0040
FSType: 0
OS2Version: 4
OS2_WeightWidthSlopeOnly: 0
OS2_UseTypoMetrics: 1
CreationTime: 1633362791
ModificationTime: 1714040477
PfmFamily: 17
TTFWeight: 400
TTFWidth: 5
LineGap: 0
VLineGap: 0
Panose: 2 11 5 2 4 5 4 2 2 4
OS2TypoAscent: 1069
OS2TypoAOffset: 0
OS2TypoDescent: -293
OS2TypoDOffset: 0
OS2TypoLinegap: 0
OS2WinAscent: 1124
OS2WinAOffset: 0
OS2WinDescent: 395
OS2WinDOffset: 0
HheadAscent: 1069
HheadAOffset: 0
HheadDescent: -293
HheadDOffset: 0
OS2SubXSize: 650
OS2SubYSize: 600
OS2SubXOff: 0
OS2SubYOff: 75
OS2SupXSize: 650
OS2SupYSize: 600
OS2SupXOff: 0
OS2SupYOff: 350
OS2StrikeYSize: 50
OS2StrikeYPos: 322
OS2CapHeight: 714
OS2XHeight: 536
OS2Vendor: 'GOOG'
OS2CodePages: 0000019f.00000000
OS2UnicodeRanges: e00002ff.4000201f.08000029.00100000
Lookup: 1 0 0 "'aalt' Access All Alternates lookup 0" { "'aalt' Access All Alternates lookup 0 subtable"  } ['aalt' ('DFLT' <'dflt' > 'cyrl' <'MKD ' 'SRB ' 'dflt' > 'dev2' <'MAR ' 'NEP ' 'dflt' > 'grek' <'APPH' 'IPPH' 'dflt' > 'latn' <'APPH' 'CAT ' 'IPPH' 'MAH ' 'MOL ' 'NAV ' 'ROM ' 'dflt' > ) ]
Lookup: 3 0 0 "'aalt' Access All Alternates lookup 1" { "'aalt' Access All Alternates lookup 1 subtable"  } ['aalt' ('DFLT' <'dflt' > 'cyrl' <'MKD ' 'SRB ' 'dflt' > 'dev2' <'MAR ' 'NEP ' 'dflt' > 'grek' <'APPH' 'IPPH' 'dflt' > 'latn' <'APPH' 'CAT ' 'IPPH' 'MAH ' 'MOL ' 'NAV ' 'ROM ' 'dflt' > ) ]

StartChar: .notdef
Encoding: 1114112 -1 0
Width: 600
Flags: W
LayerCount: 2
Fore
SplineSet
94 0 m 1,0,-1
 94 714 l 1,1,-1
 505 714 l 1,2,-1
 505 0 l 1,3,-1
 94 0 l 1,0,-1
145 51 m 1,4,-1
 454 51 l 1,5,-1
 454 663 l 1,6,-1
 145 663 l 1,7,-1
 145 51 l 1,4,-1
EndSplineSet
EndChar

StartChar: exclam
Encoding: 33 33 4
Width: 269
Flags: W
LayerCount: 2
Fore
SplineSet
163 201 m 1,0,-1
 106 201 l 1,1,-1
 81 714 l 1,2,-1
 188 714 l 1,3,-1
 163 201 l 1,0,-1
72 54 m 0,4,5
 72 91 72 91 90 106 c 128,-1,6
 108 121 108 121 134 121 c 0,7,8
 159 121 159 121 177.5 106 c 128,-1,9
 196 91 196 91 196 54 c 0,10,11
 196 18 196 18 177.5 2 c 128,-1,12
 159 -14 159 -14 134 -14 c 0,13,14
 108 -14 108 -14 90 2 c 128,-1,15
 72 18 72 18 72 54 c 0,4,5
EndSplineSet
Substitution2: "'smcp' Lowercase to Small Capitals lookup 39 subtable" exclam.sc
Substitution2: "'c2sc' Capitals to Small Capitals lookup 38 subtable" exclam.sc
Substitution2: "'aalt' Access All Alternates lookup 0 subtable" exclam.sc
EndChar

StartChar: quotedbl
Encoding: 34 34 5
Width: 408
Flags: W
LayerCount: 2
Fore
SplineSet
160 714 m 1,0,-1
 140 456 l 1,1,-1
 85 456 l 1,2,-1
 65 714 l 1,3,-1
 160 714 l 1,0,-1
343 714 m 1,4,-1
 323 456 l 1,5,-1
 268 456 l 1,6,-1
 248 714 l 1,7,-1
 343 714 l 1,4,-1
EndSplineSet
EndChar

StartChar: numbersign
Encoding: 35 35 6
Width: 646
Flags: W
LayerCount: 2
Fore
SplineSet
480 436 m 1,0,-1
 449 276 l 1,1,-1
 586 276 l 1,2,-1
 586 209 l 1,3,-1
 436 209 l 1,4,-1
 395 0 l 1,5,-1
 324 0 l 1,6,-1
 365 209 l 1,7,-1
 222 209 l 1,8,-1
 183 0 l 1,9,-1
 113 0 l 1,10,-1
 151 209 l 1,11,-1
 25 209 l 1,12,-1
 25 276 l 1,13,-1
 164 276 l 1,14,-1
 196 436 l 1,15,-1
 62 436 l 1,16,-1
 62 502 l 1,17,-1
 208 502 l 1,18,-1
 248 714 l 1,19,-1
 320 714 l 1,20,-1
 280 502 l 1,21,-1
 424 502 l 1,22,-1
 464 714 l 1,23,-1
 533 714 l 1,24,-1
 493 502 l 1,25,-1
 620 502 l 1,26,-1
 620 436 l 1,27,-1
 480 436 l 1,0,-1
235 276 m 1,28,-1
 378 276 l 1,29,-1
 409 436 l 1,30,-1
 266 436 l 1,31,-1
 235 276 l 1,28,-1
EndSplineSet
EndChar

StartChar: dollar
Encoding: 36 36 7
Width: 572
Flags: W
LayerCount: 2
Fore
SplineSet
253 49 m 1,0,1
 198 50 198 50 146 58.5 c 128,-1,2
 94 67 94 67 62 82 c 1,3,-1
 62 167 l 1,4,5
 96 151 96 151 149 139 c 128,-1,6
 202 127 202 127 253 126 c 1,7,-1
 253 328 l 1,8,9
 187 346 187 346 145 369.5 c 128,-1,10
 103 393 103 393 82.5 427 c 128,-1,11
 62 461 62 461 62 508 c 0,12,13
 62 557 62 557 85.5 592 c 128,-1,14
 109 627 109 627 152 647.5 c 128,-1,15
 195 668 195 668 253 671 c 1,16,-1
 253 759 l 1,17,-1
 317 759 l 1,18,-1
 317 672 l 1,19,20
 370 671 370 671 413.5 660.5 c 128,-1,21
 457 650 457 650 493 635 c 1,22,-1
 466 561 l 1,23,24
 434 574 434 574 395.5 583.5 c 128,-1,25
 357 593 357 593 317 596 c 1,26,-1
 317 395 l 1,27,28
 383 376 383 376 427 354.5 c 128,-1,29
 471 333 471 333 493.5 301.5 c 128,-1,30
 516 270 516 270 516 220 c 0,31,32
 516 150 516 150 464 106.5 c 128,-1,33
 412 63 412 63 317 53 c 1,34,-1
 317 -58 l 1,35,-1
 253 -58 l 1,36,-1
 253 49 l 1,0,1
317 131 m 1,37,38
 376 137 376 137 403 158.5 c 128,-1,39
 430 180 430 180 430 214 c 0,40,41
 430 239 430 239 420 255.5 c 128,-1,42
 410 272 410 272 385.5 284 c 128,-1,43
 361 296 361 296 317 307 c 1,44,-1
 317 131 l 1,37,38
253 594 m 1,45,46
 217 592 217 592 194 581.5 c 128,-1,47
 171 571 171 571 159.5 554 c 128,-1,48
 148 537 148 537 148 515 c 0,49,50
 148 489 148 489 157.5 470.5 c 128,-1,51
 167 452 167 452 190 439.5 c 128,-1,52
 213 427 213 427 253 417 c 1,53,-1
 253 594 l 1,45,46
EndSplineSet
EndChar

StartChar: percent
Encoding: 37 37 8
Width: 831
Flags: W
LayerCount: 2
Fore
SplineSet
195 724 m 0,0,1
 269 724 269 724 307 665.5 c 128,-1,2
 345 607 345 607 345 501 c 256,3,4
 345 395 345 395 308.5 335.5 c 128,-1,5
 272 276 272 276 195 276 c 0,6,7
 124 276 124 276 86.5 335.5 c 128,-1,8
 49 395 49 395 49 501 c 256,9,10
 49 607 49 607 84 665.5 c 128,-1,11
 119 724 119 724 195 724 c 0,0,1
195 662 m 0,12,13
 157 662 157 662 139.5 621.5 c 128,-1,14
 122 581 122 581 122 501 c 256,15,16
 122 421 122 421 139.5 380 c 128,-1,17
 157 339 157 339 195 339 c 0,18,19
 234 339 234 339 253 379.5 c 128,-1,20
 272 420 272 420 272 501 c 0,21,22
 272 581 272 581 253 621.5 c 128,-1,23
 234 662 234 662 195 662 c 0,12,13
652 714 m 1,24,-1
 256 0 l 1,25,-1
 179 0 l 1,26,-1
 575 714 l 1,27,-1
 652 714 l 1,24,-1
632 438 m 0,28,29
 705 438 705 438 743.5 379.5 c 128,-1,30
 782 321 782 321 782 215 c 256,31,32
 782 109 782 109 745.5 49.5 c 128,-1,33
 709 -10 709 -10 632 -10 c 0,34,35
 561 -10 561 -10 523.5 49.5 c 128,-1,36
 486 109 486 109 486 215 c 256,37,38
 486 321 486 321 521 379.5 c 128,-1,39
 556 438 556 438 632 438 c 0,28,29
632 375 m 0,40,41
 594 375 594 375 576.5 335 c 128,-1,42
 559 295 559 295 559 215 c 0,43,44
 559 134 559 134 576.5 93.5 c 128,-1,45
 594 53 594 53 632 53 c 0,46,47
 671 53 671 53 690 93 c 128,-1,48
 709 133 709 133 709 215 c 0,49,50
 709 295 709 295 690 335 c 128,-1,51
 671 375 671 375 632 375 c 0,40,41
EndSplineSet
EndChar

StartChar: ampersand
Encoding: 38 38 9
Width: 732
Flags: W
LayerCount: 2
Fore
SplineSet
304 725 m 0,0,1
 358 725 358 725 396.5 706.5 c 128,-1,2
 435 688 435 688 456 654 c 128,-1,3
 477 620 477 620 477 571 c 0,4,5
 477 508 477 508 436.5 464 c 128,-1,6
 396 420 396 420 334 384 c 1,7,-1
 527 198 l 1,8,9
 553 229 553 229 569.5 269.5 c 128,-1,10
 586 310 586 310 597 357 c 1,11,-1
 686 357 l 1,12,13
 670 293 670 293 646 238 c 128,-1,14
 622 183 622 183 584 142 c 1,15,-1
 730 0 l 1,16,-1
 611 0 l 1,17,-1
 524 84 l 1,18,19
 493 56 493 56 457 35 c 128,-1,20
 421 14 421 14 377.5 2 c 128,-1,21
 334 -10 334 -10 278 -10 c 0,22,23
 209 -10 209 -10 158.5 12.5 c 128,-1,24
 108 35 108 35 80.5 79 c 128,-1,25
 53 123 53 123 53 186 c 0,26,27
 53 237 53 237 71.5 274 c 128,-1,28
 90 311 90 311 125 340 c 128,-1,29
 160 369 160 369 207 396 c 1,30,31
 186 420 186 420 166 446 c 128,-1,32
 146 472 146 472 133 502.5 c 128,-1,33
 120 533 120 533 120 569 c 0,34,35
 120 618 120 618 142 653 c 128,-1,36
 164 688 164 688 205.5 706.5 c 128,-1,37
 247 725 247 725 304 725 c 0,0,1
260 341 m 1,38,39
 224 320 224 320 198.5 298.5 c 128,-1,40
 173 277 173 277 159 251 c 128,-1,41
 145 225 145 225 145 189 c 0,42,43
 145 134 145 134 182 101 c 128,-1,44
 219 68 219 68 281 68 c 0,45,46
 345 68 345 68 391 89 c 128,-1,47
 437 110 437 110 468 139 c 1,48,-1
 260 341 l 1,38,39
301 653 m 0,49,50
 259 653 259 653 232.5 631 c 128,-1,51
 206 609 206 609 206 570 c 0,52,53
 206 534 206 534 225 503.5 c 128,-1,54
 244 473 244 473 280 436 c 1,55,56
 339 470 339 470 364.5 500.5 c 128,-1,57
 390 531 390 531 390 571 c 0,58,59
 390 607 390 607 366 630 c 128,-1,60
 342 653 342 653 301 653 c 0,49,50
EndSplineSet
Substitution2: "'smcp' Lowercase to Small Capitals lookup 39 subtable" ampersand.sc
Substitution2: "'c2sc' Capitals to Small Capitals lookup 38 subtable" ampersand.sc
Substitution2: "'aalt' Access All Alternates lookup 0 subtable" ampersand.sc
EndChar

StartChar: quotesingle
Encoding: 39 39 10
Width: 225
Flags: W
LayerCount: 2
Fore
SplineSet
160 714 m 1,0,-1
 140 456 l 1,1,-1
 85 456 l 1,2,-1
 65 714 l 1,3,-1
 160 714 l 1,0,-1
EndSplineSet
EndChar

StartChar: parenleft
Encoding: 40 40 11
Width: 300
Flags: W
LayerCount: 2
Fore
SplineSet
40 274 m 0,0,1
 40 356 40 356 55.5 434 c 128,-1,2
 71 512 71 512 104 583 c 128,-1,3
 137 654 137 654 187 714 c 1,4,-1
 270 714 l 1,5,6
 200 620 200 620 164.5 507 c 128,-1,7
 129 394 129 394 129 275 c 0,8,9
 129 198 129 198 145 122 c 128,-1,10
 161 46 161 46 192 -24.5 c 128,-1,11
 223 -95 223 -95 269 -158 c 1,12,-1
 187 -158 l 1,13,14
 137 -99 137 -99 104 -29.5 c 128,-1,15
 71 40 71 40 55.5 117 c 128,-1,16
 40 194 40 194 40 274 c 0,0,1
EndSplineSet
Substitution2: "'smcp' Lowercase to Small Capitals lookup 39 subtable" parenleft.sc
Substitution2: "'c2sc' Capitals to Small Capitals lookup 38 subtable" parenleft.sc
Substitution2: "'sups' Superscript lookup 25 subtable" uni207D
Substitution2: "'sinf' Scientific Inferiors lookup 24 subtable" uni208D
Substitution2: "'subs' Subscript lookup 23 subtable" uni208D
AlternateSubs2: "'aalt' Access All Alternates lookup 1 subtable" uni208D uni207D parenleft.sc
EndChar

StartChar: parenright
Encoding: 41 41 12
Width: 300
Flags: W
LayerCount: 2
Fore
SplineSet
260 274 m 0,0,1
 260 194 260 194 244.5 117 c 128,-1,2
 229 40 229 40 196.5 -29.5 c 128,-1,3
 164 -99 164 -99 113 -158 c 1,4,-1
 31 -158 l 1,5,6
 77 -95 77 -95 108 -24.5 c 128,-1,7
 139 46 139 46 155 122 c 128,-1,8
 171 198 171 198 171 275 c 0,9,10
 171 354 171 354 155 431 c 128,-1,11
 139 508 139 508 108 580 c 128,-1,12
 77 652 77 652 30 714 c 1,13,-1
 113 714 l 1,14,15
 164 654 164 654 196.5 583 c 128,-1,16
 229 512 229 512 244.5 434 c 128,-1,17
 260 356 260 356 260 274 c 0,0,1
EndSplineSet
Substitution2: "'smcp' Lowercase to Small Capitals lookup 39 subtable" parenright.sc
Substitution2: "'c2sc' Capitals to Small Capitals lookup 38 subtable" parenright.sc
Substitution2: "'sups' Superscript lookup 25 subtable" uni207E
Substitution2: "'sinf' Scientific Inferiors lookup 24 subtable" uni208E
Substitution2: "'subs' Subscript lookup 23 subtable" uni208E
AlternateSubs2: "'aalt' Access All Alternates lookup 1 subtable" uni208E uni207E parenright.sc
EndChar

StartChar: asterisk
Encoding: 42 42 13
Width: 551
Flags: W
LayerCount: 2
Fore
SplineSet
322 760 m 1,0,-1
 302 568 l 1,1,-1
 494 622 l 1,2,-1
 508 530 l 1,3,-1
 324 515 l 1,4,-1
 443 357 l 1,5,-1
 357 310 l 1,6,-1
 272 485 l 1,7,-1
 195 310 l 1,8,-1
 106 357 l 1,9,-1
 223 515 l 1,10,-1
 41 530 l 1,11,-1
 55 622 l 1,12,-1
 245 568 l 1,13,-1
 224 760 l 1,14,-1
 322 760 l 1,0,-1
EndSplineSet
EndChar

StartChar: plus
Encoding: 43 43 14
Width: 572
Flags: W
LayerCount: 2
Fore
SplineSet
321 388 m 1,0,-1
 520 388 l 1,1,-1
 520 317 l 1,2,-1
 321 317 l 1,3,-1
 321 111 l 1,4,-1
 249 111 l 1,5,-1
 249 317 l 1,6,-1
 50 317 l 1,7,-1
 50 388 l 1,8,-1
 249 388 l 1,9,-1
 249 595 l 1,10,-1
 321 595 l 1,11,-1
 321 388 l 1,0,-1
EndSplineSet
Substitution2: "'sups' Superscript lookup 25 subtable" uni207A
Substitution2: "'sinf' Scientific Inferiors lookup 24 subtable" uni208A
Substitution2: "'subs' Subscript lookup 23 subtable" uni208A
AlternateSubs2: "'aalt' Access All Alternates lookup 1 subtable" uni208A uni207A
EndChar

StartChar: comma
Encoding: 44 44 15
Width: 268
Flags: W
LayerCount: 2
Fore
SplineSet
192 105 m 1,0,1
 183 70 183 70 169 29 c 128,-1,2
 155 -12 155 -12 138.5 -52.5 c 128,-1,3
 122 -93 122 -93 106 -129 c 1,4,-1
 41 -129 l 1,5,6
 51 -91 51 -91 60.5 -47.5 c 128,-1,7
 70 -4 70 -4 78 38.5 c 128,-1,8
 86 81 86 81 91 116 c 1,9,-1
 185 116 l 1,10,-1
 192 105 l 1,0,1
EndSplineSet
EndChar

StartChar: hyphen
Encoding: 45 45 16
Width: 322
Flags: W
LayerCount: 2
Fore
SplineSet
40 229 m 1,0,-1
 40 307 l 1,1,-1
 282 307 l 1,2,-1
 282 229 l 1,3,-1
 40 229 l 1,0,-1
EndSplineSet
EndChar

StartChar: period
Encoding: 46 46 17
Width: 268
Flags: W
LayerCount: 2
Fore
SplineSet
72 54 m 0,0,1
 72 91 72 91 90 106 c 128,-1,2
 108 121 108 121 133 121 c 0,3,4
 159 121 159 121 177.5 106 c 128,-1,5
 196 91 196 91 196 54 c 0,6,7
 196 18 196 18 177.5 2 c 128,-1,8
 159 -14 159 -14 133 -14 c 0,9,10
 108 -14 108 -14 90 2 c 128,-1,11
 72 18 72 18 72 54 c 0,0,1
EndSplineSet
EndChar

StartChar: slash
Encoding: 47 47 18
Width: 372
Flags: W
LayerCount: 2
Fore
SplineSet
362 714 m 1,0,-1
 96 0 l 1,1,-1
 10 0 l 1,2,-1
 276 714 l 1,3,-1
 362 714 l 1,0,-1
EndSplineSet
Substitution2: "'frac' Diagonal Fractions lookup 28 subtable" fraction
Substitution2: "'aalt' Access All Alternates lookup 0 subtable" fraction
EndChar

StartChar: zero
Encoding: 48 48 19
Width: 572
Flags: W
LayerCount: 2
Fore
SplineSet
523 358 m 0,0,1
 523 271 523 271 510 203 c 128,-1,2
 497 135 497 135 468.5 87.5 c 128,-1,3
 440 40 440 40 394.5 15 c 128,-1,4
 349 -10 349 -10 285 -10 c 0,5,6
 205 -10 205 -10 152.5 34 c 128,-1,7
 100 78 100 78 74.5 160.5 c 128,-1,8
 49 243 49 243 49 358 c 0,9,10
 49 474 49 474 72.5 556 c 128,-1,11
 96 638 96 638 148 681.5 c 128,-1,12
 200 725 200 725 285 725 c 0,13,14
 365 725 365 725 418 681.5 c 128,-1,15
 471 638 471 638 497 556 c 128,-1,16
 523 474 523 474 523 358 c 0,0,1
137 358 m 256,17,18
 137 260 137 260 151.5 195 c 128,-1,19
 166 130 166 130 198.5 97.5 c 128,-1,20
 231 65 231 65 285 65 c 256,21,22
 339 65 339 65 371.5 97 c 128,-1,23
 404 129 404 129 419 194.5 c 128,-1,24
 434 260 434 260 434 358 c 256,25,26
 434 456 434 456 419 520.5 c 128,-1,27
 404 585 404 585 371.5 617.5 c 128,-1,28
 339 650 339 650 285 650 c 256,29,30
 231 650 231 650 198.5 617.5 c 128,-1,31
 166 585 166 585 151.5 520.5 c 128,-1,32
 137 456 137 456 137 358 c 256,17,18
EndSplineSet
Substitution2: "'zero' Slashed Zero lookup 43 subtable" zero.slash
Substitution2: "'case' Case-Sensitive Forms lookup 40 subtable" zero.lf
Substitution2: "'onum' Oldstyle Figures lookup 37 subtable" zero.tosf
Substitution2: "'pnum' Proportional Numbers lookup 35 subtable" zero.lf
Substitution2: "'frac' Diagonal Fractions lookup 29 subtable" zero.numr
Substitution2: "'dnom' Denominators lookup 27 subtable" zero.dnom
Substitution2: "'numr' Numerators lookup 26 subtable" zero.numr
Substitution2: "'sups' Superscript lookup 25 subtable" uni2070
Substitution2: "'sinf' Scientific Inferiors lookup 24 subtable" uni2080
Substitution2: "'subs' Subscript lookup 23 subtable" uni2080
AlternateSubs2: "'aalt' Access All Alternates lookup 1 subtable" uni2070 zero.tosf zero.lf zero.slash uni2080 zero.dnom zero.numr
EndChar

StartChar: one
Encoding: 49 49 20
Width: 572
Flags: W
LayerCount: 2
Fore
SplineSet
355 0 m 1,0,-1
 269 0 l 1,1,-1
 269 499 l 2,2,3
 269 528 269 528 269.5 548 c 128,-1,4
 270 568 270 568 271 585.5 c 128,-1,5
 272 603 272 603 273 622 c 1,6,7
 257 606 257 606 244 595 c 128,-1,8
 231 584 231 584 211 567 c 2,9,-1
 135 505 l 1,10,-1
 89 564 l 1,11,-1
 282 714 l 1,12,-1
 355 714 l 1,13,-1
 355 0 l 1,0,-1
EndSplineSet
Substitution2: "'case' Case-Sensitive Forms lookup 40 subtable" one.lf
Substitution2: "'onum' Oldstyle Figures lookup 37 subtable" one.tosf
Substitution2: "'pnum' Proportional Numbers lookup 35 subtable" one.lf
Substitution2: "'frac' Diagonal Fractions lookup 29 subtable" one.numr
Substitution2: "'dnom' Denominators lookup 27 subtable" one.dnom
Substitution2: "'numr' Numerators lookup 26 subtable" one.numr
Substitution2: "'sups' Superscript lookup 25 subtable" uni00B9
Substitution2: "'sinf' Scientific Inferiors lookup 24 subtable" uni2081
Substitution2: "'subs' Subscript lookup 23 subtable" uni2081
AlternateSubs2: "'aalt' Access All Alternates lookup 1 subtable" uni00B9 one.tosf one.lf uni2081 one.dnom one.numr
EndChar

StartChar: two
Encoding: 50 50 21
Width: 572
Flags: W
LayerCount: 2
Fore
SplineSet
520 0 m 1,0,-1
 48 0 l 1,1,-1
 48 73 l 1,2,-1
 235 262 l 2,3,4
 289 316 289 316 326 358 c 128,-1,5
 363 400 363 400 382 440.5 c 128,-1,6
 401 481 401 481 401 529 c 0,7,8
 401 588 401 588 366 618.5 c 128,-1,9
 331 649 331 649 275 649 c 0,10,11
 223 649 223 649 183.5 631 c 128,-1,12
 144 613 144 613 103 581 c 1,13,-1
 56 640 l 1,14,15
 84 664 84 664 117.5 683 c 128,-1,16
 151 702 151 702 190.5 713 c 128,-1,17
 230 724 230 724 275 724 c 0,18,19
 342 724 342 724 390 701 c 128,-1,20
 438 678 438 678 464.5 635.5 c 128,-1,21
 491 593 491 593 491 534 c 0,22,23
 491 478 491 478 468 429 c 128,-1,24
 445 380 445 380 404 332.5 c 128,-1,25
 363 285 363 285 308 231 c 2,26,-1
 159 84 l 1,27,-1
 159 80 l 1,28,-1
 520 80 l 1,29,-1
 520 0 l 1,0,-1
EndSplineSet
Substitution2: "'case' Case-Sensitive Forms lookup 40 subtable" two.lf
Substitution2: "'onum' Oldstyle Figures lookup 37 subtable" two.tosf
Substitution2: "'pnum' Proportional Numbers lookup 35 subtable" two.lf
Substitution2: "'frac' Diagonal Fractions lookup 29 subtable" two.numr
Substitution2: "'dnom' Denominators lookup 27 subtable" two.dnom
Substitution2: "'numr' Numerators lookup 26 subtable" two.numr
Substitution2: "'sups' Superscript lookup 25 subtable" uni00B2
Substitution2: "'sinf' Scientific Inferiors lookup 24 subtable" uni2082
Substitution2: "'subs' Subscript lookup 23 subtable" uni2082
AlternateSubs2: "'aalt' Access All Alternates lookup 1 subtable" uni00B2 two.tosf two.lf uni2082 two.dnom two.numr
EndChar

StartChar: three
Encoding: 51 51 22
Width: 572
Flags: W
LayerCount: 2
Fore
SplineSet
493 547 m 0,0,1
 493 499 493 499 475 464 c 128,-1,2
 457 429 457 429 423.5 407 c 128,-1,3
 390 385 390 385 345 376 c 1,4,-1
 345 372 l 1,5,6
 431 362 431 362 473 318 c 128,-1,7
 515 274 515 274 515 203 c 0,8,9
 515 141 515 141 486 92.5 c 128,-1,10
 457 44 457 44 396.5 17 c 128,-1,11
 336 -10 336 -10 241 -10 c 0,12,13
 185 -10 185 -10 137 -1.5 c 128,-1,14
 89 7 89 7 45 29 c 1,15,-1
 45 111 l 1,16,17
 90 89 90 89 142 76.5 c 128,-1,18
 194 64 194 64 242 64 c 0,19,20
 338 64 338 64 380.5 101.5 c 128,-1,21
 423 139 423 139 423 205 c 0,22,23
 423 250 423 250 399.5 277.5 c 128,-1,24
 376 305 376 305 331 318 c 128,-1,25
 286 331 286 331 223 331 c 2,26,-1
 154 331 l 1,27,-1
 154 406 l 1,28,-1
 224 406 l 2,29,30
 283 406 283 406 322.5 423 c 128,-1,31
 362 440 362 440 382.5 470.5 c 128,-1,32
 403 501 403 501 403 541 c 0,33,34
 403 593 403 593 368 621.5 c 128,-1,35
 333 650 333 650 273 650 c 0,36,37
 235 650 235 650 204 642.5 c 128,-1,38
 173 635 173 635 146.5 621.5 c 128,-1,39
 120 608 120 608 93 590 c 1,40,-1
 49 650 l 1,41,42
 87 680 87 680 143.5 702 c 128,-1,43
 200 724 200 724 272 724 c 0,44,45
 384 724 384 724 438.5 674 c 128,-1,46
 493 624 493 624 493 547 c 0,0,1
EndSplineSet
Substitution2: "'case' Case-Sensitive Forms lookup 40 subtable" three.lf
Substitution2: "'onum' Oldstyle Figures lookup 37 subtable" three.tosf
Substitution2: "'pnum' Proportional Numbers lookup 35 subtable" three.lf
Substitution2: "'frac' Diagonal Fractions lookup 29 subtable" three.numr
Substitution2: "'dnom' Denominators lookup 27 subtable" three.dnom
Substitution2: "'numr' Numerators lookup 26 subtable" three.numr
Substitution2: "'sups' Superscript lookup 25 subtable" uni00B3
Substitution2: "'sinf' Scientific Inferiors lookup 24 subtable" uni2083
Substitution2: "'subs' Subscript lookup 23 subtable" uni2083
AlternateSubs2: "'aalt' Access All Alternates lookup 1 subtable" uni00B3 three.tosf three.lf uni2083 three.dnom three.numr
EndChar

StartChar: four
Encoding: 52 52 23
Width: 572
Flags: W
LayerCount: 2
Fore
SplineSet
552 162 m 1,0,-1
 448 162 l 1,1,-1
 448 0 l 1,2,-1
 363 0 l 1,3,-1
 363 162 l 1,4,-1
 21 162 l 1,5,-1
 21 237 l 1,6,-1
 357 718 l 1,7,-1
 448 718 l 1,8,-1
 448 241 l 1,9,-1
 552 241 l 1,10,-1
 552 162 l 1,0,-1
363 466 m 2,11,12
 363 492 363 492 363.5 513.5 c 128,-1,13
 364 535 364 535 365 554 c 128,-1,14
 366 573 366 573 366.5 590.5 c 128,-1,15
 367 608 367 608 368 624 c 1,16,-1
 364 624 l 1,17,18
 356 605 356 605 344 583 c 128,-1,19
 332 561 332 561 321 546 c 2,20,-1
 107 241 l 1,21,-1
 363 241 l 1,22,-1
 363 466 l 2,11,12
EndSplineSet
Substitution2: "'case' Case-Sensitive Forms lookup 40 subtable" four.lf
Substitution2: "'onum' Oldstyle Figures lookup 37 subtable" four.tosf
Substitution2: "'pnum' Proportional Numbers lookup 35 subtable" four.lf
Substitution2: "'frac' Diagonal Fractions lookup 29 subtable" four.numr
Substitution2: "'dnom' Denominators lookup 27 subtable" four.dnom
Substitution2: "'numr' Numerators lookup 26 subtable" four.numr
Substitution2: "'sups' Superscript lookup 25 subtable" uni2074
Substitution2: "'sinf' Scientific Inferiors lookup 24 subtable" uni2084
Substitution2: "'subs' Subscript lookup 23 subtable" uni2084
AlternateSubs2: "'aalt' Access All Alternates lookup 1 subtable" uni2074 four.tosf four.lf uni2084 four.dnom four.numr
EndChar

StartChar: five
Encoding: 53 53 24
Width: 572
Flags: W
LayerCount: 2
Fore
SplineSet
275 438 m 0,0,1
 348 438 348 438 402 413 c 128,-1,2
 456 388 456 388 485.5 341.5 c 128,-1,3
 515 295 515 295 515 228 c 0,4,5
 515 154 515 154 483 100.5 c 128,-1,6
 451 47 451 47 391.5 18.5 c 128,-1,7
 332 -10 332 -10 248 -10 c 0,8,9
 193 -10 193 -10 144.5 0 c 128,-1,10
 96 10 96 10 63 29 c 1,11,-1
 63 112 l 1,12,13
 99 90 99 90 150.5 77.5 c 128,-1,14
 202 65 202 65 249 65 c 0,15,16
 302 65 302 65 341.5 81.5 c 128,-1,17
 381 98 381 98 403 132.5 c 128,-1,18
 425 167 425 167 425 219 c 0,19,20
 425 289 425 289 382 326.5 c 128,-1,21
 339 364 339 364 246 364 c 0,22,23
 218 364 218 364 182 359 c 128,-1,24
 146 354 146 354 124 349 c 1,25,-1
 80 377 l 1,26,-1
 107 714 l 1,27,-1
 465 714 l 1,28,-1
 465 634 l 1,29,-1
 182 634 l 1,30,-1
 165 427 l 1,31,32
 182 430 182 430 211 434 c 128,-1,33
 240 438 240 438 275 438 c 0,0,1
EndSplineSet
Substitution2: "'case' Case-Sensitive Forms lookup 40 subtable" five.lf
Substitution2: "'onum' Oldstyle Figures lookup 37 subtable" five.tosf
Substitution2: "'pnum' Proportional Numbers lookup 35 subtable" five.lf
Substitution2: "'frac' Diagonal Fractions lookup 29 subtable" five.numr
Substitution2: "'dnom' Denominators lookup 27 subtable" five.dnom
Substitution2: "'numr' Numerators lookup 26 subtable" five.numr
Substitution2: "'sups' Superscript lookup 25 subtable" uni2075
Substitution2: "'sinf' Scientific Inferiors lookup 24 subtable" uni2085
Substitution2: "'subs' Subscript lookup 23 subtable" uni2085
AlternateSubs2: "'aalt' Access All Alternates lookup 1 subtable" uni2075 five.tosf five.lf uni2085 five.dnom five.numr
EndChar

StartChar: six
Encoding: 54 54 25
Width: 572
Flags: W
LayerCount: 2
Fore
SplineSet
55 305 m 0,0,1
 55 367 55 367 63.5 427 c 128,-1,2
 72 487 72 487 93 540.5 c 128,-1,3
 114 594 114 594 151 635.5 c 128,-1,4
 188 677 188 677 244.5 700.5 c 128,-1,5
 301 724 301 724 382 724 c 0,6,7
 403 724 403 724 428.5 722 c 128,-1,8
 454 720 454 720 470 715 c 1,9,-1
 470 640 l 1,10,11
 452 646 452 646 429.5 649 c 128,-1,12
 407 652 407 652 384 652 c 0,13,14
 315 652 315 652 269 629 c 128,-1,15
 223 606 223 606 196.5 566 c 128,-1,16
 170 526 170 526 158 474 c 128,-1,17
 146 422 146 422 143 363 c 1,18,-1
 149 363 l 1,19,20
 164 387 164 387 187 406 c 128,-1,21
 210 425 210 425 242.5 436 c 128,-1,22
 275 447 275 447 318 447 c 0,23,24
 380 447 380 447 426.5 421.5 c 128,-1,25
 473 396 473 396 499 347.5 c 128,-1,26
 525 299 525 299 525 230 c 0,27,28
 525 156 525 156 497 102 c 128,-1,29
 469 48 469 48 418.5 19 c 128,-1,30
 368 -10 368 -10 298 -10 c 0,31,32
 247 -10 247 -10 203 9 c 128,-1,33
 159 28 159 28 125.5 67 c 128,-1,34
 92 106 92 106 73.5 165.5 c 128,-1,35
 55 225 55 225 55 305 c 0,0,1
297 64 m 0,36,37
 360 64 360 64 399 104.5 c 128,-1,38
 438 145 438 145 438 230 c 0,39,40
 438 298 438 298 403.5 338 c 128,-1,41
 369 378 369 378 300 378 c 0,42,43
 253 378 253 378 218 358.5 c 128,-1,44
 183 339 183 339 163.5 309 c 128,-1,45
 144 279 144 279 144 247 c 0,46,47
 144 214 144 214 153.5 182 c 128,-1,48
 163 150 163 150 182.5 123 c 128,-1,49
 202 96 202 96 230.5 80 c 128,-1,50
 259 64 259 64 297 64 c 0,36,37
EndSplineSet
Substitution2: "'case' Case-Sensitive Forms lookup 40 subtable" six.lf
Substitution2: "'onum' Oldstyle Figures lookup 37 subtable" six.tosf
Substitution2: "'pnum' Proportional Numbers lookup 35 subtable" six.lf
Substitution2: "'frac' Diagonal Fractions lookup 29 subtable" six.numr
Substitution2: "'dnom' Denominators lookup 27 subtable" six.dnom
Substitution2: "'numr' Numerators lookup 26 subtable" six.numr
Substitution2: "'sups' Superscript lookup 25 subtable" uni2076
Substitution2: "'sinf' Scientific Inferiors lookup 24 subtable" uni2086
Substitution2: "'subs' Subscript lookup 23 subtable" uni2086
AlternateSubs2: "'aalt' Access All Alternates lookup 1 subtable" uni2076 six.tosf six.lf uni2086 six.dnom six.numr
EndChar

StartChar: seven
Encoding: 55 55 26
Width: 572
Flags: W
LayerCount: 2
Fore
SplineSet
136 0 m 1,0,-1
 429 634 l 1,1,-1
 44 634 l 1,2,-1
 44 714 l 1,3,-1
 523 714 l 1,4,-1
 523 646 l 1,5,-1
 233 0 l 1,6,-1
 136 0 l 1,0,-1
EndSplineSet
Substitution2: "'case' Case-Sensitive Forms lookup 40 subtable" seven.lf
Substitution2: "'onum' Oldstyle Figures lookup 37 subtable" seven.tosf
Substitution2: "'pnum' Proportional Numbers lookup 35 subtable" seven.lf
Substitution2: "'frac' Diagonal Fractions lookup 29 subtable" seven.numr
Substitution2: "'dnom' Denominators lookup 27 subtable" seven.dnom
Substitution2: "'numr' Numerators lookup 26 subtable" seven.numr
Substitution2: "'sups' Superscript lookup 25 subtable" uni2077
Substitution2: "'sinf' Scientific Inferiors lookup 24 subtable" uni2087
Substitution2: "'subs' Subscript lookup 23 subtable" uni2087
AlternateSubs2: "'aalt' Access All Alternates lookup 1 subtable" uni2077 seven.tosf seven.lf uni2087 seven.dnom seven.numr
EndChar

StartChar: eight
Encoding: 56 56 27
Width: 572
Flags: W
LayerCount: 2
Fore
SplineSet
285 724 m 0,0,1
 348 724 348 724 396 704.5 c 128,-1,2
 444 685 444 685 471.5 647 c 128,-1,3
 499 609 499 609 499 553 c 0,4,5
 499 510 499 510 480.5 478 c 128,-1,6
 462 446 462 446 431 421.5 c 128,-1,7
 400 397 400 397 363 378 c 1,8,9
 407 357 407 357 443 330.5 c 128,-1,10
 479 304 479 304 500.5 269 c 128,-1,11
 522 234 522 234 522 185 c 0,12,13
 522 125 522 125 493 81.5 c 128,-1,14
 464 38 464 38 411.5 14 c 128,-1,15
 359 -10 359 -10 288 -10 c 0,16,17
 211 -10 211 -10 157.5 13 c 128,-1,18
 104 36 104 36 76.5 78.5 c 128,-1,19
 49 121 49 121 49 182 c 0,20,21
 49 231 49 231 69.5 267 c 128,-1,22
 90 303 90 303 124 329 c 128,-1,23
 158 355 158 355 197 373 c 1,24,25
 162 393 162 393 133.5 418.5 c 128,-1,26
 105 444 105 444 88.5 477 c 128,-1,27
 72 510 72 510 72 554 c 0,28,29
 72 609 72 609 100 646.5 c 128,-1,30
 128 684 128 684 176 704 c 128,-1,31
 224 724 224 724 285 724 c 0,0,1
135 181 m 0,32,33
 135 129 135 129 172 94.5 c 128,-1,34
 209 60 209 60 286 60 c 0,35,36
 359 60 359 60 397.5 94.5 c 128,-1,37
 436 129 436 129 436 184 c 0,38,39
 436 219 436 219 417.5 245.5 c 128,-1,40
 399 272 399 272 365.5 293 c 128,-1,41
 332 314 332 314 286 331 c 2,42,-1
 270 337 l 1,43,44
 226 318 226 318 196 296 c 128,-1,45
 166 274 166 274 150.5 246 c 128,-1,46
 135 218 135 218 135 181 c 0,32,33
284 653 m 0,47,48
 229 653 229 653 193.5 626.5 c 128,-1,49
 158 600 158 600 158 550 c 0,50,51
 158 513 158 513 175.5 488 c 128,-1,52
 193 463 193 463 223 445.5 c 128,-1,53
 253 428 253 428 289 412 c 1,54,55
 324 427 324 427 351.5 445 c 128,-1,56
 379 463 379 463 395.5 488.5 c 128,-1,57
 412 514 412 514 412 550 c 0,58,59
 412 600 412 600 377 626.5 c 128,-1,60
 342 653 342 653 284 653 c 0,47,48
EndSplineSet
Substitution2: "'case' Case-Sensitive Forms lookup 40 subtable" eight.lf
Substitution2: "'onum' Oldstyle Figures lookup 37 subtable" eight.tosf
Substitution2: "'pnum' Proportional Numbers lookup 35 subtable" eight.lf
Substitution2: "'frac' Diagonal Fractions lookup 29 subtable" eight.numr
Substitution2: "'dnom' Denominators lookup 27 subtable" eight.dnom
Substitution2: "'numr' Numerators lookup 26 subtable" eight.numr
Substitution2: "'sups' Superscript lookup 25 subtable" uni2078
Substitution2: "'sinf' Scientific Inferiors lookup 24 subtable" uni2088
Substitution2: "'subs' Subscript lookup 23 subtable" uni2088
AlternateSubs2: "'aalt' Access All Alternates lookup 1 subtable" uni2078 eight.tosf eight.lf uni2088 eight.dnom eight.numr
EndChar

StartChar: nine
Encoding: 57 57 28
Width: 572
Flags: W
LayerCount: 2
Fore
SplineSet
520 409 m 0,0,1
 520 348 520 348 511.5 287.5 c 128,-1,2
 503 227 503 227 482 173.5 c 128,-1,3
 461 120 461 120 424 78.5 c 128,-1,4
 387 37 387 37 330 13.5 c 128,-1,5
 273 -10 273 -10 192 -10 c 0,6,7
 172 -10 172 -10 145.5 -7.5 c 128,-1,8
 119 -5 119 -5 102 0 c 1,9,-1
 102 75 l 1,10,11
 120 69 120 69 144 65.5 c 128,-1,12
 168 62 168 62 190 62 c 0,13,14
 260 62 260 62 305.5 85 c 128,-1,15
 351 108 351 108 378 147.5 c 128,-1,16
 405 187 405 187 417 239.5 c 128,-1,17
 429 292 429 292 431 350 c 1,18,-1
 425 350 l 1,19,20
 410 327 410 327 387 308 c 128,-1,21
 364 289 364 289 331.5 278 c 128,-1,22
 299 267 299 267 255 267 c 0,23,24
 194 267 194 267 147.5 292.5 c 128,-1,25
 101 318 101 318 75.5 366 c 128,-1,26
 50 414 50 414 50 483 c 0,27,28
 50 558 50 558 78.5 612 c 128,-1,29
 107 666 107 666 158 695 c 128,-1,30
 209 724 209 724 278 724 c 0,31,32
 329 724 329 724 373 704.5 c 128,-1,33
 417 685 417 685 450 646 c 128,-1,34
 483 607 483 607 501.5 548 c 128,-1,35
 520 489 520 489 520 409 c 0,0,1
278 650 m 0,36,37
 216 650 216 650 176.5 609 c 128,-1,38
 137 568 137 568 137 484 c 0,39,40
 137 415 137 415 170.5 375.5 c 128,-1,41
 204 336 204 336 274 336 c 0,42,43
 322 336 322 336 357 355.5 c 128,-1,44
 392 375 392 375 411.5 405 c 128,-1,45
 431 435 431 435 431 467 c 256,46,47
 431 499 431 499 421.5 531.5 c 128,-1,48
 412 564 412 564 393 591 c 128,-1,49
 374 618 374 618 345 634 c 128,-1,50
 316 650 316 650 278 650 c 0,36,37
EndSplineSet
Substitution2: "'case' Case-Sensitive Forms lookup 40 subtable" nine.lf
Substitution2: "'onum' Oldstyle Figures lookup 37 subtable" nine.tosf
Substitution2: "'pnum' Proportional Numbers lookup 35 subtable" nine.lf
Substitution2: "'frac' Diagonal Fractions lookup 29 subtable" nine.numr
Substitution2: "'dnom' Denominators lookup 27 subtable" nine.dnom
Substitution2: "'numr' Numerators lookup 26 subtable" nine.numr
Substitution2: "'sups' Superscript lookup 25 subtable" uni2079
Substitution2: "'sinf' Scientific Inferiors lookup 24 subtable" uni2089
Substitution2: "'subs' Subscript lookup 23 subtable" uni2089
AlternateSubs2: "'aalt' Access All Alternates lookup 1 subtable" uni2079 nine.tosf nine.lf uni2089 nine.dnom nine.numr
EndChar

StartChar: colon
Encoding: 58 58 29
Width: 268
Flags: W
LayerCount: 2
Fore
SplineSet
72 54 m 0,0,1
 72 91 72 91 90 106 c 128,-1,2
 108 121 108 121 133 121 c 0,3,4
 159 121 159 121 177.5 106 c 128,-1,5
 196 91 196 91 196 54 c 0,6,7
 196 18 196 18 177.5 2 c 128,-1,8
 159 -14 159 -14 133 -14 c 0,9,10
 108 -14 108 -14 90 2 c 128,-1,11
 72 18 72 18 72 54 c 0,0,1
72 482 m 0,12,13
 72 520 72 520 90 535 c 128,-1,14
 108 550 108 550 133 550 c 0,15,16
 159 550 159 550 177.5 535 c 128,-1,17
 196 520 196 520 196 482 c 0,18,19
 196 446 196 446 177.5 430 c 128,-1,20
 159 414 159 414 133 414 c 0,21,22
 108 414 108 414 90 430 c 128,-1,23
 72 446 72 446 72 482 c 0,12,13
EndSplineSet
EndChar

StartChar: semicolon
Encoding: 59 59 30
Width: 268
Flags: W
LayerCount: 2
Fore
SplineSet
183 105 m 1,0,1
 174 70 174 70 160 29 c 128,-1,2
 146 -12 146 -12 129.5 -52.5 c 128,-1,3
 113 -93 113 -93 97 -129 c 1,4,-1
 31 -129 l 1,5,6
 38 -101 38 -101 45.5 -69 c 128,-1,7
 53 -37 53 -37 60 -4.5 c 128,-1,8
 67 28 67 28 72.5 59 c 128,-1,9
 78 90 78 90 82 116 c 1,10,-1
 176 116 l 1,11,-1
 183 105 l 1,0,1
70 482 m 0,12,13
 70 520 70 520 88 535 c 128,-1,14
 106 550 106 550 131 550 c 0,15,16
 157 550 157 550 175.5 535 c 128,-1,17
 194 520 194 520 194 482 c 0,18,19
 194 446 194 446 175.5 430 c 128,-1,20
 157 414 157 414 131 414 c 0,21,22
 106 414 106 414 88 430 c 128,-1,23
 70 446 70 446 70 482 c 0,12,13
EndSplineSet
EndChar

StartChar: less
Encoding: 60 60 31
Width: 572
Flags: W
LayerCount: 2
Fore
SplineSet
521 116 m 1,0,-1
 50 323 l 1,1,-1
 50 373 l 1,2,-1
 521 608 l 1,3,-1
 521 530 l 1,4,-1
 144 352 l 1,5,-1
 521 194 l 1,6,-1
 521 116 l 1,0,-1
EndSplineSet
EndChar

StartChar: equal
Encoding: 61 61 32
Width: 572
Flags: W
LayerCount: 2
Fore
SplineSet
56 416 m 1,0,-1
 56 487 l 1,1,-1
 514 487 l 1,2,-1
 514 416 l 1,3,-1
 56 416 l 1,0,-1
56 217 m 1,4,-1
 56 288 l 1,5,-1
 514 288 l 1,6,-1
 514 217 l 1,7,-1
 56 217 l 1,4,-1
EndSplineSet
Substitution2: "'sups' Superscript lookup 25 subtable" uni207C
Substitution2: "'sinf' Scientific Inferiors lookup 24 subtable" uni208C
Substitution2: "'subs' Subscript lookup 23 subtable" uni208C
AlternateSubs2: "'aalt' Access All Alternates lookup 1 subtable" uni208C uni207C
EndChar

StartChar: greater
Encoding: 62 62 33
Width: 572
Flags: W
LayerCount: 2
Fore
SplineSet
50 194 m 1,0,-1
 427 351 l 1,1,-1
 50 530 l 1,2,-1
 50 608 l 1,3,-1
 521 373 l 1,4,-1
 521 323 l 1,5,-1
 50 116 l 1,6,-1
 50 194 l 1,0,-1
EndSplineSet
EndChar

StartChar: question
Encoding: 63 63 34
Width: 434
Flags: W
LayerCount: 2
Fore
SplineSet
140 228 m 2,0,1
 140 266 140 266 147.5 293.5 c 128,-1,2
 155 321 155 321 173.5 346 c 128,-1,3
 192 371 192 371 224 398 c 0,4,5
 263 431 263 431 284.5 453 c 128,-1,6
 306 475 306 475 315 496 c 128,-1,7
 324 517 324 517 324 547 c 0,8,9
 324 595 324 595 293 621 c 128,-1,10
 262 647 262 647 203 647 c 0,11,12
 154 647 154 647 116 634.5 c 128,-1,13
 78 622 78 622 43 605 c 1,14,-1
 12 675 l 1,15,16
 52 696 52 696 100.5 710 c 128,-1,17
 149 724 149 724 209 724 c 0,18,19
 304 724 304 724 356 677 c 128,-1,20
 408 630 408 630 408 549 c 0,21,22
 408 504 408 504 393.5 472.5 c 128,-1,23
 379 441 379 441 352.5 414.5 c 128,-1,24
 326 388 326 388 290 358 c 0,25,26
 257 330 257 330 239.5 309 c 128,-1,27
 222 288 222 288 216 267.5 c 128,-1,28
 210 247 210 247 210 218 c 2,29,-1
 210 201 l 1,30,-1
 140 201 l 1,31,-1
 140 228 l 2,0,1
117 54 m 0,32,33
 117 91 117 91 134.5 106 c 128,-1,34
 152 121 152 121 179 121 c 0,35,36
 204 121 204 121 222 106 c 128,-1,37
 240 91 240 91 240 54 c 0,38,39
 240 18 240 18 222 2 c 128,-1,40
 204 -14 204 -14 179 -14 c 0,41,42
 152 -14 152 -14 134.5 2 c 128,-1,43
 117 18 117 18 117 54 c 0,32,33
EndSplineSet
Substitution2: "'smcp' Lowercase to Small Capitals lookup 39 subtable" question.sc
Substitution2: "'c2sc' Capitals to Small Capitals lookup 38 subtable" question.sc
Substitution2: "'aalt' Access All Alternates lookup 0 subtable" question.sc
EndChar

StartChar: at
Encoding: 64 64 35
Width: 899
Flags: W
LayerCount: 2
Fore
SplineSet
841 357 m 0,0,1
 841 311 841 311 830.5 267 c 128,-1,2
 820 223 820 223 798 187.5 c 128,-1,3
 776 152 776 152 744 130.5 c 128,-1,4
 712 109 712 109 668 109 c 0,5,6
 622 109 622 109 595.5 135.5 c 128,-1,7
 569 162 569 162 563 196 c 1,8,-1
 558 196 l 1,9,10
 540 159 540 159 505 134 c 128,-1,11
 470 109 470 109 417 109 c 0,12,13
 341 109 341 109 299.5 160 c 128,-1,14
 258 211 258 211 258 295 c 0,15,16
 258 361 258 361 284 411.5 c 128,-1,17
 310 462 310 462 357.5 491 c 128,-1,18
 405 520 405 520 470 520 c 0,19,20
 514 520 514 520 556.5 512.5 c 128,-1,21
 599 505 599 505 623 496 c 1,22,-1
 613 293 l 2,23,24
 612 275 612 275 612 267.5 c 128,-1,25
 612 260 612 260 612 257 c 0,26,27
 612 205 612 205 630.5 188 c 128,-1,28
 649 171 649 171 674 171 c 0,29,30
 705 171 705 171 726.5 196.5 c 128,-1,31
 748 222 748 222 759.5 264.5 c 128,-1,32
 771 307 771 307 771 358 c 0,33,34
 771 451 771 451 733.5 515.5 c 128,-1,35
 696 580 696 580 630.5 614 c 128,-1,36
 565 648 565 648 482 648 c 0,37,38
 397 648 397 648 331 621 c 128,-1,39
 265 594 265 594 220.5 545 c 128,-1,40
 176 496 176 496 153 429.5 c 128,-1,41
 130 363 130 363 130 283 c 0,42,43
 130 185 130 185 165 116.5 c 128,-1,44
 200 48 200 48 267.5 12.5 c 128,-1,45
 335 -23 335 -23 433 -23 c 0,46,47
 494 -23 494 -23 549.5 -9.5 c 128,-1,48
 605 4 605 4 648 20 c 1,49,-1
 648 -48 l 1,50,51
 605 -66 605 -66 551.5 -77.5 c 128,-1,52
 498 -89 498 -89 433 -89 c 0,53,54
 315 -89 315 -89 231 -45 c 128,-1,55
 147 -1 147 -1 102.5 81.5 c 128,-1,56
 58 164 58 164 58 280 c 0,57,58
 58 373 58 373 87 452.5 c 128,-1,59
 116 532 116 532 171 590.5 c 128,-1,60
 226 649 226 649 304.5 681.5 c 128,-1,61
 383 714 383 714 482 714 c 0,62,63
 560 714 560 714 625.5 689.5 c 128,-1,64
 691 665 691 665 739.5 618.5 c 128,-1,65
 788 572 788 572 814.5 506 c 128,-1,66
 841 440 841 440 841 357 c 0,0,1
336 293 m 0,67,68
 336 229 336 229 361.5 200 c 128,-1,69
 387 171 387 171 430 171 c 0,70,71
 486 171 486 171 510.5 213 c 128,-1,72
 535 255 535 255 539 322 c 2,73,-1
 545 447 l 1,74,75
 532 451 532 451 512 454 c 128,-1,76
 492 457 492 457 471 457 c 0,77,78
 422 457 422 457 392 433 c 128,-1,79
 362 409 362 409 349 371.5 c 128,-1,80
 336 334 336 334 336 293 c 0,67,68
EndSplineSet
EndChar

StartChar: B
Encoding: 66 66 37
Width: 525
GlyphClass: 2
Flags: W
AnchorPoint: "Anchor-7" 277 286 basechar 0
AnchorPoint: "Anchor-6" 505 572 basechar 0
AnchorPoint: "Anchor-5" 263 0 basechar 0
AnchorPoint: "Anchor-4" 263 572 basechar 0
LayerCount: 2
Fore
SplineSet
250 572 m 2,0,1
 327 572 327 572 375 555.5 c 128,-1,2
 423 539 423 539 446 507 c 128,-1,3
 469 475 469 475 469 427 c 0,4,5
 469 393 469 393 455.5 367 c 128,-1,6
 442 341 442 341 417.5 324.5 c 128,-1,7
 393 308 393 308 360 302 c 1,8,-1
 360 299 l 1,9,10
 397 293 397 293 424 277.5 c 128,-1,11
 451 262 451 262 466 234.5 c 128,-1,12
 481 207 481 207 481 165 c 0,13,14
 481 83 481 83 423.5 41.5 c 128,-1,15
 366 0 366 0 271 0 c 2,16,-1
 74 0 l 1,17,-1
 74 572 l 1,18,-1
 250 572 l 2,0,1
258 328 m 2,19,20
 323 328 323 328 351 350.5 c 128,-1,21
 379 373 379 373 379 417 c 256,22,23
 379 461 379 461 347 482 c 128,-1,24
 315 503 315 503 250 503 c 2,25,-1
 161 503 l 1,26,-1
 161 328 l 1,27,-1
 258 328 l 2,19,20
267 69 m 2,28,29
 331 69 331 69 361.5 95 c 128,-1,30
 392 121 392 121 392 170 c 0,31,32
 392 214 392 214 360 239 c 128,-1,33
 328 264 328 264 260 264 c 2,34,-1
 161 264 l 1,35,-1
 161 69 l 1,36,-1
 267 69 l 2,28,29
EndSplineSet
Substitution2: "'c2sc' Capitals to Small Capitals lookup 38 subtable" b.sc
Substitution2: "'aalt' Access All Alternates lookup 0 subtable" b.sc
EndChar

StartChar: C
Encoding: 67 67 38
Width: 490
GlyphClass: 2
Flags: W
AnchorPoint: "Anchor-7" 251 268 basechar 0
AnchorPoint: "Anchor-6" 460 536 basechar 0
AnchorPoint: "Anchor-5" 281 0 basechar 0
AnchorPoint: "Anchor-4" 284 737 basechar 0
LayerCount: 2
Fore
SplineSet
285 737 m 0,0,1
 305 737 305 737 320.5 723.5 c 128,-1,2
 336 710 336 710 336 681 c 0,3,4
 336 653 336 653 320.5 639 c 128,-1,5
 305 625 305 625 285 625 c 0,6,7
 263 625 263 625 248 639 c 128,-1,8
 233 653 233 653 233 681 c 0,9,10
 233 710 233 710 248 723.5 c 128,-1,11
 263 737 263 737 285 737 c 0,0,1
301 -10 m 0,12,13
 183 -10 183 -10 118 57 c 128,-1,14
 53 124 53 124 53 245 c 0,15,16
 53 325 53 325 82 380.5 c 128,-1,17
 111 436 111 436 165 465 c 1,18,-1
 32 465 l 1,19,-1
 32 537 l 1,20,-1
 458 537 l 1,21,-1
 458 465 l 1,22,-1
 345 465 l 2,23,24
 251 465 251 465 197.5 411.5 c 128,-1,25
 144 358 144 358 144 252 c 0,26,27
 144 165 144 165 187 114.5 c 128,-1,28
 230 64 230 64 310 64 c 0,29,30
 347 64 347 64 381 73.5 c 128,-1,31
 415 83 415 83 447 99 c 1,32,-1
 447 21 l 1,33,34
 418 5 418 5 383 -2.5 c 128,-1,35
 348 -10 348 -10 301 -10 c 0,12,13
EndSplineSet
Substitution2: "'c2sc' Capitals to Small Capitals lookup 38 subtable" c.sc
Substitution2: "'aalt' Access All Alternates lookup 0 subtable" c.sc
EndChar

StartChar: D
Encoding: 68 68 39
Width: 582
GlyphClass: 2
Flags: W
AnchorPoint: "Anchor-7" 291 286 basechar 0
AnchorPoint: "Anchor-6" 562 572 basechar 0
AnchorPoint: "Anchor-5" 291 0 basechar 0
AnchorPoint: "Anchor-4" 291 572 basechar 0
LayerCount: 2
Fore
SplineSet
535 293 m 0,0,1
 535 196 535 196 499.5 131 c 128,-1,2
 464 66 464 66 396.5 33 c 128,-1,3
 329 0 329 0 233 0 c 2,4,-1
 74 0 l 1,5,-1
 74 572 l 1,6,-1
 248 572 l 2,7,8
 388 572 388 572 461.5 500.5 c 128,-1,9
 535 429 535 429 535 293 c 0,0,1
444 290 m 0,10,11
 444 394 444 394 393 446.5 c 128,-1,12
 342 499 342 499 244 499 c 2,13,-1
 161 499 l 1,14,-1
 161 73 l 1,15,-1
 233 73 l 2,16,17
 340 73 340 73 392 127 c 128,-1,18
 444 181 444 181 444 290 c 0,10,11
EndSplineSet
Substitution2: "'c2sc' Capitals to Small Capitals lookup 38 subtable" d.sc
Substitution2: "'aalt' Access All Alternates lookup 0 subtable" d.sc
EndChar

StartChar: E
Encoding: 69 69 40
Width: 447
GlyphClass: 2
Flags: W
AnchorPoint: "Anchor-7" 238 286 basechar 0
AnchorPoint: "Anchor-6" 427 572 basechar 0
AnchorPoint: "Anchor-5" 246 0 basechar 0
AnchorPoint: "Anchor-4" 241 572 basechar 0
LayerCount: 2
Fore
SplineSet
74 572 m 1,0,-1
 402 572 l 1,1,-1
 402 501 l 1,2,-1
 161 501 l 1,3,-1
 161 332 l 1,4,-1
 387 332 l 1,5,-1
 387 262 l 1,6,-1
 161 262 l 1,7,-1
 161 71 l 1,8,-1
 402 71 l 1,9,-1
 402 0 l 1,10,-1
 74 0 l 1,11,-1
 74 572 l 1,0,-1
EndSplineSet
Substitution2: "'c2sc' Capitals to Small Capitals lookup 38 subtable" e.sc
Substitution2: "'aalt' Access All Alternates lookup 0 subtable" e.sc
EndChar

StartChar: F
Encoding: 70 70 41
Width: 420
GlyphClass: 2
Flags: W
AnchorPoint: "Anchor-7" 237 286 basechar 0
AnchorPoint: "Anchor-6" 400 572 basechar 0
AnchorPoint: "Anchor-5" 210 0 basechar 0
AnchorPoint: "Anchor-4" 236 572 basechar 0
LayerCount: 2
Fore
SplineSet
74 572 m 1,0,-1
 401 572 l 1,1,-1
 401 501 l 1,2,-1
 161 501 l 1,3,-1
 161 309 l 1,4,-1
 386 309 l 1,5,-1
 386 238 l 1,6,-1
 161 238 l 1,7,-1
 161 0 l 1,8,-1
 74 0 l 1,9,-1
 74 572 l 1,0,-1
EndSplineSet
Substitution2: "'c2sc' Capitals to Small Capitals lookup 38 subtable" f.sc
Substitution2: "'aalt' Access All Alternates lookup 0 subtable" f.sc
EndChar

StartChar: G
Encoding: 71 71 42
Width: 592
GlyphClass: 2
Flags: W
AnchorPoint: "Anchor-7" 289 285 basechar 0
AnchorPoint: "Anchor-6" 572 572 basechar 0
AnchorPoint: "Anchor-5" 327 0 basechar 0
AnchorPoint: "Anchor-4" 321 572 basechar 0
LayerCount: 2
Fore
SplineSet
532 27 m 1,0,1
 489 11 489 11 437.5 1.5 c 128,-1,2
 386 -8 386 -8 329 -8 c 0,3,4
 240 -8 240 -8 177 25.5 c 128,-1,5
 114 59 114 59 80.5 124.5 c 128,-1,6
 47 190 47 190 47 285 c 0,7,8
 47 371 47 371 81 437 c 128,-1,9
 115 503 115 503 182 541 c 128,-1,10
 249 579 249 579 346 579 c 0,11,12
 396 579 396 579 441 570 c 128,-1,13
 486 561 486 561 523 544 c 1,14,-1
 493 473 l 1,15,16
 458 490 458 490 421.5 498 c 128,-1,17
 385 506 385 506 345 506 c 0,18,19
 278 506 278 506 231.5 478 c 128,-1,20
 185 450 185 450 161.5 400.5 c 128,-1,21
 138 351 138 351 138 286 c 0,22,23
 138 177 138 177 190 121 c 128,-1,24
 242 65 242 65 342 65 c 0,25,26
 371 65 371 65 399 69.5 c 128,-1,27
 427 74 427 74 448 81 c 1,28,-1
 448 235 l 1,29,-1
 304 235 l 1,30,-1
 304 306 l 1,31,-1
 532 306 l 1,32,-1
 532 27 l 1,0,1
EndSplineSet
Substitution2: "'c2sc' Capitals to Small Capitals lookup 38 subtable" g.sc
Substitution2: "'aalt' Access All Alternates lookup 0 subtable" g.sc
EndChar

StartChar: H
Encoding: 72 72 43
Width: 599
GlyphClass: 2
Flags: W
AnchorPoint: "Anchor-7" 300 286 basechar 0
AnchorPoint: "Anchor-6" 579 572 basechar 0
AnchorPoint: "Anchor-5" 300 0 basechar 0
AnchorPoint: "Anchor-4" 300 572 basechar 0
LayerCount: 2
Fore
SplineSet
524 572 m 1,0,-1
 524 0 l 1,1,-1
 437 0 l 1,2,-1
 437 261 l 1,3,-1
 161 261 l 1,4,-1
 161 0 l 1,5,-1
 74 0 l 1,6,-1
 74 572 l 5,7,-1
 161 572 l 1,8,-1
 161 334 l 1,9,-1
 437 334 l 1,10,-1
 437 572 l 1,11,-1
 524 572 l 1,0,-1
EndSplineSet
Substitution2: "'c2sc' Capitals to Small Capitals lookup 38 subtable" h.sc
Substitution2: "'aalt' Access All Alternates lookup 0 subtable" h.sc
EndChar

StartChar: I
Encoding: 73 73 44
Width: 291
GlyphClass: 2
Flags: W
AnchorPoint: "Anchor-7" 146 286 basechar 0
AnchorPoint: "Anchor-6" 271 572 basechar 0
AnchorPoint: "Anchor-5" 146 0 basechar 0
AnchorPoint: "Anchor-4" 146 572 basechar 0
LayerCount: 2
Fore
SplineSet
37 0 m 1,0,-1
 37 50 l 1,1,-1
 102 66 l 1,2,-1
 102 505 l 1,3,-1
 37 520 l 1,4,-1
 37 572 l 1,5,-1
 255 572 l 1,6,-1
 255 520 l 1,7,-1
 190 505 l 1,8,-1
 190 66 l 1,9,-1
 255 50 l 1,10,-1
 255 0 l 1,11,-1
 37 0 l 1,0,-1
EndSplineSet
Substitution2: "'ss04' Style Set 4 lookup 45 subtable" I.salt
Substitution2: "'c2sc' Capitals to Small Capitals lookup 38 subtable" i.sc
AlternateSubs2: "'aalt' Access All Alternates lookup 1 subtable" I.salt i.sc
EndChar

StartChar: J
Encoding: 74 74 45
Width: 413
GlyphClass: 2
Flags: W
AnchorPoint: "Anchor-7" 175 351 basechar 0
AnchorPoint: "Anchor-6" 393 714 basechar 0
AnchorPoint: "Anchor-5" 176 0 basechar 0
AnchorPoint: "Anchor-4" 277 714 basechar 0
LayerCount: 2
Fore
SplineSet
136 -11 m 0,0,1
 101 -11 101 -11 74.5 -4 c 128,-1,2
 48 3 48 3 28 14 c 1,3,-1
 28 90 l 1,4,5
 51 80 51 80 77.5 74 c 128,-1,6
 104 68 104 68 134 68 c 0,7,8
 159 68 159 68 181.5 78 c 128,-1,9
 204 88 204 88 218 113 c 128,-1,10
 232 138 232 138 232 183 c 2,11,-1
 232 572 l 5,12,-1
 322 572 l 5,13,-1
 322 190 l 2,14,15
 322 121 322 121 299 76.5 c 128,-1,16
 276 32 276 32 234 10.5 c 128,-1,17
 192 -11 192 -11 136 -11 c 0,0,1
EndSplineSet
Substitution2: "'ss04' Style Set 4 lookup 45 subtable" J.salt
Substitution2: "'c2sc' Capitals to Small Capitals lookup 38 subtable" j.sc
AlternateSubs2: "'aalt' Access All Alternates lookup 1 subtable" J.salt j.sc
EndChar

StartChar: K
Encoding: 75 75 46
Width: 531
GlyphClass: 2
Flags: W
AnchorPoint: "Anchor-7" 365 274 basechar 0
AnchorPoint: "Anchor-5" 265 0 basechar 0
AnchorPoint: "Anchor-4" 279 536 basechar 0
LayerCount: 2
Fore
SplineSet
458 299 m 1,0,-1
 262 493 l 1,1,-1
 306 536 l 1,2,-1
 500 343 l 1,3,-1
 458 299 l 1,0,-1
423 0 m 1,4,-1
 240 269 l 1,5,-1
 239 277 l 1,6,-1
 418 536 l 1,7,-1
 510 536 l 1,8,-1
 313 252 l 1,9,-1
 309 314 l 1,10,-1
 523 0 l 1,11,-1
 423 0 l 1,4,-1
85 0 m 1,12,-1
 85 536 l 1,13,-1
 173 536 l 1,14,-1
 173 0 l 1,15,-1
 85 0 l 1,12,-1
167 237 m 1,16,-1
 167 311 l 1,17,-1
 271 311 l 1,18,-1
 271 237 l 1,19,-1
 167 237 l 1,16,-1
EndSplineSet
Substitution2: "'c2sc' Capitals to Small Capitals lookup 38 subtable" k.sc
Substitution2: "'aalt' Access All Alternates lookup 0 subtable" k.sc
EndChar

StartChar: L
Encoding: 76 76 47
Width: 439
GlyphClass: 2
Flags: W
AnchorPoint: "Anchor-7" 220 286 basechar 0
AnchorPoint: "Anchor-6" 235 572 basechar 0
AnchorPoint: "Anchor-5" 243 0 basechar 0
AnchorPoint: "Anchor-4" 118 572 basechar 0
LayerCount: 2
Fore
SplineSet
161 572 m 1,0,-1
 161 73 l 1,1,-1
 416 73 l 1,2,-1
 416 0 l 1,3,-1
 74 0 l 1,4,-1
 74 572 l 1,5,-1
 161 572 l 1,0,-1
EndSplineSet
Substitution2: "'c2sc' Capitals to Small Capitals lookup 38 subtable" l.sc
Substitution2: "'aalt' Access All Alternates lookup 0 subtable" l.sc
EndChar

StartChar: M
Encoding: 77 77 48
Width: 736
GlyphClass: 2
Flags: W
AnchorPoint: "Anchor-7" 367 286 basechar 0
AnchorPoint: "Anchor-6" 716 572 basechar 0
AnchorPoint: "Anchor-5" 368 0 basechar 0
AnchorPoint: "Anchor-4" 368 572 basechar 0
LayerCount: 2
Fore
SplineSet
661 572 m 1,0,-1
 661 0 l 1,1,-1
 579 0 l 1,2,-1
 579 359 l 2,3,4
 579 379 579 379 579.5 403.5 c 128,-1,5
 580 428 580 428 581 449 c 128,-1,6
 582 470 582 470 583 480 c 1,7,-1
 580 480 l 1,8,-1
 404 0 l 1,9,-1
 328 0 l 1,10,-1
 152 481 l 1,11,-1
 149 481 l 1,12,13
 149 471 149 471 150 449.5 c 128,-1,14
 151 428 151 428 152 403 c 128,-1,15
 153 378 153 378 153 355 c 2,16,-1
 153 0 l 1,17,-1
 74 0 l 1,18,-1
 74 572 l 1,19,-1
 195 572 l 1,20,-1
 367 108 l 1,21,-1
 369 108 l 1,22,-1
 540 572 l 1,23,-1
 661 572 l 1,0,-1
EndSplineSet
Substitution2: "'c2sc' Capitals to Small Capitals lookup 38 subtable" m.sc
Substitution2: "'aalt' Access All Alternates lookup 0 subtable" m.sc
EndChar

StartChar: N
Encoding: 78 78 49
Width: 618
GlyphClass: 2
Flags: W
AnchorPoint: "Anchor-7" 311 273 basechar 0
AnchorPoint: "Anchor-6" 562 536 basechar 0
AnchorPoint: "Anchor-5" 309 0 basechar 0
AnchorPoint: "Anchor-4" 309 536 basechar 0
LayerCount: 2
Fore
SplineSet
285 737 m 0,0,1
 305 737 305 737 320.5 723.5 c 0,2,3
 336 710 336 710 336 681 c 0,4,5
 336 653 336 653 320.5 639 c 0,6,7
 305 625 305 625 285 625 c 0,8,9
 263 625 263 625 248 639 c 0,10,11
 233 653 233 653 233 681 c 0,12,13
 233 710 233 710 248 723.5 c 0,14,15
 263 737 263 737 285 737 c 0,0,1
343 546 m 0,16,17
 439 546 439 546 488 499.5 c 0,18,19
 537 453 537 453 537 349 c 2,20,-1
 537 0 l 1,21,-1
 450 0 l 1,22,-1
 450 343 l 2,23,24
 450 408 450 408 421 440 c 0,25,26
 392 472 392 472 330 472 c 0,27,28
 241 472 241 472 207 422 c 0,29,30
 173 372 173 372 173 278 c 2,31,-1
 173 0 l 1,32,-1
 85 0 l 1,33,-1
 85 536 l 1,34,-1
 156 536 l 1,35,-1
 169 463 l 1,36,-1
 174 463 l 1,37,38
 192 491 192 491 218.5 509.5 c 0,39,40
 245 528 245 528 277 537 c 0,41,42
 309 546 309 546 343 546 c 0,16,17
EndSplineSet
Substitution2: "'c2sc' Capitals to Small Capitals lookup 38 subtable" n.sc
Substitution2: "'aalt' Access All Alternates lookup 0 subtable" n.sc
EndChar

StartChar: O
Encoding: 79 79 50
Width: 632
GlyphClass: 2
Flags: W
AnchorPoint: "Anchor-7" 316 286 basechar 0
AnchorPoint: "Anchor-6" 612 572 basechar 0
AnchorPoint: "Anchor-5" 316 0 basechar 0
AnchorPoint: "Anchor-4" 316 572 basechar 0
LayerCount: 2
Fore
SplineSet
584 287 m 0,0,1
 584 199 584 199 555 132.5 c 128,-1,2
 526 66 526 66 467 29 c 128,-1,3
 408 -8 408 -8 317 -8 c 0,4,5
 227 -8 227 -8 167 29 c 128,-1,6
 107 66 107 66 77.5 133 c 128,-1,7
 48 200 48 200 48 288 c 0,8,9
 48 375 48 375 77.5 441 c 128,-1,10
 107 507 107 507 167 544 c 128,-1,11
 227 581 227 581 317 581 c 0,12,13
 408 581 408 581 467 544 c 128,-1,14
 526 507 526 507 555 440.5 c 128,-1,15
 584 374 584 374 584 287 c 0,0,1
140 287 m 0,16,17
 140 221 140 221 158.5 171.5 c 128,-1,18
 177 122 177 122 216 94.5 c 128,-1,19
 255 67 255 67 316 67 c 0,20,21
 378 67 378 67 416.5 94 c 128,-1,22
 455 121 455 121 473.5 170.5 c 128,-1,23
 492 220 492 220 492 287 c 0,24,25
 492 391 492 391 448 448.5 c 128,-1,26
 404 506 404 506 316 506 c 0,27,28
 256 506 256 506 217 479 c 128,-1,29
 178 452 178 452 159 403 c 128,-1,30
 140 354 140 354 140 287 c 0,16,17
EndSplineSet
Substitution2: "'c2sc' Capitals to Small Capitals lookup 38 subtable" o.sc
Substitution2: "Single Substitution lookup 33 subtable" ordmasculine
AlternateSubs2: "'aalt' Access All Alternates lookup 1 subtable" ordmasculine o.sc
EndChar

StartChar: P
Encoding: 80 80 51
Width: 491
GlyphClass: 2
Flags: W
AnchorPoint: "Anchor-7" 263 286 basechar 0
AnchorPoint: "Anchor-6" 471 572 basechar 0
AnchorPoint: "Anchor-5" 246 0 basechar 0
AnchorPoint: "Anchor-4" 246 572 basechar 0
LayerCount: 2
Fore
SplineSet
239 572 m 2,0,1
 346 572 346 572 399 528 c 128,-1,2
 452 484 452 484 452 400 c 0,3,4
 452 358 452 358 438 324 c 128,-1,5
 424 290 424 290 396 266 c 128,-1,6
 368 242 368 242 327 229.5 c 128,-1,7
 286 217 286 217 232 217 c 2,8,-1
 161 217 l 1,9,-1
 161 0 l 1,10,-1
 74 0 l 1,11,-1
 74 572 l 1,12,-1
 239 572 l 2,0,1
223 288 m 2,13,14
 288 288 288 288 325.5 311 c 128,-1,15
 363 334 363 334 363 395 c 0,16,17
 363 448 363 448 332 474.5 c 128,-1,18
 301 501 301 501 236 501 c 2,19,-1
 161 501 l 1,20,-1
 161 288 l 1,21,-1
 223 288 l 2,13,14
EndSplineSet
Substitution2: "'c2sc' Capitals to Small Capitals lookup 38 subtable" p.sc
Substitution2: "'aalt' Access All Alternates lookup 0 subtable" p.sc
EndChar

StartChar: Q
Encoding: 81 81 52
Width: 781
GlyphClass: 2
Flags: W
AnchorPoint: "Anchor-7" 390 277 basechar 0
AnchorPoint: "Anchor-6" 761 714 basechar 0
AnchorPoint: "Anchor-5" 391 -170 basechar 0
AnchorPoint: "Anchor-4" 391 714 basechar 0
LayerCount: 2
Fore
SplineSet
720 358 m 0,0,1
 720 271 720 271 696.5 200 c 128,-1,2
 673 129 673 129 627 80 c 128,-1,3
 581 31 581 31 512 8 c 1,4,-1
 683 -170 l 1,5,-1
 554 -170 l 1,6,-1
 416 -9 l 1,7,8
 410 -9 410 -9 403.5 -9.5 c 128,-1,9
 397 -10 397 -10 391 -10 c 0,10,11
 307 -10 307 -10 245 16.5 c 128,-1,12
 183 43 183 43 142 91.5 c 128,-1,13
 101 140 101 140 81 208 c 128,-1,14
 61 276 61 276 61 359 c 0,15,16
 61 469 61 469 97 551 c 128,-1,17
 133 633 133 633 206.5 679 c 128,-1,18
 280 725 280 725 392 725 c 0,19,20
 499 725 499 725 572 679.5 c 128,-1,21
 645 634 645 634 682.5 551.5 c 128,-1,22
 720 469 720 469 720 358 c 0,0,1
156 358 m 256,23,24
 156 268 156 268 181 203 c 128,-1,25
 206 138 206 138 258.5 103 c 128,-1,26
 311 68 311 68 391 68 c 0,27,28
 472 68 472 68 523.5 103 c 128,-1,29
 575 138 575 138 600 203 c 128,-1,30
 625 268 625 268 625 358 c 0,31,32
 625 493 625 493 569 569.5 c 128,-1,33
 513 646 513 646 392 646 c 0,34,35
 311 646 311 646 258.5 611.5 c 128,-1,36
 206 577 206 577 181 512.5 c 128,-1,37
 156 448 156 448 156 358 c 256,23,24
EndSplineSet
Substitution2: "'c2sc' Capitals to Small Capitals lookup 38 subtable" q.sc
Substitution2: "'aalt' Access All Alternates lookup 0 subtable" q.sc
EndChar

StartChar: R
Encoding: 82 82 53
Width: 413
GlyphClass: 2
Flags: W
AnchorPoint: "Anchor-7" 241 273 basechar 0
AnchorPoint: "Anchor-6" 393 536 basechar 0
AnchorPoint: "Anchor-5" 126 0 basechar 0
AnchorPoint: "Anchor-4" 240 766 basechar 0
LayerCount: 2
Fore
SplineSet
388 756 m 1,0,1
 379 742 379 742 362 722 c 128,-1,2
 345 702 345 702 324.5 680.5 c 128,-1,3
 304 659 304 659 283.5 639.5 c 128,-1,4
 263 620 263 620 245 606 c 1,5,-1
 187 606 l 1,6,-1
 187 618 l 1,7,8
 202 637 202 637 219.5 663 c 128,-1,9
 237 689 237 689 254 716.5 c 128,-1,10
 271 744 271 744 282 766 c 1,11,-1
 388 766 l 1,12,-1
 388 756 l 1,0,1
335 546 m 0,13,14
 350 546 350 546 367.5 544.5 c 128,-1,15
 385 543 385 543 398 540 c 1,16,-1
 387 459 l 1,17,18
 374 462 374 462 358.5 464 c 128,-1,19
 343 466 343 466 329 466 c 0,20,21
 298 466 298 466 270 453 c 128,-1,22
 242 440 242 440 220 416.5 c 128,-1,23
 198 393 198 393 185.5 360 c 128,-1,24
 173 327 173 327 173 286 c 2,25,-1
 173 0 l 1,26,-1
 85 0 l 1,27,-1
 85 536 l 1,28,-1
 157 536 l 1,29,-1
 167 438 l 1,30,-1
 171 438 l 1,31,32
 188 468 188 468 212 492.5 c 128,-1,33
 236 517 236 517 267 531.5 c 128,-1,34
 298 546 298 546 335 546 c 0,13,14
EndSplineSet
Substitution2: "'c2sc' Capitals to Small Capitals lookup 38 subtable" r.sc
Substitution2: "'aalt' Access All Alternates lookup 0 subtable" r.sc
EndChar

StartChar: S
Encoding: 83 83 54
Width: 479
GlyphClass: 2
Flags: W
AnchorPoint: "Anchor-7" 242 268 basechar 0
AnchorPoint: "Anchor-6" 439 536 basechar 0
AnchorPoint: "Anchor-5" 240 0 basechar 0
AnchorPoint: "Anchor-4" 240 766 basechar 0
LayerCount: 2
Fore
SplineSet
434 148 m 0,0,1
 434 96 434 96 408 61 c 128,-1,2
 382 26 382 26 334 8 c 128,-1,3
 286 -10 286 -10 220 -10 c 0,4,5
 164 -10 164 -10 123.5 -1 c 128,-1,6
 83 8 83 8 52 24 c 1,7,-1
 52 104 l 1,8,9
 84 88 84 88 129.5 74.5 c 128,-1,10
 175 61 175 61 222 61 c 0,11,12
 289 61 289 61 319 82.5 c 128,-1,13
 349 104 349 104 349 140 c 0,14,15
 349 160 349 160 338 176 c 128,-1,16
 327 192 327 192 298.5 208 c 128,-1,17
 270 224 270 224 217 244 c 0,18,19
 165 264 165 264 128 284 c 128,-1,20
 91 304 91 304 71 332 c 128,-1,21
 51 360 51 360 51 404 c 0,22,23
 51 472 51 472 106.5 509 c 128,-1,24
 162 546 162 546 252 546 c 0,25,26
 301 546 301 546 343.5 536.5 c 128,-1,27
 386 527 386 527 423 510 c 1,28,-1
 393 440 l 1,29,30
 359 454 359 454 322 464 c 128,-1,31
 285 474 285 474 246 474 c 0,32,33
 192 474 192 474 163.5 456.5 c 128,-1,34
 135 439 135 439 135 409 c 0,35,36
 135 387 135 387 148 371.5 c 128,-1,37
 161 356 161 356 191.5 341.5 c 128,-1,38
 222 327 222 327 273 307 c 0,39,40
 324 288 324 288 360 268 c 128,-1,41
 396 248 396 248 415 219.5 c 128,-1,42
 434 191 434 191 434 148 c 0,0,1
194 606 m 1,43,44
 181 629 181 629 159 655.5 c 128,-1,45
 137 682 137 682 113 708 c 128,-1,46
 89 734 89 734 71 753 c 1,47,-1
 71 766 l 1,48,-1
 131 766 l 1,49,50
 157 749 157 749 185 725 c 128,-1,51
 213 701 213 701 238 674 c 1,52,53
 265 701 265 701 293 725 c 128,-1,54
 321 749 321 749 347 766 c 1,55,-1
 409 766 l 1,56,-1
 409 753 l 1,57,58
 390 734 390 734 365.5 708 c 128,-1,59
 341 682 341 682 318.5 655.5 c 128,-1,60
 296 629 296 629 284 606 c 1,61,-1
 194 606 l 1,43,44
EndSplineSet
Substitution2: "'c2sc' Capitals to Small Capitals lookup 38 subtable" s.sc
Substitution2: "'aalt' Access All Alternates lookup 0 subtable" s.sc
EndChar

StartChar: T
Encoding: 84 84 55
Width: 448
GlyphClass: 2
Flags: W
AnchorPoint: "Anchor-7" 224 286 basechar 0
AnchorPoint: "Anchor-6" 428 572 basechar 0
AnchorPoint: "Anchor-5" 224 0 basechar 0
AnchorPoint: "Anchor-4" 223 572 basechar 0
LayerCount: 2
Fore
SplineSet
438 572 m 1,0,-1
 438 497 l 1,1,-1
 268 497 l 1,2,-1
 268 0 l 1,3,-1
 181 0 l 1,4,-1
 181 497 l 1,5,-1
 11 497 l 1,6,-1
 11 572 l 1,7,-1
 438 572 l 1,0,-1
EndSplineSet
Substitution2: "'c2sc' Capitals to Small Capitals lookup 38 subtable" t.sc
Substitution2: "'aalt' Access All Alternates lookup 0 subtable" t.sc
EndChar

StartChar: U
Encoding: 85 85 56
Width: 596
GlyphClass: 2
Flags: W
AnchorPoint: "Anchor-7" 298 282 basechar 0
AnchorPoint: "Anchor-6" 576 572 basechar 0
AnchorPoint: "Anchor-5" 298 0 basechar 0
AnchorPoint: "Anchor-4" 299 572 basechar 0
LayerCount: 2
Fore
SplineSet
527 212 m 2,0,1
 527 143 527 143 500 94 c 128,-1,2
 473 45 473 45 421.5 18.5 c 128,-1,3
 370 -8 370 -8 295 -8 c 0,4,5
 186 -8 186 -8 127.5 49.5 c 128,-1,6
 69 107 69 107 69 211 c 2,7,-1
 69 572 l 1,8,-1
 157 572 l 1,9,-1
 157 215 l 2,10,11
 157 142 157 142 193.5 103.5 c 128,-1,12
 230 65 230 65 300 65 c 0,13,14
 368 65 368 65 403.5 103.5 c 128,-1,15
 439 142 439 142 439 213 c 2,16,-1
 439 572 l 1,17,-1
 527 572 l 1,18,-1
 527 212 l 2,0,1
EndSplineSet
Substitution2: "'c2sc' Capitals to Small Capitals lookup 38 subtable" u.sc
Substitution2: "'aalt' Access All Alternates lookup 0 subtable" u.sc
EndChar

StartChar: V
Encoding: 86 86 57
Width: 507
GlyphClass: 2
Flags: W
AnchorPoint: "Anchor-7" 253 286 basechar 0
AnchorPoint: "Anchor-6" 487 572 basechar 0
AnchorPoint: "Anchor-5" 254 0 basechar 0
AnchorPoint: "Anchor-4" 254 572 basechar 0
LayerCount: 2
Fore
SplineSet
205 0 m 1,0,-1
 0 572 l 1,1,-1
 96 572 l 1,2,-1
 220 198 l 2,3,4
 232 163 232 163 239.5 138 c 128,-1,5
 247 113 247 113 253 90 c 1,6,7
 258 113 258 113 267 141 c 128,-1,8
 276 169 276 169 286 198 c 2,9,-1
 410 572 l 1,10,-1
 507 572 l 1,11,-1
 301 0 l 1,12,-1
 205 0 l 1,0,-1
EndSplineSet
Substitution2: "'c2sc' Capitals to Small Capitals lookup 38 subtable" v.sc
Substitution2: "'aalt' Access All Alternates lookup 0 subtable" v.sc
EndChar

StartChar: W
Encoding: 87 87 58
Width: 773
GlyphClass: 2
Flags: W
AnchorPoint: "Anchor-7" 386 286 basechar 0
AnchorPoint: "Anchor-6" 753 572 basechar 0
AnchorPoint: "Anchor-5" 387 0 basechar 0
AnchorPoint: "Anchor-4" 387 572 basechar 0
LayerCount: 2
Fore
SplineSet
409 363 m 2,0,1
 404 384 404 384 399 404.5 c 128,-1,2
 394 425 394 425 390.5 443.5 c 128,-1,3
 387 462 387 462 385 477 c 1,4,5
 383 461 383 461 379.5 442.5 c 128,-1,6
 376 424 376 424 371.5 405 c 128,-1,7
 367 386 367 386 362 367 c 2,8,-1
 264 0 l 1,9,-1
 169 0 l 1,10,-1
 17 572 l 1,11,-1
 103 572 l 1,12,-1
 189 236 l 2,13,14
 195 213 195 213 201 186.5 c 128,-1,15
 207 160 207 160 212 135.5 c 128,-1,16
 217 111 217 111 220 92 c 1,17,18
 224 111 224 111 228.5 132 c 128,-1,19
 233 153 233 153 238.5 177 c 128,-1,20
 244 201 244 201 251 227 c 2,21,-1
 342 572 l 1,22,-1
 427 572 l 1,23,-1
 520 224 l 2,24,25
 526 202 526 202 532 178 c 128,-1,26
 538 154 538 154 543 131.5 c 128,-1,27
 548 109 548 109 551 91 c 1,28,29
 553 107 553 107 558 129 c 128,-1,30
 563 151 563 151 568.5 172 c 128,-1,31
 574 193 574 193 577 206 c 2,32,-1
 670 572 l 1,33,-1
 755 572 l 1,34,-1
 602 0 l 1,35,-1
 507 0 l 1,36,-1
 409 363 l 2,0,1
EndSplineSet
Substitution2: "'c2sc' Capitals to Small Capitals lookup 38 subtable" w.sc
Substitution2: "'aalt' Access All Alternates lookup 0 subtable" w.sc
EndChar

StartChar: X
Encoding: 88 88 59
Width: 497
GlyphClass: 2
Flags: W
AnchorPoint: "Anchor-7" 248 286 basechar 0
AnchorPoint: "Anchor-6" 477 572 basechar 0
AnchorPoint: "Anchor-5" 249 0 basechar 0
AnchorPoint: "Anchor-4" 249 572 basechar 0
LayerCount: 2
Fore
SplineSet
248 231 m 1,0,-1
 99 0 l 1,1,-1
 1 0 l 1,2,-1
 194 295 l 1,3,-1
 17 572 l 1,4,-1
 113 572 l 1,5,-1
 249 354 l 1,6,-1
 385 572 l 1,7,-1
 482 572 l 1,8,-1
 301 292 l 1,9,-1
 496 0 l 1,10,-1
 396 0 l 1,11,-1
 248 231 l 1,0,-1
EndSplineSet
Substitution2: "'c2sc' Capitals to Small Capitals lookup 38 subtable" x.sc
Substitution2: "'aalt' Access All Alternates lookup 0 subtable" x.sc
EndChar

StartChar: Y
Encoding: 89 89 60
Width: 473
GlyphClass: 2
Flags: W
AnchorPoint: "Anchor-7" 236 286 basechar 0
AnchorPoint: "Anchor-6" 453 572 basechar 0
AnchorPoint: "Anchor-5" 237 0 basechar 0
AnchorPoint: "Anchor-4" 237 572 basechar 0
LayerCount: 2
Fore
SplineSet
473 572 m 1,0,-1
 281 222 l 1,1,-1
 281 0 l 1,2,-1
 192 0 l 1,3,-1
 192 218 l 1,4,-1
 0 572 l 1,5,-1
 96 572 l 1,6,-1
 237 299 l 1,7,-1
 379 572 l 1,8,-1
 473 572 l 1,0,-1
EndSplineSet
Substitution2: "'c2sc' Capitals to Small Capitals lookup 38 subtable" y.sc
Substitution2: "'aalt' Access All Alternates lookup 0 subtable" y.sc
EndChar

StartChar: Z
Encoding: 90 90 61
Width: 479
GlyphClass: 2
Flags: W
AnchorPoint: "Anchor-7" 240 286 basechar 0
AnchorPoint: "Anchor-6" 459 572 basechar 0
AnchorPoint: "Anchor-5" 240 0 basechar 0
AnchorPoint: "Anchor-4" 240 773 basechar 0
LayerCount: 2
Fore
SplineSet
29 0 m 1,0,-1
 29 56 l 1,1,-1
 332 499 l 1,2,-1
 40 499 l 1,3,-1
 40 572 l 1,4,-1
 443 572 l 1,5,-1
 443 515 l 1,6,-1
 140 73 l 1,7,-1
 451 73 l 1,8,-1
 451 0 l 1,9,-1
 29 0 l 1,0,-1
245 773 m 0,10,11
 265 773 265 773 280.5 759.5 c 128,-1,12
 296 746 296 746 296 717 c 0,13,14
 296 689 296 689 280.5 675 c 128,-1,15
 265 661 265 661 245 661 c 0,16,17
 223 661 223 661 208 675 c 128,-1,18
 193 689 193 689 193 717 c 0,19,20
 193 746 193 746 208 759.5 c 128,-1,21
 223 773 223 773 245 773 c 0,10,11
EndSplineSet
Substitution2: "'c2sc' Capitals to Small Capitals lookup 38 subtable" z.sc
Substitution2: "'aalt' Access All Alternates lookup 0 subtable" z.sc
EndChar

StartChar: bracketleft
Encoding: 91 91 62
Width: 329
Flags: W
LayerCount: 2
Fore
SplineSet
304 -158 m 1,0,-1
 80 -158 l 1,1,-1
 80 714 l 1,2,-1
 304 714 l 1,3,-1
 304 642 l 1,4,-1
 166 642 l 1,5,-1
 166 -86 l 1,6,-1
 304 -86 l 1,7,-1
 304 -158 l 1,0,-1
EndSplineSet
Substitution2: "'smcp' Lowercase to Small Capitals lookup 39 subtable" bracketleft.sc
Substitution2: "'c2sc' Capitals to Small Capitals lookup 38 subtable" bracketleft.sc
Substitution2: "'aalt' Access All Alternates lookup 0 subtable" bracketleft.sc
EndChar

StartChar: backslash
Encoding: 92 92 63
Width: 372
Flags: W
LayerCount: 2
Fore
SplineSet
96 714 m 1,0,-1
 363 0 l 1,1,-1
 276 0 l 1,2,-1
 10 714 l 1,3,-1
 96 714 l 1,0,-1
EndSplineSet
EndChar

StartChar: bracketright
Encoding: 93 93 64
Width: 329
Flags: W
LayerCount: 2
Fore
SplineSet
25 -86 m 1,0,-1
 163 -86 l 1,1,-1
 163 642 l 1,2,-1
 25 642 l 1,3,-1
 25 714 l 1,4,-1
 249 714 l 1,5,-1
 249 -158 l 1,6,-1
 25 -158 l 1,7,-1
 25 -86 l 1,0,-1
EndSplineSet
Substitution2: "'smcp' Lowercase to Small Capitals lookup 39 subtable" bracketright.sc
Substitution2: "'c2sc' Capitals to Small Capitals lookup 38 subtable" bracketright.sc
Substitution2: "'aalt' Access All Alternates lookup 0 subtable" bracketright.sc
EndChar

StartChar: asciicircum
Encoding: 94 94 65
Width: 572
Flags: W
LayerCount: 2
Fore
SplineSet
38 267 m 1,0,-1
 250 719 l 1,1,-1
 300 719 l 1,2,-1
 534 267 l 1,3,-1
 456 267 l 1,4,-1
 276 626 l 1,5,-1
 116 267 l 1,6,-1
 38 267 l 1,0,-1
EndSplineSet
EndChar

StartChar: underscore
Encoding: 95 95 66
Width: 444
Flags: W
LayerCount: 2
Fore
SplineSet
446 -154 m 1,0,-1
 -2 -154 l 1,1,-1
 -2 -90 l 1,2,-1
 446 -90 l 1,3,-1
 446 -154 l 1,0,-1
EndSplineSet
EndChar

StartChar: grave
Encoding: 96 96 67
Width: 281
Flags: W
LayerCount: 2
Fore
SplineSet
145 766 m 1,0,1
 156 744 156 744 172.5 716.5 c 128,-1,2
 189 689 189 689 207.5 663 c 128,-1,3
 226 637 226 637 241 618 c 1,4,-1
 241 606 l 1,5,-1
 182 606 l 1,6,7
 165 620 165 620 144 639.5 c 128,-1,8
 123 659 123 659 102.5 680.5 c 128,-1,9
 82 702 82 702 65.5 722 c 128,-1,10
 49 742 49 742 40 756 c 1,11,-1
 40 766 l 1,12,-1
 145 766 l 1,0,1
EndSplineSet
EndChar

StartChar: a
Encoding: 97 97 68
Width: 561
GlyphClass: 2
Flags: W
AnchorPoint: "Anchor-7" 263 267 basechar 0
AnchorPoint: "Anchor-6" 511 536 basechar 0
AnchorPoint: "Anchor-5" 281 0 basechar 0
AnchorPoint: "Anchor-4" 281 536 basechar 0
LayerCount: 2
Fore
SplineSet
288 545 m 0,0,1
 386 545 386 545 433 502 c 128,-1,2
 480 459 480 459 480 365 c 2,3,-1
 480 0 l 1,4,-1
 416 0 l 1,5,-1
 399 76 l 1,6,-1
 395 76 l 1,7,8
 372 47 372 47 347.5 27.5 c 128,-1,9
 323 8 323 8 291.5 -1 c 128,-1,10
 260 -10 260 -10 215 -10 c 0,11,12
 167 -10 167 -10 128.5 7 c 128,-1,13
 90 24 90 24 68 59.5 c 128,-1,14
 46 95 46 95 46 149 c 0,15,16
 46 229 46 229 109 272.5 c 128,-1,17
 172 316 172 316 303 320 c 2,18,-1
 394 323 l 1,19,-1
 394 355 l 2,20,21
 394 422 394 422 365 448 c 128,-1,22
 336 474 336 474 283 474 c 0,23,24
 241 474 241 474 203 461.5 c 128,-1,25
 165 449 165 449 132 433 c 1,26,-1
 105 499 l 1,27,28
 140 518 140 518 188 531.5 c 128,-1,29
 236 545 236 545 288 545 c 0,0,1
314 259 m 2,30,31
 214 255 214 255 175.5 227 c 128,-1,32
 137 199 137 199 137 148 c 0,33,34
 137 103 137 103 164.5 82 c 128,-1,35
 192 61 192 61 235 61 c 0,36,37
 303 61 303 61 348 98.5 c 128,-1,38
 393 136 393 136 393 214 c 2,39,-1
 393 262 l 1,40,-1
 314 259 l 2,30,31
EndSplineSet
Substitution2: "'smcp' Lowercase to Small Capitals lookup 39 subtable" a.sc
Substitution2: "Single Substitution lookup 33 subtable" ordfeminine
AlternateSubs2: "'aalt' Access All Alternates lookup 1 subtable" ordfeminine a.sc
EndChar

StartChar: b
Encoding: 98 98 69
Width: 615
GlyphClass: 2
Flags: W
AnchorPoint: "Anchor-7" 322 375 basechar 0
AnchorPoint: "Anchor-6" 515 760 basechar 0
AnchorPoint: "Anchor-5" 322 0 basechar 0
AnchorPoint: "Anchor-4" 338 760 basechar 0
LayerCount: 2
Fore
SplineSet
173 575 m 2,0,1
 173 541 173 541 171.5 511.5 c 128,-1,2
 170 482 170 482 168 465 c 1,3,-1
 173 465 l 1,4,5
 196 499 196 499 236 522 c 128,-1,6
 276 545 276 545 339 545 c 0,7,8
 439 545 439 545 499.5 475.5 c 128,-1,9
 560 406 560 406 560 268 c 0,10,11
 560 176 560 176 532.5 114 c 128,-1,12
 505 52 505 52 455 21 c 128,-1,13
 405 -10 405 -10 339 -10 c 0,14,15
 276 -10 276 -10 236 13 c 128,-1,16
 196 36 196 36 173 68 c 1,17,-1
 166 68 l 1,18,-1
 148 0 l 1,19,-1
 85 0 l 1,20,-1
 85 760 l 1,21,-1
 173 760 l 1,22,-1
 173 575 l 2,0,1
324 472 m 0,23,24
 267 472 267 472 234 450.5 c 128,-1,25
 201 429 201 429 187 384.5 c 128,-1,26
 173 340 173 340 173 271 c 2,27,-1
 173 267 l 2,28,29
 173 168 173 168 205.5 115.5 c 128,-1,30
 238 63 238 63 326 63 c 0,31,32
 398 63 398 63 433.5 116 c 128,-1,33
 469 169 469 169 469 269 c 0,34,35
 469 370 469 370 433.5 421 c 128,-1,36
 398 472 398 472 324 472 c 0,23,24
EndSplineSet
Substitution2: "'smcp' Lowercase to Small Capitals lookup 39 subtable" b.sc
Substitution2: "'aalt' Access All Alternates lookup 0 subtable" b.sc
EndChar

StartChar: c
Encoding: 99 99 70
Width: 490
GlyphClass: 2
Flags: W
AnchorPoint: "Anchor-1" 245 536 basechar 0
AnchorPoint: "Anchor-0" 245 0 basechar 0
LayerCount: 2
Fore
SplineSet
301 -10 m 0,0,1
 183 -10 183 -10 118 57 c 128,-1,2
 53 124 53 124 53 245 c 0,3,4
 53 325 53 325 82 380.5 c 128,-1,5
 111 436 111 436 165 465 c 1,6,-1
 32 465 l 1,7,-1
 32 537 l 1,8,-1
 458 537 l 1,9,-1
 458 465 l 1,10,-1
 345 465 l 2,11,12
 251 465 251 465 197.5 411.5 c 128,-1,13
 144 358 144 358 144 252 c 0,14,15
 144 165 144 165 187 114.5 c 128,-1,16
 230 64 230 64 310 64 c 0,17,18
 347 64 347 64 381 73.5 c 128,-1,19
 415 83 415 83 447 99 c 1,20,-1
 447 21 l 1,21,22
 418 5 418 5 383 -2.5 c 128,-1,23
 348 -10 348 -10 301 -10 c 0,0,1
EndSplineSet
Substitution2: "'smcp' Lowercase to Small Capitals lookup 39 subtable" c.sc
Substitution2: "'aalt' Access All Alternates lookup 0 subtable" c.sc
EndChar

StartChar: d
Encoding: 100 100 71
Width: 615
GlyphClass: 2
Flags: W
AnchorPoint: "Anchor-7" 308 268 basechar 0
AnchorPoint: "Anchor-6" 553 760 basechar 0
AnchorPoint: "Anchor-5" 292 0 basechar 0
AnchorPoint: "Anchor-4" 275 760 basechar 0
LayerCount: 2
Fore
SplineSet
275 -10 m 0,0,1
 175 -10 175 -10 115 59.5 c 128,-1,2
 55 129 55 129 55 267 c 256,3,4
 55 405 55 405 115.5 475.5 c 128,-1,5
 176 546 176 546 276 546 c 0,6,7
 318 546 318 546 349 535.5 c 128,-1,8
 380 525 380 525 403 507 c 128,-1,9
 426 489 426 489 442 467 c 1,10,-1
 448 467 l 1,11,12
 447 480 447 480 444.5 505.5 c 128,-1,13
 442 531 442 531 442 546 c 2,14,-1
 442 760 l 1,15,-1
 530 760 l 1,16,-1
 530 0 l 1,17,-1
 459 0 l 1,18,-1
 446 72 l 1,19,-1
 442 72 l 1,20,21
 426 49 426 49 403 30.5 c 128,-1,22
 380 12 380 12 348.5 1 c 128,-1,23
 317 -10 317 -10 275 -10 c 0,0,1
289 63 m 0,24,25
 374 63 374 63 408.5 109.5 c 128,-1,26
 443 156 443 156 443 250 c 2,27,-1
 443 266 l 2,28,29
 443 366 443 366 410 419.5 c 128,-1,30
 377 473 377 473 288 473 c 0,31,32
 217 473 217 473 181.5 416.5 c 128,-1,33
 146 360 146 360 146 265 c 0,34,35
 146 169 146 169 181.5 116 c 128,-1,36
 217 63 217 63 289 63 c 0,24,25
EndSplineSet
Substitution2: "'smcp' Lowercase to Small Capitals lookup 39 subtable" d.sc
Substitution2: "'aalt' Access All Alternates lookup 0 subtable" d.sc
EndChar

StartChar: e
Encoding: 101 101 72
Width: 564
GlyphClass: 2
Flags: W
AnchorPoint: "Anchor-7" 284 268 basechar 0
AnchorPoint: "Anchor-6" 544 536 basechar 0
AnchorPoint: "Anchor-5" 301 0 basechar 0
AnchorPoint: "Anchor-4" 285 536 basechar 0
LayerCount: 2
Fore
SplineSet
292 546 m 0,0,1
 361 546 361 546 410.5 516 c 128,-1,2
 460 486 460 486 486.5 431.5 c 128,-1,3
 513 377 513 377 513 304 c 2,4,-1
 513 251 l 1,5,-1
 146 251 l 1,6,7
 148 160 148 160 192.5 112.5 c 128,-1,8
 237 65 237 65 317 65 c 0,9,10
 368 65 368 65 407.5 74.5 c 128,-1,11
 447 84 447 84 489 102 c 1,12,-1
 489 25 l 1,13,14
 448 7 448 7 408 -1.5 c 128,-1,15
 368 -10 368 -10 313 -10 c 0,16,17
 237 -10 237 -10 178.5 21 c 128,-1,18
 120 52 120 52 87.5 113.5 c 128,-1,19
 55 175 55 175 55 264 c 0,20,21
 55 352 55 352 84.5 415 c 128,-1,22
 114 478 114 478 167.5 512 c 128,-1,23
 221 546 221 546 292 546 c 0,0,1
291 474 m 0,24,25
 228 474 228 474 191.5 433.5 c 128,-1,26
 155 393 155 393 148 321 c 1,27,-1
 421 321 l 1,28,29
 421 367 421 367 407 401 c 128,-1,30
 393 435 393 435 364.5 454.5 c 128,-1,31
 336 474 336 474 291 474 c 0,24,25
EndSplineSet
Substitution2: "'smcp' Lowercase to Small Capitals lookup 39 subtable" e.sc
Substitution2: "'aalt' Access All Alternates lookup 0 subtable" e.sc
EndChar

StartChar: f
Encoding: 102 102 73
Width: 344
GlyphClass: 2
Flags: W
AnchorPoint: "Anchor-7" 201 382 basechar 0
AnchorPoint: "Anchor-6" 380 765 basechar 0
AnchorPoint: "Anchor-5" 153 0 basechar 0
AnchorPoint: "Anchor-4" 252 765 basechar 0
LayerCount: 2
Fore
SplineSet
332 468 m 1,0,-1
 197 468 l 1,1,-1
 197 0 l 1,2,-1
 109 0 l 1,3,-1
 109 468 l 1,4,-1
 15 468 l 1,5,-1
 15 509 l 1,6,-1
 109 539 l 1,7,-1
 109 570 l 2,8,9
 109 639 109 639 129.5 682 c 128,-1,10
 150 725 150 725 189 745 c 128,-1,11
 228 765 228 765 283 765 c 0,12,13
 315 765 315 765 341.5 759.5 c 128,-1,14
 368 754 368 754 387 747 c 1,15,-1
 364 678 l 1,16,17
 348 683 348 683 327 688 c 128,-1,18
 306 693 306 693 284 693 c 0,19,20
 240 693 240 693 218.5 663.5 c 128,-1,21
 197 634 197 634 197 571 c 2,22,-1
 197 536 l 1,23,-1
 332 536 l 1,24,-1
 332 468 l 1,0,-1
EndSplineSet
Substitution2: "'smcp' Lowercase to Small Capitals lookup 39 subtable" f.sc
Substitution2: "'aalt' Access All Alternates lookup 0 subtable" f.sc
EndChar

StartChar: g
Encoding: 103 103 74
Width: 615
GlyphClass: 2
Flags: W
AnchorPoint: "Anchor-7" 292 153 basechar 0
AnchorPoint: "Anchor-6" 555 536 basechar 0
AnchorPoint: "Anchor-5" 298 -240 basechar 0
AnchorPoint: "Anchor-4" 297 536 basechar 0
LayerCount: 2
Fore
SplineSet
275 546 m 0,0,1
 328 546 328 546 370.5 526 c 128,-1,2
 413 506 413 506 443 465 c 1,3,-1
 448 465 l 1,4,-1
 460 536 l 1,5,-1
 530 536 l 1,6,-1
 530 -9 l 2,7,8
 530 -85 530 -85 504 -136.5 c 128,-1,9
 478 -188 478 -188 425 -214 c 128,-1,10
 372 -240 372 -240 290 -240 c 0,11,12
 232 -240 232 -240 183.5 -231.5 c 128,-1,13
 135 -223 135 -223 97 -206 c 1,14,-1
 97 -125 l 1,15,16
 135 -145 135 -145 186 -156 c 128,-1,17
 237 -167 237 -167 295 -167 c 0,18,19
 364 -167 364 -167 403.5 -126.5 c 128,-1,20
 443 -86 443 -86 443 -16 c 2,21,-1
 443 5 l 2,22,23
 443 17 443 17 444 39.5 c 128,-1,24
 445 62 445 62 446 71 c 1,25,-1
 442 71 l 1,26,27
 414 30 414 30 372.5 10 c 128,-1,28
 331 -10 331 -10 276 -10 c 0,29,30
 172 -10 172 -10 113.5 63 c 128,-1,31
 55 136 55 136 55 267 c 0,32,33
 55 395 55 395 113.5 470.5 c 128,-1,34
 172 546 172 546 275 546 c 0,0,1
287 472 m 0,35,36
 242 472 242 472 210.5 448 c 128,-1,37
 179 424 179 424 162.5 378 c 128,-1,38
 146 332 146 332 146 266 c 0,39,40
 146 167 146 167 182.5 114.5 c 128,-1,41
 219 62 219 62 289 62 c 0,42,43
 330 62 330 62 359 72.5 c 128,-1,44
 388 83 388 83 407 105.5 c 128,-1,45
 426 128 426 128 435 163 c 128,-1,46
 444 198 444 198 444 246 c 2,47,-1
 444 267 l 2,48,49
 444 340 444 340 427.5 385 c 128,-1,50
 411 430 411 430 376 451 c 128,-1,51
 341 472 341 472 287 472 c 0,35,36
EndSplineSet
Substitution2: "'smcp' Lowercase to Small Capitals lookup 39 subtable" g.sc
Substitution2: "'aalt' Access All Alternates lookup 0 subtable" g.sc
EndChar

StartChar: h
Encoding: 104 104 75
Width: 618
GlyphClass: 2
Flags: W
AnchorPoint: "Anchor-7" 309 268 basechar 0
AnchorPoint: "Anchor-6" 535 760 basechar 0
AnchorPoint: "Anchor-5" 310 0 basechar 0
AnchorPoint: "Anchor-4" 130 760 basechar 0
LayerCount: 2
Fore
SplineSet
173 537 m 2,0,1
 173 518 173 518 171.5 498 c 128,-1,2
 170 478 170 478 168 462 c 1,3,-1
 174 462 l 1,4,5
 191 490 191 490 217 508 c 128,-1,6
 243 526 243 526 275 535.5 c 128,-1,7
 307 545 307 545 341 545 c 0,8,9
 406 545 406 545 449.5 524.5 c 128,-1,10
 493 504 493 504 515 461 c 128,-1,11
 537 418 537 418 537 349 c 2,12,-1
 537 0 l 1,13,-1
 450 0 l 1,14,-1
 450 343 l 2,15,16
 450 408 450 408 421 440 c 128,-1,17
 392 472 392 472 330 472 c 0,18,19
 270 472 270 472 236 449.5 c 128,-1,20
 202 427 202 427 187.5 383.5 c 128,-1,21
 173 340 173 340 173 277 c 2,22,-1
 173 0 l 1,23,-1
 85 0 l 1,24,-1
 85 760 l 1,25,-1
 173 760 l 1,26,-1
 173 537 l 2,0,1
EndSplineSet
Substitution2: "'smcp' Lowercase to Small Capitals lookup 39 subtable" h.sc
Substitution2: "'sinf' Scientific Inferiors lookup 24 subtable" uni2095
Substitution2: "'subs' Subscript lookup 23 subtable" uni2095
AlternateSubs2: "'aalt' Access All Alternates lookup 1 subtable" h.sc uni2095
EndChar

StartChar: i
Encoding: 105 105 76
Width: 258
GlyphClass: 2
Flags: W
AnchorPoint: "Anchor-7" 129 368 basechar 0
AnchorPoint: "Anchor-6" 238 737 basechar 0
AnchorPoint: "Anchor-5" 131 0 basechar 0
AnchorPoint: "Anchor-4" 129 737 basechar 0
LayerCount: 2
Fore
SplineSet
173 536 m 1,0,-1
 173 0 l 1,1,-1
 85 0 l 1,2,-1
 85 536 l 1,3,-1
 173 536 l 1,0,-1
130 737 m 0,4,5
 150 737 150 737 165.5 723.5 c 128,-1,6
 181 710 181 710 181 681 c 0,7,8
 181 653 181 653 165.5 639 c 128,-1,9
 150 625 150 625 130 625 c 0,10,11
 108 625 108 625 93 639 c 128,-1,12
 78 653 78 653 78 681 c 0,13,14
 78 710 78 710 93 723.5 c 128,-1,15
 108 737 108 737 130 737 c 0,4,5
EndSplineSet
Substitution2: "'smcp' Lowercase to Small Capitals lookup 39 subtable" i.sc
Substitution2: "Single Substitution lookup 4 subtable" dotlessi
AlternateSubs2: "'aalt' Access All Alternates lookup 1 subtable" dotlessi i.sc
EndChar

StartChar: j
Encoding: 106 106 77
Width: 470
GlyphClass: 2
Flags: W
AnchorPoint: "Anchor-1" 235 536 basechar 0
AnchorPoint: "Anchor-0" 235 0 basechar 0
LayerCount: 2
Fore
SplineSet
424 536 m 1,0,-1
 424 470 l 1,1,-1
 313 313 l 1,2,-1
 414 313 l 1,3,-1
 414 243 l 1,4,-1
 263 243 l 1,5,-1
 140 68 l 1,6,-1
 431 68 l 1,7,-1
 431 0 l 1,8,-1
 39 0 l 1,9,-1
 39 58 l 1,10,-1
 169 243 l 1,11,-1
 57 243 l 1,12,-1
 57 313 l 1,13,-1
 218 313 l 1,14,-1
 327 468 l 1,15,-1
 56 468 l 1,16,-1
 56 536 l 1,17,-1
 424 536 l 1,0,-1
EndSplineSet
Substitution2: "'smcp' Lowercase to Small Capitals lookup 39 subtable" j.sc
Substitution2: "Single Substitution lookup 4 subtable" uni0237
AlternateSubs2: "'aalt' Access All Alternates lookup 1 subtable" uni0237 j.sc
EndChar

StartChar: k
Encoding: 107 107 78
Width: 534
GlyphClass: 2
Flags: W
AnchorPoint: "Anchor-7" 305 380 basechar 0
AnchorPoint: "Anchor-6" 369 840 basechar 0
AnchorPoint: "Anchor-5" 267 0 basechar 0
AnchorPoint: "Anchor-4" 129 760 basechar 0
LayerCount: 2
Fore
SplineSet
172 363 m 2,0,1
 172 347 172 347 170.5 321 c 128,-1,2
 169 295 169 295 168 276 c 1,3,-1
 172 276 l 1,4,5
 178 284 178 284 190 299 c 128,-1,6
 202 314 202 314 214.5 329.5 c 128,-1,7
 227 345 227 345 236 355 c 2,8,-1
 407 536 l 1,9,-1
 510 536 l 1,10,-1
 293 307 l 1,11,-1
 525 0 l 1,12,-1
 419 0 l 1,13,-1
 233 250 l 1,14,-1
 172 197 l 1,15,-1
 172 0 l 1,16,-1
 85 0 l 1,17,-1
 85 760 l 1,18,-1
 172 760 l 1,19,-1
 172 363 l 2,0,1
EndSplineSet
Substitution2: "'smcp' Lowercase to Small Capitals lookup 39 subtable" k.sc
Substitution2: "'sinf' Scientific Inferiors lookup 24 subtable" uni2096
Substitution2: "'subs' Subscript lookup 23 subtable" uni2096
AlternateSubs2: "'aalt' Access All Alternates lookup 1 subtable" k.sc uni2096
EndChar

StartChar: l
Encoding: 108 108 79
Width: 258
GlyphClass: 2
Flags: W
AnchorPoint: "Anchor-7" 129 268 basechar 0
AnchorPoint: "Anchor-6" 202 760 basechar 0
AnchorPoint: "Anchor-5" 129 0 basechar 0
AnchorPoint: "Anchor-4" 129 760 basechar 0
LayerCount: 2
Fore
SplineSet
173 0 m 1,0,-1
 85 0 l 1,1,-1
 85 760 l 1,2,-1
 173 760 l 1,3,-1
 173 0 l 1,0,-1
EndSplineSet
Substitution2: "'smcp' Lowercase to Small Capitals lookup 39 subtable" l.sc
Substitution2: "'sinf' Scientific Inferiors lookup 24 subtable" uni2097
Substitution2: "'subs' Subscript lookup 23 subtable" uni2097
AlternateSubs2: "'aalt' Access All Alternates lookup 1 subtable" l.sc uni2097
EndChar

StartChar: m
Encoding: 109 109 80
Width: 935
GlyphClass: 2
Flags: W
AnchorPoint: "Anchor-7" 469 273 basechar 0
AnchorPoint: "Anchor-6" 885 536 basechar 0
AnchorPoint: "Anchor-5" 471 0 basechar 0
AnchorPoint: "Anchor-4" 479 536 basechar 0
LayerCount: 2
Fore
SplineSet
673 546 m 0,0,1
 764 546 764 546 809 499.5 c 128,-1,2
 854 453 854 453 854 349 c 2,3,-1
 854 0 l 1,4,-1
 767 0 l 1,5,-1
 767 345 l 2,6,7
 767 408 767 408 740.5 440 c 128,-1,8
 714 472 714 472 658 472 c 0,9,10
 580 472 580 472 546.5 427 c 128,-1,11
 513 382 513 382 513 296 c 2,12,-1
 513 0 l 1,13,-1
 426 0 l 1,14,-1
 426 345 l 2,15,16
 426 387 426 387 414 415.5 c 128,-1,17
 402 444 402 444 378 458 c 128,-1,18
 354 472 354 472 316 472 c 0,19,20
 262 472 262 472 231 449.5 c 128,-1,21
 200 427 200 427 186.5 384 c 128,-1,22
 173 341 173 341 173 278 c 2,23,-1
 173 0 l 1,24,-1
 85 0 l 1,25,-1
 85 536 l 1,26,-1
 156 536 l 1,27,-1
 169 463 l 1,28,-1
 174 463 l 1,29,30
 191 491 191 491 215.5 509.5 c 128,-1,31
 240 528 240 528 270 537 c 128,-1,32
 300 546 300 546 332 546 c 0,33,34
 394 546 394 546 435.5 524 c 128,-1,35
 477 502 477 502 496 456 c 1,36,-1
 501 456 l 1,37,38
 528 502 528 502 574.5 524 c 128,-1,39
 621 546 621 546 673 546 c 0,0,1
EndSplineSet
Substitution2: "'smcp' Lowercase to Small Capitals lookup 39 subtable" m.sc
Substitution2: "'sinf' Scientific Inferiors lookup 24 subtable" uni2098
Substitution2: "'subs' Subscript lookup 23 subtable" uni2098
AlternateSubs2: "'aalt' Access All Alternates lookup 1 subtable" m.sc uni2098
EndChar

StartChar: n
Encoding: 110 110 81
Width: 618
GlyphClass: 2
Flags: W
AnchorPoint: "Anchor-7" 311 273 basechar 0
AnchorPoint: "Anchor-6" 562 536 basechar 0
AnchorPoint: "Anchor-5" 309 0 basechar 0
AnchorPoint: "Anchor-4" 309 536 basechar 0
LayerCount: 2
Fore
SplineSet
343 546 m 0,0,1
 439 546 439 546 488 499.5 c 128,-1,2
 537 453 537 453 537 349 c 2,3,-1
 537 0 l 1,4,-1
 450 0 l 1,5,-1
 450 343 l 2,6,7
 450 408 450 408 421 440 c 128,-1,8
 392 472 392 472 330 472 c 0,9,10
 241 472 241 472 207 422 c 128,-1,11
 173 372 173 372 173 278 c 2,12,-1
 173 0 l 1,13,-1
 85 0 l 1,14,-1
 85 536 l 1,15,-1
 156 536 l 1,16,-1
 169 463 l 1,17,-1
 174 463 l 1,18,19
 192 491 192 491 218.5 509.5 c 128,-1,20
 245 528 245 528 277 537 c 128,-1,21
 309 546 309 546 343 546 c 0,0,1
EndSplineSet
Substitution2: "'smcp' Lowercase to Small Capitals lookup 39 subtable" n.sc
Substitution2: "'sups' Superscript lookup 25 subtable" uni207F
Substitution2: "'sinf' Scientific Inferiors lookup 24 subtable" uni2099
Substitution2: "'subs' Subscript lookup 23 subtable" uni2099
AlternateSubs2: "'aalt' Access All Alternates lookup 1 subtable" uni207F n.sc uni2099
EndChar

StartChar: o
Encoding: 111 111 82
Width: 605
GlyphClass: 2
Flags: W
AnchorPoint: "Anchor-7" 303 268 basechar 0
AnchorPoint: "Anchor-6" 575 536 basechar 0
AnchorPoint: "Anchor-5" 301 0 basechar 0
AnchorPoint: "Anchor-4" 303 536 basechar 0
LayerCount: 2
Fore
SplineSet
551 269 m 0,0,1
 551 202 551 202 533.5 150.5 c 128,-1,2
 516 99 516 99 483.5 63 c 128,-1,3
 451 27 451 27 404.5 8.5 c 128,-1,4
 358 -10 358 -10 301 -10 c 0,5,6
 248 -10 248 -10 203 8.5 c 128,-1,7
 158 27 158 27 125 63 c 128,-1,8
 92 99 92 99 73.5 150.5 c 128,-1,9
 55 202 55 202 55 269 c 0,10,11
 55 358 55 358 85 419.5 c 128,-1,12
 115 481 115 481 171 513.5 c 128,-1,13
 227 546 227 546 304 546 c 0,14,15
 377 546 377 546 432.5 513.5 c 128,-1,16
 488 481 488 481 519.5 419.5 c 128,-1,17
 551 358 551 358 551 269 c 0,0,1
146 269 m 0,18,19
 146 206 146 206 162.5 159.5 c 128,-1,20
 179 113 179 113 214 88 c 128,-1,21
 249 63 249 63 303 63 c 256,22,23
 357 63 357 63 392 88 c 128,-1,24
 427 113 427 113 443.5 159.5 c 128,-1,25
 460 206 460 206 460 269 c 0,26,27
 460 333 460 333 443 378 c 128,-1,28
 426 423 426 423 391.5 447.5 c 128,-1,29
 357 472 357 472 302 472 c 0,30,31
 220 472 220 472 183 418 c 128,-1,32
 146 364 146 364 146 269 c 0,18,19
EndSplineSet
Substitution2: "'smcp' Lowercase to Small Capitals lookup 39 subtable" o.sc
Substitution2: "Single Substitution lookup 33 subtable" ordmasculine
AlternateSubs2: "'aalt' Access All Alternates lookup 1 subtable" ordmasculine o.sc
EndChar

StartChar: p
Encoding: 112 112 83
Width: 615
GlyphClass: 2
Flags: W
AnchorPoint: "Anchor-7" 322 153 basechar 0
AnchorPoint: "Anchor-6" 585 536 basechar 0
AnchorPoint: "Anchor-5" 129 -240 basechar 0
AnchorPoint: "Anchor-4" 332 536 basechar 0
LayerCount: 2
Fore
SplineSet
340 546 m 0,0,1
 439 546 439 546 499.5 477 c 128,-1,2
 560 408 560 408 560 269 c 0,3,4
 560 178 560 178 532.5 115.5 c 128,-1,5
 505 53 505 53 455.5 21.5 c 128,-1,6
 406 -10 406 -10 339 -10 c 0,7,8
 298 -10 298 -10 266 1 c 128,-1,9
 234 12 234 12 211.5 29.5 c 128,-1,10
 189 47 189 47 173 68 c 1,11,-1
 167 68 l 1,12,13
 169 51 169 51 171 25 c 128,-1,14
 173 -1 173 -1 173 -20 c 2,15,-1
 173 -240 l 1,16,-1
 85 -240 l 1,17,-1
 85 536 l 1,18,-1
 157 536 l 1,19,-1
 169 463 l 1,20,-1
 173 463 l 1,21,22
 189 486 189 486 211.5 505 c 128,-1,23
 234 524 234 524 265.5 535 c 128,-1,24
 297 546 297 546 340 546 c 0,0,1
324 472 m 0,25,26
 270 472 270 472 237 451.5 c 128,-1,27
 204 431 204 431 189 390 c 128,-1,28
 174 349 174 349 173 286 c 2,29,-1
 173 269 l 2,30,31
 173 203 173 203 187 157 c 128,-1,32
 201 111 201 111 234.5 87 c 128,-1,33
 268 63 268 63 326 63 c 0,34,35
 375 63 375 63 406.5 90 c 128,-1,36
 438 117 438 117 453.5 163.5 c 128,-1,37
 469 210 469 210 469 270 c 0,38,39
 469 362 469 362 433.5 417 c 128,-1,40
 398 472 398 472 324 472 c 0,25,26
EndSplineSet
Substitution2: "'smcp' Lowercase to Small Capitals lookup 39 subtable" p.sc
Substitution2: "'sinf' Scientific Inferiors lookup 24 subtable" uni209A
Substitution2: "'subs' Subscript lookup 23 subtable" uni209A
AlternateSubs2: "'aalt' Access All Alternates lookup 1 subtable" p.sc uni209A
EndChar

StartChar: q
Encoding: 113 113 84
Width: 534
GlyphClass: 2
Flags: W
AnchorPoint: "Anchor-1" 267 765 basechar 0
AnchorPoint: "Anchor-0" 267 0 basechar 0
LayerCount: 2
Fore
SplineSet
206 765 m 0,0,1
 225 765 225 765 243 761 c 128,-1,2
 261 757 261 757 271 752 c 1,3,-1
 271 679 l 1,4,5
 264 682 264 682 250 685.5 c 128,-1,6
 236 689 236 689 219 689 c 0,7,8
 197 689 197 689 184.5 676 c 128,-1,9
 172 663 172 663 172 631 c 2,10,-1
 172 363 l 2,11,12
 172 347 172 347 171 321 c 128,-1,13
 170 295 170 295 168 276 c 1,14,-1
 172 276 l 1,15,16
 178 285 178 285 190 299.5 c 128,-1,17
 202 314 202 314 214.5 329.5 c 128,-1,18
 227 345 227 345 236 355 c 2,19,-1
 407 536 l 1,20,-1
 510 536 l 1,21,-1
 293 307 l 1,22,-1
 525 0 l 1,23,-1
 419 0 l 1,24,-1
 233 250 l 1,25,-1
 172 197 l 1,26,-1
 172 0 l 1,27,-1
 85 0 l 1,28,-1
 85 625 l 2,29,30
 85 765 85 765 206 765 c 0,0,1
EndSplineSet
Substitution2: "'smcp' Lowercase to Small Capitals lookup 39 subtable" q.sc
Substitution2: "'aalt' Access All Alternates lookup 0 subtable" q.sc
EndChar

StartChar: r
Encoding: 114 114 85
Width: 413
GlyphClass: 2
Flags: W
AnchorPoint: "Anchor-7" 241 273 basechar 0
AnchorPoint: "Anchor-6" 393 536 basechar 0
AnchorPoint: "Anchor-5" 126 0 basechar 0
AnchorPoint: "Anchor-4" 240 536 basechar 0
LayerCount: 2
Fore
SplineSet
335 546 m 0,0,1
 350 546 350 546 367.5 544.5 c 128,-1,2
 385 543 385 543 398 540 c 1,3,-1
 387 459 l 1,4,5
 374 462 374 462 358.5 464 c 128,-1,6
 343 466 343 466 329 466 c 0,7,8
 298 466 298 466 270 453 c 128,-1,9
 242 440 242 440 220 416.5 c 128,-1,10
 198 393 198 393 185.5 360 c 128,-1,11
 173 327 173 327 173 286 c 2,12,-1
 173 0 l 1,13,-1
 85 0 l 1,14,-1
 85 536 l 1,15,-1
 157 536 l 1,16,-1
 167 438 l 1,17,-1
 171 438 l 1,18,19
 188 468 188 468 212 492.5 c 128,-1,20
 236 517 236 517 267 531.5 c 128,-1,21
 298 546 298 546 335 546 c 0,0,1
EndSplineSet
Substitution2: "'smcp' Lowercase to Small Capitals lookup 39 subtable" r.sc
Substitution2: "'aalt' Access All Alternates lookup 0 subtable" r.sc
EndChar

StartChar: s
Encoding: 115 115 86
Width: 479
GlyphClass: 2
Flags: W
AnchorPoint: "Anchor-7" 242 268 basechar 0
AnchorPoint: "Anchor-6" 439 536 basechar 0
AnchorPoint: "Anchor-5" 240 0 basechar 0
AnchorPoint: "Anchor-4" 240 536 basechar 0
LayerCount: 2
Fore
SplineSet
434 148 m 0,0,1
 434 96 434 96 408 61 c 128,-1,2
 382 26 382 26 334 8 c 128,-1,3
 286 -10 286 -10 220 -10 c 0,4,5
 164 -10 164 -10 123.5 -1 c 128,-1,6
 83 8 83 8 52 24 c 1,7,-1
 52 104 l 1,8,9
 84 88 84 88 129.5 74.5 c 128,-1,10
 175 61 175 61 222 61 c 0,11,12
 289 61 289 61 319 82.5 c 128,-1,13
 349 104 349 104 349 140 c 0,14,15
 349 160 349 160 338 176 c 128,-1,16
 327 192 327 192 298.5 208 c 128,-1,17
 270 224 270 224 217 244 c 0,18,19
 165 264 165 264 128 284 c 128,-1,20
 91 304 91 304 71 332 c 128,-1,21
 51 360 51 360 51 404 c 0,22,23
 51 472 51 472 106.5 509 c 128,-1,24
 162 546 162 546 252 546 c 0,25,26
 301 546 301 546 343.5 536.5 c 128,-1,27
 386 527 386 527 423 510 c 1,28,-1
 393 440 l 1,29,30
 359 454 359 454 322 464 c 128,-1,31
 285 474 285 474 246 474 c 0,32,33
 192 474 192 474 163.5 456.5 c 128,-1,34
 135 439 135 439 135 409 c 0,35,36
 135 387 135 387 148 371.5 c 128,-1,37
 161 356 161 356 191.5 341.5 c 128,-1,38
 222 327 222 327 273 307 c 0,39,40
 324 288 324 288 360 268 c 128,-1,41
 396 248 396 248 415 219.5 c 128,-1,42
 434 191 434 191 434 148 c 0,0,1
EndSplineSet
Substitution2: "'smcp' Lowercase to Small Capitals lookup 39 subtable" s.sc
Substitution2: "'sinf' Scientific Inferiors lookup 24 subtable" uni209B
Substitution2: "'subs' Subscript lookup 23 subtable" uni209B
AlternateSubs2: "'aalt' Access All Alternates lookup 1 subtable" s.sc uni209B
EndChar

StartChar: t
Encoding: 116 116 87
Width: 361
GlyphClass: 2
Flags: W
AnchorPoint: "Anchor-7" 181 268 basechar 0
AnchorPoint: "Anchor-6" 225 840 basechar 0
AnchorPoint: "Anchor-5" 214 0 basechar 0
AnchorPoint: "Anchor-4" 154 659 basechar 0
LayerCount: 2
Fore
SplineSet
264 62 m 0,0,1
 284 62 284 62 305 65.5 c 128,-1,2
 326 69 326 69 339 73 c 1,3,-1
 339 6 l 1,4,5
 325 -1 325 -1 299 -5.5 c 128,-1,6
 273 -10 273 -10 249 -10 c 0,7,8
 207 -10 207 -10 171.5 4.5 c 128,-1,9
 136 19 136 19 114 55 c 128,-1,10
 92 91 92 91 92 156 c 2,11,-1
 92 468 l 1,12,-1
 16 468 l 1,13,-1
 16 510 l 1,14,-1
 93 545 l 1,15,-1
 128 659 l 1,16,-1
 180 659 l 1,17,-1
 180 536 l 1,18,-1
 335 536 l 1,19,-1
 335 468 l 1,20,-1
 180 468 l 1,21,-1
 180 158 l 2,22,23
 180 109 180 109 203.5 85.5 c 128,-1,24
 227 62 227 62 264 62 c 0,0,1
EndSplineSet
Substitution2: "'smcp' Lowercase to Small Capitals lookup 39 subtable" t.sc
Substitution2: "'sinf' Scientific Inferiors lookup 24 subtable" uni209C
Substitution2: "'subs' Subscript lookup 23 subtable" uni209C
AlternateSubs2: "'aalt' Access All Alternates lookup 1 subtable" t.sc uni209C
EndChar

StartChar: u
Encoding: 117 117 88
Width: 618
GlyphClass: 2
Flags: W
AnchorPoint: "Anchor-7" 306 263 basechar 0
AnchorPoint: "Anchor-6" 562 536 basechar 0
AnchorPoint: "Anchor-5" 294 0 basechar 0
AnchorPoint: "Anchor-4" 309 536 basechar 0
LayerCount: 2
Fore
SplineSet
533 536 m 1,0,-1
 533 0 l 1,1,-1
 461 0 l 1,2,-1
 448 71 l 1,3,-1
 444 71 l 1,4,5
 427 43 427 43 400 25 c 128,-1,6
 373 7 373 7 341 -1.5 c 128,-1,7
 309 -10 309 -10 274 -10 c 0,8,9
 210 -10 210 -10 166.5 10.5 c 128,-1,10
 123 31 123 31 101 74 c 128,-1,11
 79 117 79 117 79 185 c 2,12,-1
 79 536 l 1,13,-1
 168 536 l 1,14,-1
 168 191 l 2,15,16
 168 127 168 127 197 95 c 128,-1,17
 226 63 226 63 287 63 c 0,18,19
 347 63 347 63 381.5 85.5 c 128,-1,20
 416 108 416 108 430.5 151.5 c 128,-1,21
 445 195 445 195 445 257 c 2,22,-1
 445 536 l 1,23,-1
 533 536 l 1,0,-1
EndSplineSet
Substitution2: "'smcp' Lowercase to Small Capitals lookup 39 subtable" u.sc
Substitution2: "'aalt' Access All Alternates lookup 0 subtable" u.sc
EndChar

StartChar: v
Encoding: 118 118 89
Width: 508
GlyphClass: 2
Flags: W
AnchorPoint: "Anchor-7" 254 268 basechar 0
AnchorPoint: "Anchor-6" 488 536 basechar 0
AnchorPoint: "Anchor-5" 252 0 basechar 0
AnchorPoint: "Anchor-4" 252 536 basechar 0
LayerCount: 2
Fore
SplineSet
203 0 m 1,0,-1
 0 536 l 1,1,-1
 94 536 l 1,2,-1
 208 220 l 2,3,4
 216 198 216 198 225 171 c 128,-1,5
 234 144 234 144 241 119.5 c 128,-1,6
 248 95 248 95 251 78 c 1,7,-1
 255 78 l 1,8,9
 259 95 259 95 266.5 120 c 128,-1,10
 274 145 274 145 283.5 172 c 128,-1,11
 293 199 293 199 300 220 c 2,12,-1
 414 536 l 1,13,-1
 508 536 l 1,14,-1
 304 0 l 1,15,-1
 203 0 l 1,0,-1
EndSplineSet
Substitution2: "'smcp' Lowercase to Small Capitals lookup 39 subtable" v.sc
Substitution2: "'aalt' Access All Alternates lookup 0 subtable" v.sc
EndChar

StartChar: w
Encoding: 119 119 90
Width: 516
GlyphClass: 2
Flags: W
AnchorPoint: "Anchor-1" 259 536 basechar 0
AnchorPoint: "Anchor-0" 258 0 basechar 0
LayerCount: 2
Fore
SplineSet
259 682 m 4,0,1
 279 682 279 682 294.5 668.5 c 132,-1,2
 310 655 310 655 310 626 c 4,3,4
 310 598 310 598 294.5 584 c 132,-1,5
 279 570 279 570 259 570 c 4,6,7
 237 570 237 570 222 584 c 132,-1,8
 207 598 207 598 207 626 c 4,9,10
 207 655 207 655 222 668.5 c 132,-1,11
 237 682 237 682 259 682 c 4,0,1
496 541 m 0,12,13
 508 541 508 541 518 539 c 128,-1,14
 528 537 528 537 537 535 c 1,15,-1
 537 467 l 1,16,17
 524 472 524 472 503 472 c 0,18,19
 481 472 481 472 467 452 c 128,-1,20
 453 432 453 432 439 390 c 2,21,-1
 316 0 l 1,22,-1
 199 0 l 1,23,-1
 0 536 l 1,24,-1
 92 536 l 1,25,-1
 219 181 l 2,26,27
 234 139 234 139 244 107.5 c 128,-1,28
 254 76 254 76 256 62 c 1,29,-1
 260 62 l 1,30,31
 264 83 264 83 272 119 c 128,-1,32
 280 155 280 155 291 189 c 2,33,-1
 361 407 l 2,34,35
 378 459 378 459 394.5 488 c 128,-1,36
 411 517 411 517 434.5 529 c 128,-1,37
 458 541 458 541 496 541 c 0,12,13
EndSplineSet
Substitution2: "'smcp' Lowercase to Small Capitals lookup 39 subtable" w.sc
Substitution2: "'aalt' Access All Alternates lookup 0 subtable" w.sc
EndChar

StartChar: x
Encoding: 120 120 91
Width: 529
GlyphClass: 2
Flags: W
AnchorPoint: "Anchor-7" 264 268 basechar 0
AnchorPoint: "Anchor-6" 509 536 basechar 0
AnchorPoint: "Anchor-5" 265 0 basechar 0
AnchorPoint: "Anchor-4" 263 536 basechar 0
LayerCount: 2
Fore
SplineSet
212 274 m 1,0,-1
 27 536 l 1,1,-1
 127 536 l 1,2,-1
 265 334 l 1,3,-1
 402 536 l 1,4,-1
 501 536 l 1,5,-1
 316 274 l 1,6,-1
 511 0 l 1,7,-1
 411 0 l 1,8,-1
 265 214 l 1,9,-1
 117 0 l 1,10,-1
 18 0 l 1,11,-1
 212 274 l 1,0,-1
EndSplineSet
Substitution2: "'smcp' Lowercase to Small Capitals lookup 39 subtable" x.sc
Substitution2: "'aalt' Access All Alternates lookup 0 subtable" x.sc
EndChar

StartChar: y
Encoding: 121 121 92
Width: 510
GlyphClass: 2
Flags: W
AnchorPoint: "Anchor-7" 255 148 basechar 0
AnchorPoint: "Anchor-6" 490 536 basechar 0
AnchorPoint: "Anchor-5" 94 -240 basechar 0
AnchorPoint: "Anchor-4" 255 536 basechar 0
LayerCount: 2
Fore
SplineSet
1 536 m 1,0,-1
 95 536 l 1,1,-1
 211 231 l 2,2,3
 221 204 221 204 229.5 179 c 128,-1,4
 238 154 238 154 245 130.5 c 128,-1,5
 252 107 252 107 256 85 c 1,6,-1
 260 85 l 1,7,8
 266 110 266 110 279 150.5 c 128,-1,9
 292 191 292 191 306 232 c 2,10,-1
 415 536 l 1,11,-1
 510 536 l 1,12,-1
 279 -74 l 2,13,14
 260 -124 260 -124 234.5 -161.5 c 128,-1,15
 209 -199 209 -199 172.5 -219.5 c 128,-1,16
 136 -240 136 -240 84 -240 c 0,17,18
 60 -240 60 -240 42 -237.5 c 128,-1,19
 24 -235 24 -235 11 -232 c 1,20,-1
 11 -162 l 1,21,22
 22 -164 22 -164 37.5 -166 c 128,-1,23
 53 -168 53 -168 70 -168 c 0,24,25
 101 -168 101 -168 123.5 -156.5 c 128,-1,26
 146 -145 146 -145 162 -123.5 c 128,-1,27
 178 -102 178 -102 189 -73 c 2,28,-1
 217 -2 l 1,29,-1
 1 536 l 1,0,-1
EndSplineSet
Substitution2: "'smcp' Lowercase to Small Capitals lookup 39 subtable" y.sc
Substitution2: "'aalt' Access All Alternates lookup 0 subtable" y.sc
EndChar

StartChar: z
Encoding: 122 122 93
Width: 470
GlyphClass: 2
Flags: W
AnchorPoint: "Anchor-7" 235 268 basechar 0
AnchorPoint: "Anchor-6" 430 536 basechar 0
AnchorPoint: "Anchor-5" 242 0 basechar 0
AnchorPoint: "Anchor-4" 235 536 basechar 0
LayerCount: 2
Fore
SplineSet
431 0 m 1,0,-1
 39 0 l 1,1,-1
 39 58 l 1,2,-1
 327 468 l 1,3,-1
 56 468 l 1,4,-1
 56 536 l 1,5,-1
 424 536 l 1,6,-1
 424 470 l 1,7,-1
 140 68 l 1,8,-1
 431 68 l 1,9,-1
 431 0 l 1,0,-1
EndSplineSet
Substitution2: "'smcp' Lowercase to Small Capitals lookup 39 subtable" z.sc
Substitution2: "'aalt' Access All Alternates lookup 0 subtable" z.sc
EndChar

StartChar: braceleft
Encoding: 123 123 94
Width: 380
Flags: W
LayerCount: 2
Fore
SplineSet
348 -158 m 1,0,1
 287 -157 287 -157 242.5 -140 c 128,-1,2
 198 -123 198 -123 174 -87.5 c 128,-1,3
 150 -52 150 -52 150 1 c 2,4,-1
 150 148 l 2,5,6
 150 182 150 182 136 202.5 c 128,-1,7
 122 223 122 223 95 232.5 c 128,-1,8
 68 242 68 242 28 242 c 1,9,-1
 28 315 l 1,10,11
 68 316 68 316 95 325 c 128,-1,12
 122 334 122 334 136 354.5 c 128,-1,13
 150 375 150 375 150 408 c 2,14,-1
 150 556 l 2,15,16
 150 609 150 609 175 644 c 128,-1,17
 200 679 200 679 245 696.5 c 128,-1,18
 290 714 290 714 348 714 c 1,19,-1
 348 642 l 1,20,21
 314 641 314 641 289 631 c 128,-1,22
 264 621 264 621 250.5 601 c 128,-1,23
 237 581 237 581 237 548 c 2,24,-1
 237 404 l 2,25,26
 237 353 237 353 210 322.5 c 128,-1,27
 183 292 183 292 128 282 c 1,28,-1
 128 276 l 1,29,30
 184 266 184 266 210.5 235.5 c 128,-1,31
 237 205 237 205 237 154 c 2,32,-1
 237 7 l 2,33,34
 237 -25 237 -25 250 -45.5 c 128,-1,35
 263 -66 263 -66 288 -75.5 c 128,-1,36
 313 -85 313 -85 348 -86 c 1,37,-1
 348 -158 l 1,0,1
EndSplineSet
Substitution2: "'smcp' Lowercase to Small Capitals lookup 39 subtable" braceleft.sc
Substitution2: "'c2sc' Capitals to Small Capitals lookup 38 subtable" braceleft.sc
Substitution2: "'aalt' Access All Alternates lookup 0 subtable" braceleft.sc
EndChar

StartChar: bar
Encoding: 124 124 95
Width: 551
Flags: W
LayerCount: 2
Fore
SplineSet
239 760 m 1,0,-1
 312 760 l 1,1,-1
 312 -241 l 1,2,-1
 239 -241 l 1,3,-1
 239 760 l 1,0,-1
EndSplineSet
EndChar

StartChar: braceright
Encoding: 125 125 96
Width: 380
Flags: W
LayerCount: 2
Fore
SplineSet
32 -86 m 1,0,1
 67 -85 67 -85 91.5 -75 c 128,-1,2
 116 -65 116 -65 129.5 -44.5 c 128,-1,3
 143 -24 143 -24 143 8 c 2,4,-1
 143 153 l 2,5,6
 143 204 143 204 170 234.5 c 128,-1,7
 197 265 197 265 252 275 c 1,8,-1
 252 281 l 1,9,10
 197 291 197 291 170 321.5 c 128,-1,11
 143 352 143 352 143 403 c 2,12,-1
 143 549 l 2,13,14
 143 582 143 582 130 602 c 128,-1,15
 117 622 117 622 92.5 632 c 128,-1,16
 68 642 68 642 32 642 c 1,17,-1
 32 714 l 1,18,19
 94 714 94 714 138 696.5 c 128,-1,20
 182 679 182 679 206 644 c 128,-1,21
 230 609 230 609 230 555 c 2,22,-1
 230 409 l 2,23,24
 230 375 230 375 244 354.5 c 128,-1,25
 258 334 258 334 285.5 324.5 c 128,-1,26
 313 315 313 315 352 315 c 1,27,-1
 352 242 l 1,28,29
 313 242 313 242 285.5 232.5 c 128,-1,30
 258 223 258 223 244 203 c 128,-1,31
 230 183 230 183 230 149 c 2,32,-1
 230 0 l 2,33,34
 230 -53 230 -53 205 -88 c 128,-1,35
 180 -123 180 -123 135.5 -140.5 c 128,-1,36
 91 -158 91 -158 32 -158 c 1,37,-1
 32 -86 l 1,0,1
EndSplineSet
Substitution2: "'smcp' Lowercase to Small Capitals lookup 39 subtable" braceright.sc
Substitution2: "'c2sc' Capitals to Small Capitals lookup 38 subtable" braceright.sc
Substitution2: "'aalt' Access All Alternates lookup 0 subtable" braceright.sc
EndChar

StartChar: asciitilde
Encoding: 126 126 97
Width: 572
Flags: W
LayerCount: 2
Fore
SplineSet
269 319 m 0,0,1
 233 335 233 335 209.5 340.5 c 128,-1,2
 186 346 186 346 164 346 c 0,3,4
 136 346 136 346 105 329 c 128,-1,5
 74 312 74 312 50 287 c 1,6,-1
 50 365 l 1,7,8
 74 391 74 391 104 404.5 c 128,-1,9
 134 418 134 418 170 418 c 0,10,11
 199 418 199 418 227.5 412 c 128,-1,12
 256 406 256 406 302 386 c 0,13,14
 338 370 338 370 361.5 364.5 c 128,-1,15
 385 359 385 359 406 359 c 0,16,17
 435 359 435 359 466 376 c 128,-1,18
 497 393 497 393 521 418 c 1,19,-1
 521 341 l 1,20,21
 497 315 497 315 467 301 c 128,-1,22
 437 287 437 287 401 287 c 0,23,24
 373 287 373 287 343.5 293.5 c 128,-1,25
 314 300 314 300 269 319 c 0,0,1
EndSplineSet
EndChar

StartChar: exclamdown
Encoding: 161 161 99
Width: 269
Flags: W
LayerCount: 2
Fore
SplineSet
104 330 m 1,0,-1
 162 330 l 1,1,-1
 187 -182 l 1,2,-1
 79 -182 l 1,3,-1
 104 330 l 1,0,-1
196 478 m 0,4,5
 196 441 196 441 178 426 c 128,-1,6
 160 411 160 411 134 411 c 0,7,8
 109 411 109 411 90.5 426 c 128,-1,9
 72 441 72 441 72 478 c 0,10,11
 72 514 72 514 90.5 530 c 128,-1,12
 109 546 109 546 134 546 c 0,13,14
 160 546 160 546 178 530 c 128,-1,15
 196 514 196 514 196 478 c 0,4,5
EndSplineSet
Substitution2: "'smcp' Lowercase to Small Capitals lookup 39 subtable" exclamdown.sc
Substitution2: "'c2sc' Capitals to Small Capitals lookup 38 subtable" exclamdown.sc
Substitution2: "'aalt' Access All Alternates lookup 0 subtable" exclamdown.sc
EndChar

StartChar: ccaron
Encoding: 269 269 100
Width: 258
GlyphClass: 2
Flags: W
AnchorPoint: "Anchor-7" 129 268 basechar 0
AnchorPoint: "Anchor-5" 133 0 basechar 0
AnchorPoint: "Anchor-4" 129 740 basechar 0
LayerCount: 2
Fore
SplineSet
284 740 m 1,0,1
 281 700 281 700 261.5 670 c 0,2,3
 242 640 242 640 208 623 c 0,4,5
 174 606 174 606 126 606 c 0,6,7
 52 606 52 606 14.5 642.5 c 0,8,9
 -23 679 -23 679 -27 740 c 1,10,-1
 27 740 l 1,11,12
 30 713 30 713 42.5 699.5 c 0,13,14
 55 686 55 686 76.5 681.5 c 0,15,16
 98 677 98 677 128 677 c 0,17,18
 154 677 154 677 175.5 682 c 0,19,20
 197 687 197 687 211.5 700.5 c 0,21,22
 226 714 226 714 229 740 c 1,23,-1
 284 740 l 1,0,1
173 0 m 1,24,-1
 85 0 l 1,25,-1
 85 536 l 1,26,-1
 173 536 l 1,27,-1
 173 0 l 1,24,-1
EndSplineSet
Substitution2: "'smcp' Lowercase to Small Capitals lookup 39 subtable" ccaron.sc
Substitution2: "'aalt' Access All Alternates lookup 0 subtable" ccaron.sc
EndChar

StartChar: dcaron
Encoding: 271 271 101
Width: 534
GlyphClass: 2
Flags: W
AnchorPoint: "Anchor-7" 305 268 basechar 0
AnchorPoint: "Anchor-5" 267 0 basechar 0
AnchorPoint: "Anchor-4" 267 536 basechar 0
LayerCount: 2
Fore
SplineSet
509 536 m 1,0,-1
 306 299 l 1,1,-1
 525 0 l 1,2,-1
 420 0 l 1,3,-1
 244 242 l 1,4,-1
 178 188 l 1,5,-1
 178 0 l 1,6,-1
 85 0 l 1,7,-1
 85 536 l 1,8,-1
 178 536 l 1,9,-1
 178 397 l 2,10,11
 178 357 178 357 176 319 c 128,-1,12
 174 281 174 281 172 261 c 1,13,-1
 174 261 l 1,14,15
 183 274 183 274 193.5 287.5 c 128,-1,16
 204 301 204 301 213 312 c 2,17,-1
 403 536 l 1,18,-1
 509 536 l 1,0,-1
EndSplineSet
Substitution2: "'smcp' Lowercase to Small Capitals lookup 39 subtable" dcaron.sc
Substitution2: "'aalt' Access All Alternates lookup 0 subtable" dcaron.sc
EndChar

StartChar: gdotaccent
Encoding: 289 289 102
Width: 470
GlyphClass: 2
Flags: W
AnchorPoint: "Anchor-7" 235 268 basechar 0
AnchorPoint: "Anchor-6" 430 536 basechar 0
AnchorPoint: "Anchor-5" 242 0 basechar 0
AnchorPoint: "Anchor-4" 235 766 basechar 0
LayerCount: 2
Fore
SplineSet
383 756 m 1,0,1
 374 742 374 742 357 722 c 128,-1,2
 340 702 340 702 319.5 680.5 c 128,-1,3
 299 659 299 659 278.5 639.5 c 128,-1,4
 258 620 258 620 240 606 c 1,5,-1
 182 606 l 1,6,-1
 182 618 l 1,7,8
 197 637 197 637 214.5 663 c 128,-1,9
 232 689 232 689 249 716.5 c 128,-1,10
 266 744 266 744 277 766 c 1,11,-1
 383 766 l 1,12,-1
 383 756 l 1,0,1
431 0 m 1,13,-1
 39 0 l 1,14,-1
 39 58 l 1,15,-1
 327 468 l 1,16,-1
 56 468 l 1,17,-1
 56 536 l 1,18,-1
 424 536 l 1,19,-1
 424 470 l 1,20,-1
 140 68 l 1,21,-1
 431 68 l 1,22,-1
 431 0 l 1,13,-1
EndSplineSet
Substitution2: "'smcp' Lowercase to Small Capitals lookup 39 subtable" gdotaccent.sc
Substitution2: "'aalt' Access All Alternates lookup 0 subtable" gdotaccent.sc
EndChar

StartChar: uni0123
Encoding: 291 291 103
Width: 470
GlyphClass: 2
Flags: W
AnchorPoint: "Anchor-7" 235 268 basechar 0
AnchorPoint: "Anchor-6" 430 536 basechar 0
AnchorPoint: "Anchor-5" 242 0 basechar 0
AnchorPoint: "Anchor-4" 235 766 basechar 0
LayerCount: 2
Fore
SplineSet
431 0 m 1,0,-1
 39 0 l 1,1,-1
 39 58 l 1,2,-1
 327 468 l 1,3,-1
 56 468 l 1,4,-1
 56 536 l 1,5,-1
 424 536 l 1,6,-1
 424 470 l 1,7,-1
 140 68 l 1,8,-1
 431 68 l 1,9,-1
 431 0 l 1,0,-1
189 606 m 1,10,11
 176 629 176 629 154 655.5 c 128,-1,12
 132 682 132 682 108 708 c 128,-1,13
 84 734 84 734 66 753 c 1,14,-1
 66 766 l 1,15,-1
 126 766 l 1,16,17
 152 749 152 749 180 725 c 128,-1,18
 208 701 208 701 233 674 c 1,19,20
 260 701 260 701 288 725 c 128,-1,21
 316 749 316 749 342 766 c 1,22,-1
 404 766 l 1,23,-1
 404 753 l 1,24,25
 385 734 385 734 360.5 708 c 128,-1,26
 336 682 336 682 313.5 655.5 c 128,-1,27
 291 629 291 629 279 606 c 1,28,-1
 189 606 l 1,10,11
EndSplineSet
Substitution2: "'smcp' Lowercase to Small Capitals lookup 39 subtable" uni0123.sc
Substitution2: "'aalt' Access All Alternates lookup 0 subtable" uni0123.sc
EndChar

StartChar: hcircumflex
Encoding: 293 293 104
Width: 479
GlyphClass: 2
Flags: W
AnchorPoint: "Anchor-7" 242 268 basechar 0
AnchorPoint: "Anchor-6" 439 536 basechar 0
AnchorPoint: "Anchor-5" 240 0 basechar 0
AnchorPoint: "Anchor-4" 240 766 basechar 0
LayerCount: 2
Fore
SplineSet
388 756 m 1,0,1
 379 742 379 742 362 722 c 128,-1,2
 345 702 345 702 324.5 680.5 c 128,-1,3
 304 659 304 659 283.5 639.5 c 128,-1,4
 263 620 263 620 245 606 c 1,5,-1
 187 606 l 1,6,-1
 187 618 l 1,7,8
 202 637 202 637 219.5 663 c 128,-1,9
 237 689 237 689 254 716.5 c 128,-1,10
 271 744 271 744 282 766 c 1,11,-1
 388 766 l 1,12,-1
 388 756 l 1,0,1
434 148 m 0,13,14
 434 96 434 96 408 61 c 128,-1,15
 382 26 382 26 334 8 c 128,-1,16
 286 -10 286 -10 220 -10 c 0,17,18
 164 -10 164 -10 123.5 -1 c 128,-1,19
 83 8 83 8 52 24 c 1,20,-1
 52 104 l 1,21,22
 84 88 84 88 129.5 74.5 c 128,-1,23
 175 61 175 61 222 61 c 0,24,25
 289 61 289 61 319 82.5 c 128,-1,26
 349 104 349 104 349 140 c 0,27,28
 349 160 349 160 338 176 c 128,-1,29
 327 192 327 192 298.5 208 c 128,-1,30
 270 224 270 224 217 244 c 0,31,32
 165 264 165 264 128 284 c 128,-1,33
 91 304 91 304 71 332 c 128,-1,34
 51 360 51 360 51 404 c 0,35,36
 51 472 51 472 106.5 509 c 128,-1,37
 162 546 162 546 252 546 c 0,38,39
 301 546 301 546 343.5 536.5 c 128,-1,40
 386 527 386 527 423 510 c 1,41,-1
 393 440 l 1,42,43
 359 454 359 454 322 464 c 128,-1,44
 285 474 285 474 246 474 c 0,45,46
 192 474 192 474 163.5 456.5 c 128,-1,47
 135 439 135 439 135 409 c 0,48,49
 135 387 135 387 148 371.5 c 128,-1,50
 161 356 161 356 191.5 341.5 c 128,-1,51
 222 327 222 327 273 307 c 0,52,53
 324 288 324 288 360 268 c 128,-1,54
 396 248 396 248 415 219.5 c 128,-1,55
 434 191 434 191 434 148 c 0,13,14
EndSplineSet
Substitution2: "'smcp' Lowercase to Small Capitals lookup 39 subtable" hcircumflex.sc
Substitution2: "'aalt' Access All Alternates lookup 0 subtable" hcircumflex.sc
EndChar

StartChar: hbar
Encoding: 295 295 105
Width: 618
GlyphClass: 2
Flags: W
AnchorPoint: "Anchor-7" 306 263 basechar 0
AnchorPoint: "Anchor-6" 562 536 basechar 0
AnchorPoint: "Anchor-5" 294 -220 basechar 0
AnchorPoint: "Anchor-4" 309 536 basechar 0
LayerCount: 2
Fore
SplineSet
533 536 m 1,0,-1
 533 0 l 1,1,-1
 461 0 l 1,2,-1
 448 71 l 1,3,-1
 444 71 l 1,4,5
 427 43 427 43 400 25 c 128,-1,6
 373 7 373 7 341 -1.5 c 128,-1,7
 309 -10 309 -10 274 -10 c 0,8,9
 210 -10 210 -10 166.5 10.5 c 128,-1,10
 123 31 123 31 101 74 c 128,-1,11
 79 117 79 117 79 185 c 2,12,-1
 79 536 l 1,13,-1
 168 536 l 1,14,-1
 168 191 l 2,15,16
 168 127 168 127 197 95 c 128,-1,17
 226 63 226 63 287 63 c 0,18,19
 347 63 347 63 381.5 85.5 c 128,-1,20
 416 108 416 108 430.5 151.5 c 128,-1,21
 445 195 445 195 445 257 c 2,22,-1
 445 536 l 1,23,-1
 533 536 l 1,0,-1
448 -116 m 0,24,25
 448 -138 448 -138 460 -149.5 c 128,-1,26
 472 -161 472 -161 493 -161 c 0,27,28
 510 -161 510 -161 521.5 -158.5 c 128,-1,29
 533 -156 533 -156 541 -155 c 1,30,-1
 541 -211 l 1,31,32
 527 -215 527 -215 513 -217.5 c 128,-1,33
 499 -220 499 -220 479 -220 c 0,34,35
 426 -220 426 -220 401 -195 c 128,-1,36
 376 -170 376 -170 376 -126 c 0,37,38
 376 -97 376 -97 390.5 -70 c 128,-1,39
 405 -43 405 -43 426.5 -21 c 128,-1,40
 448 1 448 1 468 15 c 1,41,-1
 516 0 l 1,42,43
 482 -32 482 -32 465 -58.5 c 128,-1,44
 448 -85 448 -85 448 -116 c 0,24,25
EndSplineSet
Substitution2: "'smcp' Lowercase to Small Capitals lookup 39 subtable" hbar.sc
Substitution2: "'aalt' Access All Alternates lookup 0 subtable" hbar.sc
EndChar

StartChar: ibreve
Encoding: 301 301 106
Width: 587
GlyphClass: 2
Flags: W
AnchorPoint: "Anchor-7" 312 153 basechar 0
AnchorPoint: "Anchor-5" 294 -240 basechar 0
AnchorPoint: "Anchor-4" 294 536 basechar 0
LayerCount: 2
Fore
SplineSet
331 546 m 0,0,1
 391 546 391 546 438 521 c 128,-1,2
 485 496 485 496 512 446.5 c 128,-1,3
 539 397 539 397 539 323 c 0,4,5
 539 252 539 252 512 193 c 128,-1,6
 485 134 485 134 436 90.5 c 128,-1,7
 387 47 387 47 320 21 c 128,-1,8
 253 -5 253 -5 173 -10 c 1,9,-1
 173 -240 l 1,10,-1
 85 -240 l 1,11,-1
 85 536 l 1,12,-1
 157 536 l 1,13,-1
 169 463 l 1,14,-1
 173 463 l 1,15,16
 188 486 188 486 209 505 c 128,-1,17
 230 524 230 524 260 535 c 128,-1,18
 290 546 290 546 331 546 c 0,0,1
313 472 m 0,19,20
 263 472 263 472 232 451.5 c 128,-1,21
 201 431 201 431 187 390 c 128,-1,22
 173 349 173 349 173 286 c 2,23,-1
 173 62 l 1,24,25
 238 70 238 70 288.5 91.5 c 128,-1,26
 339 113 339 113 375 146.5 c 128,-1,27
 411 180 411 180 429.5 224 c 128,-1,28
 448 268 448 268 448 321 c 0,29,30
 448 367 448 367 432 400.5 c 128,-1,31
 416 434 416 434 386 453 c 128,-1,32
 356 472 356 472 313 472 c 0,19,20
EndSplineSet
Substitution2: "'smcp' Lowercase to Small Capitals lookup 39 subtable" ibreve.sc
Substitution2: "'aalt' Access All Alternates lookup 0 subtable" ibreve.sc
EndChar

StartChar: iogonek
Encoding: 303 303 107
Width: 258
GlyphClass: 2
Flags: W
AnchorPoint: "Anchor-7" 129 268 basechar 0
AnchorPoint: "Anchor-5" 133 0 basechar 0
AnchorPoint: "Anchor-4" 129 766 basechar 0
LayerCount: 2
Fore
SplineSet
83 606 m 1,0,1
 70 629 70 629 48 655.5 c 0,2,3
 26 682 26 682 2 708 c 0,4,5
 -22 734 -22 734 -40 753 c 1,6,-1
 -40 766 l 1,7,-1
 20 766 l 1,8,9
 46 749 46 749 74 725 c 0,10,11
 102 701 102 701 127 674 c 1,12,13
 154 701 154 701 182 725 c 0,14,15
 210 749 210 749 236 766 c 1,16,-1
 298 766 l 1,17,-1
 298 753 l 1,18,19
 279 734 279 734 254.5 708 c 0,20,21
 230 682 230 682 207.5 655.5 c 0,22,23
 185 629 185 629 173 606 c 1,24,-1
 83 606 l 1,0,1
173 0 m 1,25,-1
 85 0 l 1,26,-1
 85 536 l 1,27,-1
 173 536 l 1,28,-1
 173 0 l 1,25,-1
EndSplineSet
Substitution2: "'smcp' Lowercase to Small Capitals lookup 39 subtable" iogonek.sc
Ligature2: "'ccmp' Glyph Composition/Decomposition lookup 5 subtable" i uni0328
Substitution2: "Single Substitution lookup 4 subtable" iogonekdotless
AlternateSubs2: "'aalt' Access All Alternates lookup 1 subtable" iogonek.sc iogonekdotless
EndChar

StartChar: ncaron
Encoding: 328 328 108
Width: 574
GlyphClass: 2
Flags: W
AnchorPoint: "Anchor-7" 278 268 basechar 0
AnchorPoint: "Anchor-6" 519 536 basechar 0
AnchorPoint: "Anchor-5" 287 0 basechar 0
AnchorPoint: "Anchor-4" 287 536 basechar 0
LayerCount: 2
Fore
SplineSet
323 546 m 0,0,1
 377 546 377 546 420 537 c 128,-1,2
 463 528 463 528 494 510 c 1,3,-1
 462 434 l 1,4,5
 431 450 431 450 395.5 459.5 c 128,-1,6
 360 469 360 469 328 469 c 0,7,8
 267 469 267 469 226.5 446 c 128,-1,9
 186 423 186 423 166 378 c 128,-1,10
 146 333 146 333 146 266 c 0,11,12
 146 202 146 202 163 157 c 128,-1,13
 180 112 180 112 214 89 c 128,-1,14
 248 66 248 66 299 66 c 0,15,16
 335 66 335 66 360.5 69.5 c 128,-1,17
 386 73 386 73 414 80 c 1,18,-1
 414 227 l 1,19,-1
 299 227 l 1,20,-1
 299 298 l 1,21,-1
 502 298 l 1,22,-1
 502 28 l 1,23,24
 453 10 453 10 406 0 c 128,-1,25
 359 -10 359 -10 300 -10 c 0,26,27
 229 -10 229 -10 173.5 19 c 128,-1,28
 118 48 118 48 86.5 109 c 128,-1,29
 55 170 55 170 55 265 c 0,30,31
 55 364 55 364 91 426 c 128,-1,32
 127 488 127 488 187.5 517 c 128,-1,33
 248 546 248 546 323 546 c 0,0,1
EndSplineSet
Substitution2: "'smcp' Lowercase to Small Capitals lookup 39 subtable" ncaron.sc
Substitution2: "'aalt' Access All Alternates lookup 0 subtable" ncaron.sc
EndChar

StartChar: eng
Encoding: 331 331 109
Width: 320
GlyphClass: 2
Flags: W
AnchorPoint: "Anchor-7" 160 268 basechar 0
AnchorPoint: "Anchor-5" 160 0 basechar 0
AnchorPoint: "Anchor-4" 160 536 basechar 0
LayerCount: 2
Fore
SplineSet
284 536 m 1,0,-1
 284 484 l 1,1,-1
 204 466 l 1,2,-1
 204 69 l 1,3,-1
 284 52 l 1,4,-1
 284 0 l 1,5,-1
 36 0 l 1,6,-1
 36 52 l 1,7,-1
 116 69 l 1,8,-1
 116 466 l 1,9,-1
 36 484 l 1,10,-1
 36 536 l 1,11,-1
 284 536 l 1,0,-1
EndSplineSet
Substitution2: "'smcp' Lowercase to Small Capitals lookup 39 subtable" eng.sc
Substitution2: "'aalt' Access All Alternates lookup 0 subtable" eng.sc
EndChar

StartChar: obreve
Encoding: 335 335 110
Width: 782
GlyphClass: 2
Flags: W
AnchorPoint: "Anchor-7" 391 268 basechar 0
AnchorPoint: "Anchor-5" 391 0 basechar 0
AnchorPoint: "Anchor-4" 391 536 basechar 0
LayerCount: 2
Fore
SplineSet
393 546 m 0,0,1
 500 546 500 546 574.5 507 c 128,-1,2
 649 468 649 468 687.5 396.5 c 128,-1,3
 726 325 726 325 726 227 c 0,4,5
 726 174 726 174 713.5 130.5 c 128,-1,6
 701 87 701 87 677 55.5 c 128,-1,7
 653 24 653 24 617.5 7 c 128,-1,8
 582 -10 582 -10 535 -10 c 0,9,10
 498 -10 498 -10 470 0 c 128,-1,11
 442 10 442 10 423 30.5 c 128,-1,12
 404 51 404 51 393 80 c 1,13,-1
 388 80 l 1,14,15
 378 51 378 51 359 30.5 c 128,-1,16
 340 10 340 10 312 0 c 128,-1,17
 284 -10 284 -10 247 -10 c 0,18,19
 185 -10 185 -10 142.5 19.5 c 128,-1,20
 100 49 100 49 78 102.5 c 128,-1,21
 56 156 56 156 56 227 c 0,22,23
 56 324 56 324 93.5 395.5 c 128,-1,24
 131 467 131 467 206 506.5 c 128,-1,25
 281 546 281 546 393 546 c 0,0,1
393 473 m 256,26,27
 312 473 312 473 256.5 443.5 c 128,-1,28
 201 414 201 414 172.5 359.5 c 128,-1,29
 144 305 144 305 144 229 c 0,30,31
 144 147 144 147 174 105 c 128,-1,32
 204 63 204 63 253 63 c 0,33,34
 303 63 303 63 326 100 c 128,-1,35
 349 137 349 137 349 193 c 2,36,-1
 349 324 l 1,37,-1
 433 324 l 1,38,-1
 433 193 l 2,39,40
 433 152 433 152 444.5 122.5 c 128,-1,41
 456 93 456 93 477 78 c 128,-1,42
 498 63 498 63 528 63 c 0,43,44
 578 63 578 63 608 105 c 128,-1,45
 638 147 638 147 638 229 c 0,46,47
 638 305 638 305 610.5 359.5 c 128,-1,48
 583 414 583 414 528.5 443.5 c 128,-1,49
 474 473 474 473 393 473 c 256,26,27
EndSplineSet
Substitution2: "'smcp' Lowercase to Small Capitals lookup 39 subtable" obreve.sc
Substitution2: "'aalt' Access All Alternates lookup 0 subtable" obreve.sc
EndChar

StartChar: ohungarumlaut
Encoding: 337 337 111
Width: 605
GlyphClass: 2
Flags: W
AnchorPoint: "Anchor-7" 289 268 basechar 0
AnchorPoint: "Anchor-5" 288 0 basechar 0
AnchorPoint: "Anchor-4" 288 536 basechar 0
LayerCount: 2
Fore
SplineSet
385 546 m 0,0,1
 432 546 432 546 465.5 530 c 128,-1,2
 499 514 499 514 517.5 467.5 c 128,-1,3
 536 421 536 421 536 330 c 0,4,5
 536 255 536 255 516 192.5 c 128,-1,6
 496 130 496 130 460 85 c 128,-1,7
 424 40 424 40 374 15 c 128,-1,8
 324 -10 324 -10 264 -10 c 0,9,10
 218 -10 218 -10 184 5 c 128,-1,11
 150 20 150 20 127.5 50 c 128,-1,12
 105 80 105 80 93.5 125.5 c 128,-1,13
 82 171 82 171 82 232 c 2,14,-1
 82 536 l 1,15,-1
 170 536 l 1,16,-1
 170 235 l 2,17,18
 170 145 170 145 193.5 104 c 128,-1,19
 217 63 217 63 267 63 c 0,20,21
 305 63 305 63 338 83 c 128,-1,22
 371 103 371 103 395.5 139.5 c 128,-1,23
 420 176 420 176 434 224 c 128,-1,24
 448 272 448 272 448 327 c 0,25,26
 448 374 448 374 444 402 c 128,-1,27
 440 430 440 430 432 445 c 128,-1,28
 424 460 424 460 411 465 c 128,-1,29
 398 470 398 470 379 470 c 0,30,31
 366 470 366 470 351 468 c 128,-1,32
 336 466 336 466 322 461 c 1,33,-1
 322 536 l 1,34,35
 336 541 336 541 354.5 543.5 c 128,-1,36
 373 546 373 546 385 546 c 0,0,1
EndSplineSet
Substitution2: "'smcp' Lowercase to Small Capitals lookup 39 subtable" ohungarumlaut.sc
Substitution2: "'aalt' Access All Alternates lookup 0 subtable" ohungarumlaut.sc
EndChar

StartChar: racute
Encoding: 341 341 112
Width: 576
GlyphClass: 2
Flags: W
AnchorPoint: "Anchor-7" 309 268 basechar 0
AnchorPoint: "Anchor-5" 288 0 basechar 0
AnchorPoint: "Anchor-4" 288 536 basechar 0
LayerCount: 2
Fore
SplineSet
85 0 m 1,0,-1
 85 536 l 1,1,-1
 315 536 l 2,2,3
 372 536 372 536 417.5 523.5 c 128,-1,4
 463 511 463 511 489.5 481.5 c 128,-1,5
 516 452 516 452 516 401 c 0,6,7
 516 368 516 368 502.5 344.5 c 128,-1,8
 489 321 489 321 465 306.5 c 128,-1,9
 441 292 441 292 409 285 c 1,10,-1
 409 281 l 1,11,12
 442 277 442 277 470.5 263 c 128,-1,13
 499 249 499 249 516 223 c 128,-1,14
 533 197 533 197 533 157 c 0,15,16
 533 89 533 89 482.5 44.5 c 128,-1,17
 432 0 432 0 316 0 c 2,18,-1
 85 0 l 1,0,-1
306 71 m 2,19,20
 372 71 372 71 407 90.5 c 128,-1,21
 442 110 442 110 442 157 c 0,22,23
 442 203 442 203 407 223 c 128,-1,24
 372 243 372 243 304 243 c 2,25,-1
 173 243 l 1,26,-1
 173 71 l 1,27,-1
 306 71 l 2,19,20
294 316 m 2,28,29
 359 316 359 316 393 334 c 128,-1,30
 427 352 427 352 427 390 c 256,31,32
 427 428 427 428 399.5 445.5 c 128,-1,33
 372 463 372 463 310 463 c 2,34,-1
 173 463 l 1,35,-1
 173 316 l 1,36,-1
 294 316 l 2,28,29
EndSplineSet
Substitution2: "'smcp' Lowercase to Small Capitals lookup 39 subtable" racute.sc
Substitution2: "'aalt' Access All Alternates lookup 0 subtable" racute.sc
EndChar

StartChar: uni0157
Encoding: 343 343 113
Width: 435
GlyphClass: 2
Flags: W
AnchorPoint: "Anchor-7" 251 268 basechar 0
AnchorPoint: "Anchor-5" 218 0 basechar 0
AnchorPoint: "Anchor-4" 218 536 basechar 0
LayerCount: 2
Fore
SplineSet
85 0 m 1,0,-1
 85 536 l 1,1,-1
 173 536 l 1,2,-1
 173 73 l 1,3,-1
 417 73 l 1,4,-1
 417 0 l 1,5,-1
 85 0 l 1,0,-1
EndSplineSet
Substitution2: "'smcp' Lowercase to Small Capitals lookup 39 subtable" uni0157.sc
Substitution2: "'aalt' Access All Alternates lookup 0 subtable" uni0157.sc
EndChar

StartChar: rcaron
Encoding: 345 345 114
Width: 582
GlyphClass: 2
Flags: W
AnchorPoint: "Anchor-7" 365 357 basechar 0
AnchorPoint: "Anchor-6" 710 714 basechar 0
AnchorPoint: "Anchor-5" 342 0 basechar 0
AnchorPoint: "Anchor-4" 361 915 basechar 0
LayerCount: 2
Fore
SplineSet
535 293 m 0,0,1
 535 196 535 196 499.5 131 c 128,-1,2
 464 66 464 66 396.5 33 c 128,-1,3
 329 0 329 0 233 0 c 2,4,-1
 74 0 l 1,5,-1
 74 572 l 1,6,-1
 248 572 l 2,7,8
 388 572 388 572 461.5 500.5 c 128,-1,9
 535 429 535 429 535 293 c 0,0,1
444 290 m 0,10,11
 444 394 444 394 393 446.5 c 128,-1,12
 342 499 342 499 244 499 c 2,13,-1
 161 499 l 1,14,-1
 161 73 l 1,15,-1
 233 73 l 2,16,17
 340 73 340 73 392 127 c 128,-1,18
 444 181 444 181 444 290 c 0,10,11
362 915 m 0,19,20
 382 915 382 915 397.5 901.5 c 128,-1,21
 413 888 413 888 413 859 c 0,22,23
 413 831 413 831 397.5 817 c 128,-1,24
 382 803 382 803 362 803 c 0,25,26
 340 803 340 803 325 817 c 128,-1,27
 310 831 310 831 310 859 c 0,28,29
 310 888 310 888 325 901.5 c 128,-1,30
 340 915 340 915 362 915 c 0,19,20
EndSplineSet
Substitution2: "'smcp' Lowercase to Small Capitals lookup 39 subtable" rcaron.sc
Substitution2: "'aalt' Access All Alternates lookup 0 subtable" rcaron.sc
EndChar

StartChar: tcaron
Encoding: 357 357 115
Width: 529
GlyphClass: 2
Flags: W
AnchorPoint: "Anchor-7" 264 268 basechar 0
AnchorPoint: "Anchor-6" 509 536 basechar 0
AnchorPoint: "Anchor-5" 265 0 basechar 0
AnchorPoint: "Anchor-4" 263 737 basechar 0
LayerCount: 2
Fore
SplineSet
212 274 m 1,0,-1
 27 536 l 1,1,-1
 127 536 l 1,2,-1
 265 334 l 1,3,-1
 402 536 l 1,4,-1
 501 536 l 1,5,-1
 316 274 l 1,6,-1
 511 0 l 1,7,-1
 411 0 l 1,8,-1
 265 214 l 1,9,-1
 117 0 l 1,10,-1
 18 0 l 1,11,-1
 212 274 l 1,0,-1
264 737 m 0,12,13
 284 737 284 737 299.5 723.5 c 128,-1,14
 315 710 315 710 315 681 c 0,15,16
 315 653 315 653 299.5 639 c 128,-1,17
 284 625 284 625 264 625 c 0,18,19
 242 625 242 625 227 639 c 128,-1,20
 212 653 212 653 212 681 c 0,21,22
 212 710 212 710 227 723.5 c 128,-1,23
 242 737 242 737 264 737 c 0,12,13
EndSplineSet
Substitution2: "'smcp' Lowercase to Small Capitals lookup 39 subtable" tcaron.sc
Substitution2: "'aalt' Access All Alternates lookup 0 subtable" tcaron.sc
EndChar

StartChar: utilde
Encoding: 361 361 116
Width: 712
GlyphClass: 2
Flags: W
AnchorPoint: "Anchor-7" 356 268 basechar 0
AnchorPoint: "Anchor-5" 356 0 basechar 0
AnchorPoint: "Anchor-4" 356 536 basechar 0
LayerCount: 2
Fore
SplineSet
143 0 m 1,0,-1
 10 536 l 1,1,-1
 92 536 l 1,2,-1
 159 250 l 2,3,4
 164 228 164 228 169 206 c 128,-1,5
 174 184 174 184 178.5 162.5 c 128,-1,6
 183 141 183 141 186.5 122.5 c 128,-1,7
 190 104 190 104 191 90 c 1,8,-1
 195 90 l 1,9,10
 197 102 197 102 200.5 120 c 128,-1,11
 204 138 204 138 208.5 158 c 128,-1,12
 213 178 213 178 218 198 c 128,-1,13
 223 218 223 218 227 234 c 2,14,-1
 313 536 l 1,15,-1
 400 536 l 1,16,-1
 484 234 l 2,17,18
 489 217 489 217 493.5 198 c 128,-1,19
 498 179 498 179 503 159.5 c 128,-1,20
 508 140 508 140 511.5 122.5 c 128,-1,21
 515 105 515 105 516 91 c 1,22,-1
 520 91 l 1,23,24
 522 103 522 103 525 121 c 128,-1,25
 528 139 528 139 532.5 160 c 128,-1,26
 537 181 537 181 542 204 c 128,-1,27
 547 227 547 227 553 250 c 2,28,-1
 621 536 l 1,29,-1
 702 536 l 1,30,-1
 567 0 l 1,31,-1
 474 0 l 1,32,-1
 390 302 l 2,33,34
 384 323 384 323 379 344.5 c 128,-1,35
 374 366 374 366 369 386 c 128,-1,36
 364 406 364 406 361 421.5 c 128,-1,37
 358 437 358 437 357 444 c 1,38,-1
 353 444 l 1,39,40
 352 437 352 437 349 421.5 c 128,-1,41
 346 406 346 406 342 386 c 128,-1,42
 338 366 338 366 332.5 344 c 128,-1,43
 327 322 327 322 321 301 c 2,44,-1
 234 0 l 1,45,-1
 143 0 l 1,0,-1
EndSplineSet
Substitution2: "'smcp' Lowercase to Small Capitals lookup 39 subtable" utilde.sc
Substitution2: "'aalt' Access All Alternates lookup 0 subtable" utilde.sc
EndChar

StartChar: zacute
Encoding: 378 378 117
Width: 631
GlyphClass: 2
Flags: W
LayerCount: 2
Fore
SplineSet
522 617 m 0,0,1
 522 583 522 583 508 557.5 c 128,-1,2
 494 532 494 532 473 512.5 c 128,-1,3
 452 493 452 493 431 477 c 128,-1,4
 410 461 410 461 396 445.5 c 128,-1,5
 382 430 382 430 382 412 c 0,6,7
 382 399 382 399 388.5 388 c 128,-1,8
 395 377 395 377 414 362.5 c 128,-1,9
 433 348 433 348 470 323 c 0,10,11
 506 299 506 299 532 275 c 128,-1,12
 558 251 558 251 572 222 c 128,-1,13
 586 193 586 193 586 153 c 0,14,15
 586 96 586 96 562.5 60 c 128,-1,16
 539 24 539 24 497 7 c 128,-1,17
 455 -10 455 -10 400 -10 c 0,18,19
 353 -10 353 -10 317 -1 c 128,-1,20
 281 8 281 8 255 24 c 1,21,-1
 255 103 l 1,22,23
 272 93 272 93 295 83 c 128,-1,24
 318 73 318 73 344.5 67 c 128,-1,25
 371 61 371 61 397 61 c 0,26,27
 452 61 452 61 476 84 c 128,-1,28
 500 107 500 107 500 147 c 0,29,30
 500 171 500 171 491.5 189.5 c 128,-1,31
 483 208 483 208 462.5 226 c 128,-1,32
 442 244 442 244 406 267 c 0,33,34
 364 294 364 294 340.5 315.5 c 128,-1,35
 317 337 317 337 307 359 c 128,-1,36
 297 381 297 381 297 407 c 0,37,38
 297 438 297 438 310.5 460 c 128,-1,39
 324 482 324 482 344.5 498.5 c 128,-1,40
 365 515 365 515 385.5 531 c 128,-1,41
 406 547 406 547 419.5 566 c 128,-1,42
 433 585 433 585 433 612 c 0,43,44
 433 654 433 654 397.5 673 c 128,-1,45
 362 692 362 692 306 692 c 0,46,47
 271 692 271 692 240.5 682.5 c 128,-1,48
 210 673 210 673 191.5 650 c 128,-1,49
 173 627 173 627 173 584 c 2,50,-1
 173 0 l 1,51,-1
 85 0 l 1,52,-1
 85 584 l 2,53,54
 85 651 85 651 114 690.5 c 128,-1,55
 143 730 143 730 193 747.5 c 128,-1,56
 243 765 243 765 306 765 c 0,57,58
 371 765 371 765 419.5 748.5 c 128,-1,59
 468 732 468 732 495 699.5 c 128,-1,60
 522 667 522 667 522 617 c 0,0,1
EndSplineSet
Substitution2: "'smcp' Lowercase to Small Capitals lookup 39 subtable" zacute.sc
Substitution2: "'aalt' Access All Alternates lookup 0 subtable" zacute.sc
EndChar

StartChar: zdotaccent
Encoding: 380 380 118
Width: 519
GlyphClass: 2
Flags: W
LayerCount: 2
Fore
SplineSet
187 0 m 1,0,-1
 97 0 l 1,1,-1
 97 714 l 1,2,-1
 496 714 l 1,3,-1
 496 635 l 1,4,-1
 187 635 l 1,5,-1
 187 382 l 1,6,-1
 477 382 l 1,7,-1
 477 303 l 1,8,-1
 187 303 l 1,9,-1
 187 0 l 1,0,-1
EndSplineSet
Substitution2: "'smcp' Lowercase to Small Capitals lookup 39 subtable" zdotaccent.sc
Substitution2: "'aalt' Access All Alternates lookup 0 subtable" zdotaccent.sc
EndChar

StartChar: zcaron
Encoding: 382 382 119
Width: 572
GlyphClass: 2
Flags: W
LayerCount: 2
Fore
SplineSet
334 723 m 0,0,1
 389 723 389 723 433 711 c 128,-1,2
 477 699 477 699 511 682 c 1,3,-1
 480 612 l 1,4,5
 450 626 450 626 413.5 638 c 128,-1,6
 377 650 377 650 336 650 c 0,7,8
 279 650 279 650 249 620.5 c 128,-1,9
 219 591 219 591 219 525 c 2,10,-1
 219 386 l 1,11,-1
 423 386 l 1,12,-1
 423 320 l 1,13,-1
 219 320 l 1,14,-1
 219 216 l 2,15,16
 219 176 219 176 209.5 149.5 c 128,-1,17
 200 123 200 123 184.5 107 c 128,-1,18
 169 91 169 91 151 80 c 1,19,-1
 535 80 l 1,20,-1
 535 0 l 1,21,-1
 32 0 l 1,22,-1
 32 74 l 1,23,24
 61 81 61 81 83 97.5 c 128,-1,25
 105 114 105 114 118 142.5 c 128,-1,26
 131 171 131 171 131 215 c 2,27,-1
 131 320 l 1,28,-1
 35 320 l 1,29,-1
 35 386 l 1,30,-1
 131 386 l 1,31,-1
 131 534 l 2,32,33
 131 594 131 594 156 636 c 128,-1,34
 181 678 181 678 227 700.5 c 128,-1,35
 273 723 273 723 334 723 c 0,0,1
EndSplineSet
Substitution2: "'smcp' Lowercase to Small Capitals lookup 39 subtable" zcaron.sc
Substitution2: "'aalt' Access All Alternates lookup 0 subtable" zcaron.sc
EndChar

StartChar: tonos
Encoding: 900 900 120
Width: 234
Flags: W
LayerCount: 2
Fore
SplineSet
40 606 m 1,0,-1
 40 618 l 1,1,-1
 88 776 l 1,2,-1
 194 776 l 1,3,-1
 194 766 l 1,4,-1
 99 606 l 1,5,-1
 40 606 l 1,0,-1
EndSplineSet
Substitution2: "'case' Case-Sensitive Forms lookup 40 subtable" tonos.case
Substitution2: "'smcp' Lowercase to Small Capitals lookup 39 subtable" tonos.sc
Substitution2: "'c2sc' Capitals to Small Capitals lookup 38 subtable" tonos.sc
AlternateSubs2: "'aalt' Access All Alternates lookup 1 subtable" tonos.case tonos.sc
EndChar

StartChar: dieresistonos
Encoding: 901 901 121
Width: 648
Flags: W
LayerCount: 2
Fore
SplineSet
262 606 m 1,0,-1
 262 618 l 1,1,-1
 300 776 l 1,2,-1
 406 776 l 1,3,-1
 406 766 l 1,4,-1
 321 606 l 1,5,-1
 262 606 l 1,0,-1
196 631 m 256,6,7
 177 631 177 631 163 643.5 c 128,-1,8
 149 656 149 656 149 681 c 0,9,10
 149 707 149 707 163 718.5 c 128,-1,11
 177 730 177 730 196 730 c 256,12,13
 215 730 215 730 229 718.5 c 128,-1,14
 243 707 243 707 243 681 c 0,15,16
 243 656 243 656 229 643.5 c 128,-1,17
 215 631 215 631 196 631 c 256,6,7
451 631 m 256,18,19
 432 631 432 631 418.5 643.5 c 128,-1,20
 405 656 405 656 405 681 c 0,21,22
 405 707 405 707 418.5 718.5 c 128,-1,23
 432 730 432 730 451 730 c 256,24,25
 470 730 470 730 484 718.5 c 128,-1,26
 498 707 498 707 498 681 c 0,27,28
 498 656 498 656 484 643.5 c 128,-1,29
 470 631 470 631 451 631 c 256,18,19
EndSplineSet
Substitution2: "'smcp' Lowercase to Small Capitals lookup 39 subtable" dieresistonos.sc
Substitution2: "'c2sc' Capitals to Small Capitals lookup 38 subtable" dieresistonos.sc
Substitution2: "'aalt' Access All Alternates lookup 0 subtable" dieresistonos.sc
EndChar

StartChar: Alphatonos
Encoding: 902 902 122
Width: 708
GlyphClass: 2
Flags: W
AnchorPoint: "Anchor-7" 388 358 basechar 0
AnchorPoint: "Anchor-6" 588 714 basechar 0
AnchorPoint: "Anchor-5" 393 0 basechar 0
LayerCount: 2
Fore
SplineSet
614 0 m 1,0,-1
 528 221 l 1,1,-1
 245 221 l 1,2,-1
 160 0 l 1,3,-1
 69 0 l 1,4,-1
 348 717 l 1,5,-1
 429 717 l 1,6,-1
 707 0 l 1,7,-1
 614 0 l 1,0,-1
421 517 m 2,8,9
 418 525 418 525 411 546 c 0,10,11
 404 567 404 567 397.5 589.5 c 0,12,13
 391 612 391 612 387 624 c 1,14,15
 382 604 382 604 376.5 583.5 c 0,16,17
 371 563 371 563 365.5 546 c 0,18,19
 360 529 360 529 356 517 c 2,20,-1
 275 301 l 1,21,-1
 501 301 l 1,22,-1
 421 517 l 2,8,9
EndSplineSet
Refer: 120 900 N 1 0 0 1 -30 -62 2
Substitution2: "'c2sc' Capitals to Small Capitals lookup 38 subtable" alphatonos.sc
Substitution2: "'aalt' Access All Alternates lookup 0 subtable" alphatonos.sc
EndChar

StartChar: Omegatonos
Encoding: 911 911 129
Width: 841
GlyphClass: 2
Flags: W
AnchorPoint: "Anchor-7" 482 362 basechar 0
AnchorPoint: "Anchor-5" 482 0 basechar 0
AnchorPoint: "Anchor-4" 482 714 basechar 0
LayerCount: 2
Fore
SplineSet
149 0 m 1,0,-1
 149 79 l 1,1,-1
 307 79 l 1,2,3
 270 107 270 107 235 149.5 c 0,4,5
 200 192 200 192 177.5 251 c 0,6,7
 155 310 155 310 155 384 c 0,8,9
 155 482 155 482 193 559 c 0,10,11
 231 636 231 636 304 680.5 c 0,12,13
 377 725 377 725 482 725 c 0,14,15
 588 725 588 725 661 681 c 0,16,17
 734 637 734 637 772 560 c 0,18,19
 810 483 810 483 810 385 c 0,20,21
 810 310 810 310 788 251 c 0,22,23
 766 192 766 192 731.5 149.5 c 0,24,25
 697 107 697 107 659 79 c 1,26,-1
 816 79 l 1,27,-1
 816 0 l 1,28,-1
 548 0 l 1,29,-1
 548 72 l 1,30,31
 610 116 610 116 647 162 c 0,32,33
 684 208 684 208 700 261.5 c 0,34,35
 716 315 716 315 716 381 c 0,36,37
 716 457 716 457 691 517 c 0,38,39
 666 577 666 577 614.5 611.5 c 0,40,41
 563 646 563 646 482 646 c 0,42,43
 402 646 402 646 350.5 611.5 c 0,44,45
 299 577 299 577 274.5 517 c 0,46,47
 250 457 250 457 250 381 c 0,48,49
 250 315 250 315 266 261.5 c 0,50,51
 282 208 282 208 318.5 162.5 c 0,52,53
 355 117 355 117 417 72 c 1,54,-1
 417 0 l 1,55,-1
 149 0 l 1,0,-1
EndSplineSet
Refer: 120 900 N 1 0 0 1 -30 -62 2
Substitution2: "'c2sc' Capitals to Small Capitals lookup 38 subtable" omegatonos.sc
Substitution2: "'aalt' Access All Alternates lookup 0 subtable" omegatonos.sc
EndChar

StartChar: Alpha
Encoding: 913 913 131
Width: 561
GlyphClass: 2
Flags: W
AnchorPoint: "Anchor-7" 319 358 basechar 0
AnchorPoint: "Anchor-6" 519 714 basechar 0
AnchorPoint: "Anchor-5" 324 0 basechar 0
LayerCount: 2
Fore
SplineSet
545 0 m 1,0,-1
 459 221 l 1,1,-1
 176 221 l 1,2,-1
 91 0 l 1,3,-1
 0 0 l 1,4,-1
 279 717 l 1,5,-1
 360 717 l 1,6,-1
 638 0 l 1,7,-1
 545 0 l 1,0,-1
352 517 m 2,8,9
 349 525 349 525 342 546 c 0,10,11
 335 567 335 567 328.5 589.5 c 0,12,13
 322 612 322 612 318 624 c 1,14,15
 313 604 313 604 307.5 583.5 c 0,16,17
 302 563 302 563 296.5 546 c 0,18,19
 291 529 291 529 287 517 c 2,20,-1
 206 301 l 1,21,-1
 432 301 l 1,22,-1
 352 517 l 2,8,9
EndSplineSet
Substitution2: "'c2sc' Capitals to Small Capitals lookup 38 subtable" alpha.sc
Substitution2: "'aalt' Access All Alternates lookup 0 subtable" alpha.sc
EndChar

StartChar: Gamma
Encoding: 915 915 133
Width: 499
GlyphClass: 2
Flags: W
AnchorPoint: "Anchor-7" 286 357 basechar 0
LayerCount: 2
Fore
SplineSet
97 0 m 1,0,-1
 97 714 l 1,1,-1
 476 714 l 1,2,-1
 476 635 l 1,3,-1
 187 635 l 1,4,-1
 187 0 l 1,5,-1
 97 0 l 1,0,-1
EndSplineSet
Substitution2: "'c2sc' Capitals to Small Capitals lookup 38 subtable" gamma.sc
Substitution2: "'aalt' Access All Alternates lookup 0 subtable" gamma.sc
EndChar

StartChar: uni0394
Encoding: 916 916 134
Width: 639
GlyphClass: 2
Flags: W
AnchorPoint: "Anchor-7" 319 358 basechar 0
LayerCount: 2
Fore
SplineSet
10 0 m 1,0,-1
 10 50 l 1,1,-1
 279 717 l 1,2,-1
 360 717 l 1,3,-1
 628 50 l 1,4,-1
 628 0 l 1,5,-1
 10 0 l 1,0,-1
113 81 m 1,6,-1
 524 81 l 1,7,-1
 357 517 l 2,8,9
 354 525 354 525 346 546 c 128,-1,10
 338 567 338 567 330.5 589.5 c 128,-1,11
 323 612 323 612 319 624 c 1,12,13
 314 604 314 604 307.5 583.5 c 128,-1,14
 301 563 301 563 294.5 546 c 128,-1,15
 288 529 288 529 284 517 c 2,16,-1
 113 81 l 1,6,-1
EndSplineSet
Substitution2: "'c2sc' Capitals to Small Capitals lookup 38 subtable" delta.sc
Substitution2: "'aalt' Access All Alternates lookup 0 subtable" delta.sc
EndChar

StartChar: Theta
Encoding: 920 920 138
Width: 781
GlyphClass: 2
Flags: W
AnchorPoint: "Anchor-7" 391 357 basechar 0
AnchorPoint: "Anchor-6" 761 714 basechar 0
AnchorPoint: "Anchor-5" 392 0 basechar 0
AnchorPoint: "Anchor-4" 391 714 basechar 0
LayerCount: 2
Fore
SplineSet
240 324 m 1,0,-1
 240 402 l 1,1,-1
 542 402 l 1,2,-1
 542 324 l 1,3,-1
 240 324 l 1,0,-1
720 358 m 0,4,5
 720 275 720 275 699 207.5 c 128,-1,6
 678 140 678 140 636.5 91 c 128,-1,7
 595 42 595 42 533.5 16 c 128,-1,8
 472 -10 472 -10 391 -10 c 0,9,10
 307 -10 307 -10 245 16.5 c 128,-1,11
 183 43 183 43 142 91.5 c 128,-1,12
 101 140 101 140 81 208 c 128,-1,13
 61 276 61 276 61 359 c 0,14,15
 61 469 61 469 97 551 c 128,-1,16
 133 633 133 633 206.5 679 c 128,-1,17
 280 725 280 725 392 725 c 0,18,19
 499 725 499 725 572 679.5 c 128,-1,20
 645 634 645 634 682.5 551.5 c 128,-1,21
 720 469 720 469 720 358 c 0,4,5
156 358 m 256,22,23
 156 268 156 268 181 203 c 128,-1,24
 206 138 206 138 258.5 103 c 128,-1,25
 311 68 311 68 391 68 c 0,26,27
 472 68 472 68 523.5 103 c 128,-1,28
 575 138 575 138 600 203 c 128,-1,29
 625 268 625 268 625 358 c 0,30,31
 625 493 625 493 569 569.5 c 128,-1,32
 513 646 513 646 392 646 c 0,33,34
 311 646 311 646 258.5 611.5 c 128,-1,35
 206 577 206 577 181 512.5 c 128,-1,36
 156 448 156 448 156 358 c 256,22,23
EndSplineSet
Substitution2: "'c2sc' Capitals to Small Capitals lookup 38 subtable" theta.sc
Substitution2: "'aalt' Access All Alternates lookup 0 subtable" theta.sc
EndChar

StartChar: Lambda
Encoding: 923 923 141
Width: 609
GlyphClass: 2
Flags: W
AnchorPoint: "Anchor-7" 304 358 basechar 0
LayerCount: 2
Fore
SplineSet
0 0 m 1,0,-1
 264 717 l 1,1,-1
 345 717 l 1,2,-1
 608 0 l 1,3,-1
 515 0 l 1,4,-1
 337 517 l 2,5,6
 334 525 334 525 327 546 c 128,-1,7
 320 567 320 567 313.5 589.5 c 128,-1,8
 307 612 307 612 303 624 c 1,9,10
 298 604 298 604 292.5 583.5 c 128,-1,11
 287 563 287 563 281.5 546 c 128,-1,12
 276 529 276 529 272 517 c 2,13,-1
 91 0 l 1,14,-1
 0 0 l 1,0,-1
EndSplineSet
Substitution2: "'c2sc' Capitals to Small Capitals lookup 38 subtable" lambda.sc
Substitution2: "'aalt' Access All Alternates lookup 0 subtable" lambda.sc
EndChar

StartChar: Nu
Encoding: 925 925 143
Width: 618
GlyphClass: 2
Flags: W
AnchorPoint: "Anchor-7" 380 357 basechar 0
AnchorPoint: "Anchor-6" 740 714 basechar 0
AnchorPoint: "Anchor-5" 380 0 basechar 0
AnchorPoint: "Anchor-4" 380 714 basechar 0
LayerCount: 2
Fore
SplineSet
280 606 m 4,0,1
 231 606 231 606 201 634 c 4,2,3
 171 662 171 662 171 712 c 260,4,5
 171 762 171 762 201 789.5 c 4,6,7
 231 817 231 817 280 817 c 4,8,9
 327 817 327 817 359 789.5 c 4,10,11
 391 762 391 762 391 713 c 4,12,13
 391 662 391 662 359.5 634 c 4,14,15
 328 606 328 606 280 606 c 4,0,1
280 656 m 4,16,17
 305 656 305 656 320.5 671 c 4,18,19
 336 686 336 686 336 712 c 260,20,21
 336 738 336 738 320 753 c 4,22,23
 304 768 304 768 280 768 c 260,24,25
 256 768 256 768 240 753 c 4,26,27
 224 738 224 738 224 712 c 260,28,29
 224 686 224 686 238.5 671 c 4,30,31
 253 656 253 656 280 656 c 4,16,17
343 546 m 0,32,33
 439 546 439 546 488 499.5 c 0,34,35
 537 453 537 453 537 349 c 2,36,-1
 537 0 l 1,37,-1
 450 0 l 1,38,-1
 450 343 l 2,39,40
 450 408 450 408 421 440 c 0,41,42
 392 472 392 472 330 472 c 0,43,44
 241 472 241 472 207 422 c 0,45,46
 173 372 173 372 173 278 c 2,47,-1
 173 0 l 1,48,-1
 85 0 l 1,49,-1
 85 536 l 1,50,-1
 156 536 l 1,51,-1
 169 463 l 1,52,-1
 174 463 l 1,53,54
 192 491 192 491 218.5 509.5 c 0,55,56
 245 528 245 528 277 537 c 0,57,58
 309 546 309 546 343 546 c 0,32,33
EndSplineSet
Substitution2: "'c2sc' Capitals to Small Capitals lookup 38 subtable" nu.sc
Substitution2: "'aalt' Access All Alternates lookup 0 subtable" nu.sc
EndChar

StartChar: Xi
Encoding: 926 926 144
Width: 624
GlyphClass: 2
Flags: W
AnchorPoint: "Anchor-7" 312 357 basechar 0
LayerCount: 2
Fore
SplineSet
60 0 m 1,0,-1
 60 81 l 1,1,-1
 564 81 l 1,2,-1
 564 0 l 1,3,-1
 60 0 l 1,0,-1
120 333 m 1,4,-1
 120 414 l 1,5,-1
 504 414 l 1,6,-1
 504 333 l 1,7,-1
 120 333 l 1,4,-1
80 633 m 1,8,-1
 80 714 l 1,9,-1
 544 714 l 1,10,-1
 544 633 l 1,11,-1
 80 633 l 1,8,-1
EndSplineSet
Substitution2: "'c2sc' Capitals to Small Capitals lookup 38 subtable" xi.sc
Substitution2: "'aalt' Access All Alternates lookup 0 subtable" xi.sc
EndChar

StartChar: Pi
Encoding: 928 928 146
Width: 731
GlyphClass: 2
Flags: W
AnchorPoint: "Anchor-7" 365 357 basechar 0
LayerCount: 2
Fore
SplineSet
97 0 m 1,0,-1
 97 714 l 1,1,-1
 633 714 l 1,2,-1
 633 0 l 1,3,-1
 544 0 l 1,4,-1
 544 635 l 1,5,-1
 187 635 l 1,6,-1
 187 0 l 1,7,-1
 97 0 l 1,0,-1
EndSplineSet
Substitution2: "'c2sc' Capitals to Small Capitals lookup 38 subtable" pi.sc
Substitution2: "'aalt' Access All Alternates lookup 0 subtable" pi.sc
EndChar

StartChar: upsilondieresistonos
Encoding: 944 944 151
Width: 598
GlyphClass: 2
Flags: W
AnchorPoint: "Anchor-7" 304 263 basechar 0
AnchorPoint: "Anchor-5" 287 0 basechar 0
AnchorPoint: "Anchor-4" 282 536 basechar 0
LayerCount: 2
Fore
SplineSet
282 -10 m 0,0,1
 215 -10 215 -10 174.5 7.5 c 0,2,3
 134 25 134 25 113.5 57.5 c 0,4,5
 93 90 93 90 86 134.5 c 0,6,7
 79 179 79 179 79 233 c 2,8,-1
 79 536 l 1,9,-1
 167 536 l 1,10,-1
 167 236 l 2,11,12
 167 179 167 179 176 140.5 c 0,13,14
 185 102 185 102 211.5 82 c 0,15,16
 238 62 238 62 289 62 c 0,17,18
 337 62 337 62 371 87 c 0,19,20
 405 112 405 112 422.5 164 c 0,21,22
 440 216 440 216 440 296 c 0,23,24
 440 366 440 366 432 421 c 0,25,26
 424 476 424 476 409 536 c 1,27,-1
 497 536 l 1,28,29
 508 497 508 497 515 459.5 c 0,30,31
 522 422 522 422 525.5 382 c 0,32,33
 529 342 529 342 529 292 c 0,34,35
 529 137 529 137 464 63.5 c 0,36,37
 399 -10 399 -10 282 -10 c 0,0,1
EndSplineSet
Refer: 121 901 N 1 0 0 1 -5 0 2
Substitution2: "'smcp' Lowercase to Small Capitals lookup 39 subtable" upsilondieresistonos.sc
Substitution2: "'aalt' Access All Alternates lookup 0 subtable" upsilondieresistonos.sc
EndChar

StartChar: alpha
Encoding: 945 945 152
Width: 623
GlyphClass: 2
Flags: W
AnchorPoint: "Anchor-7" 328 268 basechar 0
AnchorPoint: "Anchor-5" 291 0 basechar 0
AnchorPoint: "Anchor-4" 291 536 basechar 0
LayerCount: 2
Fore
SplineSet
273 -10 m 0,0,1
 209 -10 209 -10 160 21 c 128,-1,2
 111 52 111 52 83 113.5 c 128,-1,3
 55 175 55 175 55 266 c 0,4,5
 55 402 55 402 114.5 474 c 128,-1,6
 174 546 174 546 277 546 c 0,7,8
 315 546 315 546 346 535.5 c 128,-1,9
 377 525 377 525 401.5 506.5 c 128,-1,10
 426 488 426 488 443 463 c 1,11,-1
 447 463 l 1,12,-1
 460 536 l 1,13,-1
 530 536 l 1,14,-1
 530 118 l 2,15,16
 530 87 530 87 542 74.5 c 128,-1,17
 554 62 554 62 571 62 c 0,18,19
 579 62 579 62 588 64 c 128,-1,20
 597 66 597 66 601 67 c 1,21,-1
 601 3 l 1,22,23
 596 0 596 0 587 -3 c 128,-1,24
 578 -6 578 -6 567 -8 c 128,-1,25
 556 -10 556 -10 545 -10 c 0,26,27
 508 -10 508 -10 483.5 8 c 128,-1,28
 459 26 459 26 448 72 c 1,29,-1
 441 72 l 1,30,31
 425 48 425 48 401 29.5 c 128,-1,32
 377 11 377 11 345 0.5 c 128,-1,33
 313 -10 313 -10 273 -10 c 0,0,1
291 63 m 0,34,35
 346 63 346 63 379.5 84 c 128,-1,36
 413 105 413 105 428 149 c 128,-1,37
 443 193 443 193 443 261 c 2,38,-1
 443 267 l 2,39,40
 443 367 443 367 409.5 420 c 128,-1,41
 376 473 376 473 290 473 c 0,42,43
 217 473 217 473 181.5 419.5 c 128,-1,44
 146 366 146 366 146 265 c 0,45,46
 146 165 146 165 183 114 c 128,-1,47
 220 63 220 63 291 63 c 0,34,35
EndSplineSet
Substitution2: "'smcp' Lowercase to Small Capitals lookup 39 subtable" alpha.sc
Substitution2: "'aalt' Access All Alternates lookup 0 subtable" alpha.sc
EndChar

StartChar: epsilon
Encoding: 949 949 153
Width: 470
GlyphClass: 2
Flags: W
AnchorPoint: "Anchor-7" 241 268 basechar 0
AnchorPoint: "Anchor-5" 267 0 basechar 0
AnchorPoint: "Anchor-4" 261 536 basechar 0
LayerCount: 2
Fore
SplineSet
268 -10 m 0,0,1
 152 -10 152 -10 98.5 34.5 c 128,-1,2
 45 79 45 79 45 146 c 0,3,4
 45 186 45 186 60.5 211.5 c 128,-1,5
 76 237 76 237 101.5 252.5 c 128,-1,6
 127 268 127 268 158 277 c 1,7,-1
 158 282 l 1,8,9
 115 296 115 296 89 325.5 c 128,-1,10
 63 355 63 355 63 403 c 0,11,12
 63 449 63 449 86.5 480.5 c 128,-1,13
 110 512 110 512 154.5 529 c 128,-1,14
 199 546 199 546 261 546 c 0,15,16
 317 546 317 546 362.5 534.5 c 128,-1,17
 408 523 408 523 437 507 c 1,18,-1
 409 434 l 1,19,20
 377 452 377 452 340.5 462.5 c 128,-1,21
 304 473 304 473 261 473 c 0,22,23
 201 473 201 473 175.5 452.5 c 128,-1,24
 150 432 150 432 150 397 c 0,25,26
 150 351 150 351 186.5 332.5 c 128,-1,27
 223 314 223 314 271 314 c 2,28,-1
 340 314 l 1,29,-1
 340 246 l 1,30,-1
 271 246 l 2,31,32
 227 246 227 246 197 235 c 128,-1,33
 167 224 167 224 151.5 203 c 128,-1,34
 136 182 136 182 136 151 c 0,35,36
 136 108 136 108 170.5 86.5 c 128,-1,37
 205 65 205 65 268 65 c 0,38,39
 320 65 320 65 358.5 73 c 128,-1,40
 397 81 397 81 428 97 c 1,41,-1
 428 19 l 1,42,43
 397 3 397 3 356 -3.5 c 128,-1,44
 315 -10 315 -10 268 -10 c 0,0,1
EndSplineSet
Substitution2: "'smcp' Lowercase to Small Capitals lookup 39 subtable" epsilon.sc
Substitution2: "'aalt' Access All Alternates lookup 0 subtable" epsilon.sc
EndChar

StartChar: iota
Encoding: 953 953 154
Width: 332
GlyphClass: 2
Flags: W
AnchorPoint: "Anchor-7" 196 263 basechar 0
AnchorPoint: "Anchor-5" 198 0 basechar 0
AnchorPoint: "Anchor-4" 134 536 basechar 0
LayerCount: 2
Fore
SplineSet
233 -10 m 0,0,1
 181 -10 181 -10 147.5 9 c 128,-1,2
 114 28 114 28 98 64 c 128,-1,3
 82 100 82 100 82 150 c 2,4,-1
 82 536 l 1,5,-1
 170 536 l 1,6,-1
 170 147 l 2,7,8
 170 98 170 98 191 80.5 c 128,-1,9
 212 63 212 63 244 63 c 0,10,11
 264 63 264 63 279.5 66 c 128,-1,12
 295 69 295 69 310 73 c 1,13,-1
 310 2 l 1,14,15
 297 -3 297 -3 278 -6.5 c 128,-1,16
 259 -10 259 -10 233 -10 c 0,0,1
EndSplineSet
Substitution2: "'smcp' Lowercase to Small Capitals lookup 39 subtable" iota.sc
Substitution2: "'aalt' Access All Alternates lookup 0 subtable" iota.sc
EndChar

StartChar: kappa
Encoding: 954 954 155
Width: 534
GlyphClass: 2
Flags: W
AnchorPoint: "Anchor-7" 305 268 basechar 0
AnchorPoint: "Anchor-5" 267 0 basechar 0
AnchorPoint: "Anchor-4" 267 536 basechar 0
LayerCount: 2
Fore
SplineSet
509 536 m 1,0,-1
 306 299 l 1,1,-1
 525 0 l 1,2,-1
 420 0 l 1,3,-1
 244 242 l 1,4,-1
 178 188 l 1,5,-1
 178 0 l 1,6,-1
 85 0 l 1,7,-1
 85 536 l 1,8,-1
 178 536 l 1,9,-1
 178 397 l 2,10,11
 178 357 178 357 176 319 c 0,12,13
 174 281 174 281 172 261 c 1,14,-1
 174 261 l 1,15,16
 183 274 183 274 193.5 287.5 c 0,17,18
 204 301 204 301 213 312 c 2,19,-1
 403 536 l 1,20,-1
 509 536 l 1,0,-1
EndSplineSet
Substitution2: "'smcp' Lowercase to Small Capitals lookup 39 subtable" kappa.sc
Substitution2: "'aalt' Access All Alternates lookup 0 subtable" kappa.sc
EndChar

StartChar: xi
Encoding: 958 958 156
Width: 490
GlyphClass: 2
Flags: W
AnchorPoint: "Anchor-7" 256 279 basechar 0
LayerCount: 2
Fore
SplineSet
324 -202 m 1,0,1
 340 -170 340 -170 353 -138.5 c 128,-1,2
 366 -107 366 -107 366 -79 c 0,3,4
 366 -64 366 -64 361 -52 c 128,-1,5
 356 -40 356 -40 338.5 -29.5 c 128,-1,6
 321 -19 321 -19 281 -11 c 0,7,8
 208 5 208 5 157.5 30 c 128,-1,9
 107 55 107 55 81 95.5 c 128,-1,10
 55 136 55 136 55 198 c 0,11,12
 55 252 55 252 75 292 c 128,-1,13
 95 332 95 332 129 358 c 128,-1,14
 163 384 163 384 205 395 c 1,15,-1
 205 401 l 1,16,17
 167 411 167 411 141 429.5 c 128,-1,18
 115 448 115 448 102 476 c 128,-1,19
 89 504 89 504 89 542 c 0,20,21
 89 589 89 589 109.5 619.5 c 128,-1,22
 130 650 130 650 163.5 669 c 128,-1,23
 197 688 197 688 237 699 c 1,24,25
 225 698 225 698 205 696.5 c 128,-1,26
 185 695 185 695 162 694 c 128,-1,27
 139 693 139 693 116 693 c 2,28,-1
 85 693 l 1,29,-1
 85 760 l 1,30,-1
 457 760 l 1,31,-1
 457 698 l 1,32,-1
 431 698 l 2,33,34
 379 698 379 698 332.5 691 c 128,-1,35
 286 684 286 684 250.5 667 c 128,-1,36
 215 650 215 650 194.5 621 c 128,-1,37
 174 592 174 592 174 549 c 0,38,39
 174 515 174 515 190 489 c 128,-1,40
 206 463 206 463 242 448 c 128,-1,41
 278 433 278 433 337 433 c 2,42,-1
 445 433 l 1,43,-1
 445 366 l 1,44,-1
 334 366 l 2,45,46
 264 366 264 366 222.5 344.5 c 128,-1,47
 181 323 181 323 163 288 c 128,-1,48
 145 253 145 253 145 210 c 0,49,50
 145 163 145 163 163 136 c 128,-1,51
 181 109 181 109 221 93 c 128,-1,52
 261 77 261 77 326 61 c 0,53,54
 379 49 379 49 406.5 32 c 128,-1,55
 434 15 434 15 444 -7 c 128,-1,56
 454 -29 454 -29 454 -56 c 0,57,58
 454 -85 454 -85 448.5 -109.5 c 128,-1,59
 443 -134 443 -134 433 -156 c 128,-1,60
 423 -178 423 -178 411 -202 c 1,61,-1
 324 -202 l 1,0,1
EndSplineSet
Substitution2: "'smcp' Lowercase to Small Capitals lookup 39 subtable" xi.sc
Substitution2: "'aalt' Access All Alternates lookup 0 subtable" xi.sc
EndChar

StartChar: pi
Encoding: 960 960 158
Width: 653
GlyphClass: 2
Flags: W
AnchorPoint: "Anchor-7" 323 263 basechar 0
LayerCount: 2
Fore
SplineSet
550 -10 m 0,0,1
 495 -10 495 -10 467 22 c 128,-1,2
 439 54 439 54 439 118 c 2,3,-1
 439 468 l 1,4,-1
 212 468 l 1,5,-1
 212 0 l 1,6,-1
 125 0 l 1,7,-1
 125 468 l 1,8,-1
 16 468 l 1,9,-1
 16 536 l 1,10,-1
 631 536 l 1,11,-1
 631 468 l 1,12,-1
 526 468 l 1,13,-1
 526 124 l 2,14,15
 526 89 526 89 539 75.5 c 128,-1,16
 552 62 552 62 572 62 c 0,17,18
 586 62 586 62 597.5 65 c 128,-1,19
 609 68 609 68 616 72 c 1,20,-1
 616 3 l 1,21,22
 608 -1 608 -1 590.5 -5.5 c 128,-1,23
 573 -10 573 -10 550 -10 c 0,0,1
EndSplineSet
Substitution2: "'smcp' Lowercase to Small Capitals lookup 39 subtable" pi.sc
Substitution2: "'aalt' Access All Alternates lookup 0 subtable" pi.sc
EndChar

StartChar: upsilontonos
Encoding: 973 973 160
Width: 598
GlyphClass: 2
Flags: W
AnchorPoint: "Anchor-7" 304 263 basechar 0
AnchorPoint: "Anchor-5" 287 0 basechar 0
AnchorPoint: "Anchor-4" 282 536 basechar 0
LayerCount: 2
Fore
SplineSet
282 -10 m 0,0,1
 215 -10 215 -10 174.5 7.5 c 0,2,3
 134 25 134 25 113.5 57.5 c 0,4,5
 93 90 93 90 86 134.5 c 0,6,7
 79 179 79 179 79 233 c 2,8,-1
 79 536 l 1,9,-1
 167 536 l 1,10,-1
 167 236 l 2,11,12
 167 179 167 179 176 140.5 c 0,13,14
 185 102 185 102 211.5 82 c 0,15,16
 238 62 238 62 289 62 c 0,17,18
 337 62 337 62 371 87 c 0,19,20
 405 112 405 112 422.5 164 c 0,21,22
 440 216 440 216 440 296 c 0,23,24
 440 366 440 366 432 421 c 0,25,26
 424 476 424 476 409 536 c 1,27,-1
 497 536 l 1,28,29
 508 497 508 497 515 459.5 c 0,30,31
 522 422 522 422 525.5 382 c 0,32,33
 529 342 529 342 529 292 c 0,34,35
 529 137 529 137 464 63.5 c 0,36,37
 399 -10 399 -10 282 -10 c 0,0,1
EndSplineSet
Refer: 120 900 N 1 0 0 1 221 0 2
Substitution2: "'smcp' Lowercase to Small Capitals lookup 39 subtable" upsilontonos.sc
Substitution2: "'aalt' Access All Alternates lookup 0 subtable" upsilontonos.sc
EndChar

StartChar: omegatonos
Encoding: 974 974 161
Width: 799
GlyphClass: 2
Flags: W
AnchorPoint: "Anchor-7" 400 263 basechar 0
AnchorPoint: "Anchor-5" 400 0 basechar 0
AnchorPoint: "Anchor-4" 400 536 basechar 0
LayerCount: 2
Fore
SplineSet
256 -10 m 0,0,1
 194 -10 194 -10 151.5 24 c 0,2,3
 109 58 109 58 87 119 c 0,4,5
 65 180 65 180 65 260 c 0,6,7
 65 355 65 355 91 424 c 0,8,9
 117 493 117 493 154 536 c 1,10,-1
 244 536 l 1,11,12
 219 507 219 507 198.5 467.5 c 0,13,14
 178 428 178 428 165.5 376 c 0,15,16
 153 324 153 324 153 259 c 0,17,18
 153 162 153 162 183 112.5 c 0,19,20
 213 63 213 63 262 63 c 0,21,22
 295 63 295 63 316.5 80 c 0,23,24
 338 97 338 97 348 126.5 c 0,25,26
 358 156 358 156 358 193 c 2,27,-1
 358 354 l 1,28,-1
 442 354 l 1,29,-1
 442 193 l 2,30,31
 442 152 442 152 453.5 122.5 c 0,32,33
 465 93 465 93 486 78 c 0,34,35
 507 63 507 63 537 63 c 0,36,37
 571 63 571 63 595.5 85 c 0,38,39
 620 107 620 107 633.5 151 c 0,40,41
 647 195 647 195 647 259 c 0,42,43
 647 322 647 322 636 372.5 c 0,44,45
 625 423 625 423 604.5 463.5 c 0,46,47
 584 504 584 504 556 536 c 1,48,-1
 646 536 l 1,49,50
 673 505 673 505 693 464.5 c 0,51,52
 713 424 713 424 724 373 c 0,53,54
 735 322 735 322 735 260 c 0,55,56
 735 180 735 180 713 119 c 0,57,58
 691 58 691 58 648.5 24 c 0,59,60
 606 -10 606 -10 544 -10 c 0,61,62
 489 -10 489 -10 454 15.5 c 0,63,64
 419 41 419 41 402 100 c 1,65,-1
 397 100 l 1,66,67
 387 61 387 61 368 36.5 c 0,68,69
 349 12 349 12 321 1 c 0,70,71
 293 -10 293 -10 256 -10 c 0,0,1
EndSplineSet
Refer: 120 900 N 1 0 0 1 339 0 2
Substitution2: "'smcp' Lowercase to Small Capitals lookup 39 subtable" omegatonos.sc
Substitution2: "'aalt' Access All Alternates lookup 0 subtable" omegatonos.sc
EndChar

StartChar: endash
Encoding: 8211 8211 164
Width: 500
Flags: W
LayerCount: 2
Fore
SplineSet
40 229 m 1,0,-1
 40 307 l 1,1,-1
 460 307 l 1,2,-1
 460 229 l 1,3,-1
 40 229 l 1,0,-1
EndSplineSet
EndChar

StartChar: emdash
Encoding: 8212 8212 165
Width: 1000
Flags: W
LayerCount: 2
Fore
SplineSet
40 229 m 1,0,-1
 40 307 l 1,1,-1
 960 307 l 1,2,-1
 960 229 l 1,3,-1
 40 229 l 1,0,-1
EndSplineSet
EndChar

StartChar: underscoredbl
Encoding: 8215 8215 167
Width: 411
Flags: W
LayerCount: 2
Fore
SplineSet
413 -222 m 1,0,-1
 -2 -222 l 1,1,-1
 -2 -158 l 1,2,-1
 413 -158 l 1,3,-1
 413 -222 l 1,0,-1
413 -90 m 1,4,-1
 -2 -90 l 1,5,-1
 -2 -26 l 1,6,-1
 413 -26 l 1,7,-1
 413 -90 l 1,4,-1
EndSplineSet
EndChar

StartChar: quoteleft
Encoding: 8216 8216 168
Width: 175
Flags: W
LayerCount: 2
Fore
SplineSet
12 480 m 1,0,1
 21 515 21 515 35 556 c 128,-1,2
 49 597 49 597 65.5 638 c 128,-1,3
 82 679 82 679 98 714 c 1,4,-1
 163 714 l 1,5,6
 154 676 154 676 144 632.5 c 128,-1,7
 134 589 134 589 126 546.5 c 128,-1,8
 118 504 118 504 113 469 c 1,9,-1
 18 469 l 1,10,-1
 12 480 l 1,0,1
EndSplineSet
EndChar

StartChar: quoteright
Encoding: 8217 8217 169
Width: 175
Flags: W
LayerCount: 2
Fore
SplineSet
163 703 m 1,0,1
 154 668 154 668 140 627 c 128,-1,2
 126 586 126 586 109.5 545.5 c 128,-1,3
 93 505 93 505 77 469 c 1,4,-1
 12 469 l 1,5,6
 19 497 19 497 26.5 529 c 128,-1,7
 34 561 34 561 40.5 593.5 c 128,-1,8
 47 626 47 626 52.5 657 c 128,-1,9
 58 688 58 688 62 714 c 1,10,-1
 156 714 l 1,11,-1
 163 703 l 1,0,1
EndSplineSet
EndChar

StartChar: quotereversed
Encoding: 8219 8219 171
Width: 175
Flags: W
LayerCount: 2
Fore
SplineSet
114 714 m 1,0,1
 119 679 119 679 127 636.5 c 128,-1,2
 135 594 135 594 145 550.5 c 128,-1,3
 155 507 155 507 164 469 c 1,4,-1
 99 469 l 1,5,6
 83 505 83 505 66 545.5 c 128,-1,7
 49 586 49 586 35 627 c 128,-1,8
 21 668 21 668 12 703 c 1,9,-1
 19 714 l 1,10,-1
 114 714 l 1,0,1
EndSplineSet
EndChar

StartChar: quotedblleft
Encoding: 8220 8220 172
Width: 359
Flags: W
LayerCount: 2
Fore
SplineSet
347 714 m 1,0,1
 338 676 338 676 328 632 c 128,-1,2
 318 588 318 588 310 546 c 128,-1,3
 302 504 302 504 297 469 c 1,4,-1
 202 469 l 1,5,-1
 195 480 l 1,6,7
 204 515 204 515 218 555.5 c 128,-1,8
 232 596 232 596 249 637 c 128,-1,9
 266 678 266 678 282 714 c 1,10,-1
 347 714 l 1,0,1
162 714 m 1,11,12
 153 676 153 676 143 632 c 128,-1,13
 133 588 133 588 125 546 c 128,-1,14
 117 504 117 504 112 469 c 1,15,-1
 18 469 l 1,16,-1
 12 480 l 1,17,18
 21 515 21 515 35 555.5 c 128,-1,19
 49 596 49 596 65.5 637 c 128,-1,20
 82 678 82 678 98 714 c 1,21,-1
 162 714 l 1,11,12
EndSplineSet
EndChar

StartChar: quotedblright
Encoding: 8221 8221 173
Width: 359
Flags: W
LayerCount: 2
Fore
SplineSet
347 703 m 1,0,1
 338 668 338 668 324 627 c 128,-1,2
 310 586 310 586 293.5 545.5 c 128,-1,3
 277 505 277 505 261 469 c 1,4,-1
 195 469 l 1,5,6
 205 507 205 507 214.5 550.5 c 128,-1,7
 224 594 224 594 232.5 636.5 c 128,-1,8
 241 679 241 679 246 714 c 1,9,-1
 340 714 l 1,10,-1
 347 703 l 1,0,1
162 703 m 1,11,12
 153 668 153 668 139 627 c 128,-1,13
 125 586 125 586 108.5 545.5 c 128,-1,14
 92 505 92 505 76 469 c 1,15,-1
 12 469 l 1,16,17
 19 497 19 497 26 529 c 128,-1,18
 33 561 33 561 39.5 593.5 c 128,-1,19
 46 626 46 626 51.5 657 c 128,-1,20
 57 688 57 688 61 714 c 1,21,-1
 155 714 l 1,22,-1
 162 703 l 1,11,12
EndSplineSet
EndChar

StartChar: dagger
Encoding: 8224 8224 175
Width: 512
Flags: W
LayerCount: 2
Fore
SplineSet
448 484 m 1,0,-1
 277 499 l 1,1,-1
 302 0 l 1,2,-1
 202 0 l 1,3,-1
 226 499 l 1,4,-1
 65 484 l 1,5,-1
 65 571 l 1,6,-1
 226 556 l 1,7,-1
 202 760 l 1,8,-1
 302 760 l 1,9,-1
 277 556 l 1,10,-1
 448 571 l 1,11,-1
 448 484 l 1,0,-1
EndSplineSet
EndChar

StartChar: daggerdbl
Encoding: 8225 8225 176
Width: 512
Flags: W
LayerCount: 2
Fore
SplineSet
281 241 m 1,0,-1
 452 256 l 1,1,-1
 452 171 l 1,2,-1
 281 185 l 1,3,-1
 305 0 l 1,4,-1
 204 0 l 1,5,-1
 228 185 l 1,6,-1
 60 171 l 1,7,-1
 60 256 l 1,8,-1
 228 241 l 1,9,-1
 207 384 l 1,10,-1
 228 519 l 1,11,-1
 60 504 l 1,12,-1
 60 589 l 1,13,-1
 228 574 l 1,14,-1
 204 760 l 1,15,-1
 305 760 l 1,16,-1
 281 574 l 1,17,-1
 452 589 l 1,18,-1
 452 504 l 1,19,-1
 281 519 l 1,20,-1
 302 384 l 1,21,-1
 281 241 l 1,0,-1
EndSplineSet
EndChar

StartChar: bullet
Encoding: 8226 8226 177
Width: 376
Flags: W
LayerCount: 2
Fore
SplineSet
77 365 m 0,0,1
 77 410 77 410 91.5 437.5 c 128,-1,2
 106 465 106 465 131.5 477 c 128,-1,3
 157 489 157 489 188 489 c 256,4,5
 219 489 219 489 244 477 c 128,-1,6
 269 465 269 465 284 437.5 c 128,-1,7
 299 410 299 410 299 365 c 0,8,9
 299 321 299 321 284 293.5 c 128,-1,10
 269 266 269 266 244 253.5 c 128,-1,11
 219 241 219 241 188 241 c 256,12,13
 157 241 157 241 131.5 253.5 c 128,-1,14
 106 266 106 266 91.5 293.5 c 128,-1,15
 77 321 77 321 77 365 c 0,0,1
EndSplineSet
EndChar

StartChar: perthousand
Encoding: 8240 8240 179
Width: 1177
Flags: W
LayerCount: 2
Fore
SplineSet
195 724 m 0,0,1
 269 724 269 724 307 665.5 c 128,-1,2
 345 607 345 607 345 501 c 256,3,4
 345 395 345 395 308.5 335.5 c 128,-1,5
 272 276 272 276 195 276 c 0,6,7
 124 276 124 276 86.5 335.5 c 128,-1,8
 49 395 49 395 49 501 c 256,9,10
 49 607 49 607 84 665.5 c 128,-1,11
 119 724 119 724 195 724 c 0,0,1
195 662 m 0,12,13
 157 662 157 662 139.5 621.5 c 128,-1,14
 122 581 122 581 122 501 c 256,15,16
 122 421 122 421 139.5 380 c 128,-1,17
 157 339 157 339 195 339 c 0,18,19
 234 339 234 339 253 379.5 c 128,-1,20
 272 420 272 420 272 501 c 0,21,22
 272 581 272 581 253 621.5 c 128,-1,23
 234 662 234 662 195 662 c 0,12,13
652 714 m 1,24,-1
 256 0 l 1,25,-1
 179 0 l 1,26,-1
 575 714 l 1,27,-1
 652 714 l 1,24,-1
632 438 m 0,28,29
 705 438 705 438 743.5 379.5 c 128,-1,30
 782 321 782 321 782 215 c 256,31,32
 782 109 782 109 745.5 49.5 c 128,-1,33
 709 -10 709 -10 632 -10 c 0,34,35
 561 -10 561 -10 523.5 49.5 c 128,-1,36
 486 109 486 109 486 215 c 256,37,38
 486 321 486 321 521 379.5 c 128,-1,39
 556 438 556 438 632 438 c 0,28,29
632 375 m 0,40,41
 594 375 594 375 576.5 335 c 128,-1,42
 559 295 559 295 559 215 c 0,43,44
 559 134 559 134 576.5 93.5 c 128,-1,45
 594 53 594 53 632 53 c 0,46,47
 671 53 671 53 690 93 c 128,-1,48
 709 133 709 133 709 215 c 0,49,50
 709 295 709 295 690 335 c 128,-1,51
 671 375 671 375 632 375 c 0,40,41
978 438 m 0,52,53
 1051 438 1051 438 1089.5 379.5 c 128,-1,54
 1128 321 1128 321 1128 215 c 256,55,56
 1128 109 1128 109 1091.5 49.5 c 128,-1,57
 1055 -10 1055 -10 978 -10 c 0,58,59
 907 -10 907 -10 869.5 49.5 c 128,-1,60
 832 109 832 109 832 215 c 256,61,62
 832 321 832 321 867 379.5 c 128,-1,63
 902 438 902 438 978 438 c 0,52,53
978 375 m 0,64,65
 940 375 940 375 922.5 335 c 128,-1,66
 905 295 905 295 905 215 c 0,67,68
 905 134 905 134 922.5 93.5 c 128,-1,69
 940 53 940 53 978 53 c 0,70,71
 1017 53 1017 53 1036 93 c 128,-1,72
 1055 133 1055 133 1055 215 c 0,73,74
 1055 295 1055 295 1036 335 c 128,-1,75
 1017 375 1017 375 978 375 c 0,64,65
EndSplineSet
EndChar

StartChar: minute
Encoding: 8242 8242 180
Width: 232
Flags: W
LayerCount: 2
Fore
SplineSet
168 714 m 1,0,-1
 258 714 l 1,1,-1
 97 456 l 1,2,-1
 39 456 l 1,3,-1
 168 714 l 1,0,-1
EndSplineSet
EndChar

StartChar: guilsinglleft
Encoding: 8249 8249 182
Width: 310
Flags: W
LayerCount: 2
Fore
SplineSet
40 270 m 1,0,-1
 208 471 l 1,1,-1
 271 435 l 1,2,-1
 131 264 l 1,3,-1
 271 93 l 1,4,-1
 208 56 l 1,5,-1
 40 257 l 1,6,-1
 40 270 l 1,0,-1
EndSplineSet
Substitution2: "'smcp' Lowercase to Small Capitals lookup 39 subtable" guilsinglleft.sc
Substitution2: "'c2sc' Capitals to Small Capitals lookup 38 subtable" guilsinglleft.sc
Substitution2: "'aalt' Access All Alternates lookup 0 subtable" guilsinglleft.sc
EndChar

StartChar: guilsinglright
Encoding: 8250 8250 183
Width: 310
Flags: W
LayerCount: 2
Fore
SplineSet
101 471 m 1,0,-1
 270 270 l 1,1,-1
 270 257 l 1,2,-1
 101 56 l 1,3,-1
 39 93 l 1,4,-1
 179 264 l 1,5,-1
 39 435 l 1,6,-1
 101 471 l 1,0,-1
EndSplineSet
Substitution2: "'smcp' Lowercase to Small Capitals lookup 39 subtable" guilsinglright.sc
Substitution2: "'c2sc' Capitals to Small Capitals lookup 38 subtable" guilsinglright.sc
Substitution2: "'aalt' Access All Alternates lookup 0 subtable" guilsinglright.sc
EndChar

StartChar: fraction
Encoding: 8260 8260 185
Width: 130
Flags: W
LayerCount: 2
Fore
SplineSet
320 714 m 1,0,-1
 -116 0 l 1,1,-1
 -191 0 l 1,2,-1
 245 714 l 1,3,-1
 320 714 l 1,0,-1
EndSplineSet
EndChar

StartChar: uni207F
Encoding: 8319 8319 186
Width: 402
GlyphClass: 2
Flags: W
AnchorPoint: "Anchor-7" 202 451 basechar 0
AnchorPoint: "Anchor-6" 365 609 basechar 0
AnchorPoint: "Anchor-5" 201 287 basechar 0
AnchorPoint: "Anchor-4" 201 609 basechar 0
LayerCount: 2
Fore
SplineSet
223 615 m 0,0,1
 285 615 285 615 317 587 c 128,-1,2
 349 559 349 559 349 496 c 2,3,-1
 349 287 l 1,4,-1
 293 287 l 1,5,-1
 293 493 l 2,6,7
 293 532 293 532 273.5 551 c 128,-1,8
 254 570 254 570 215 570 c 0,9,10
 156 570 156 570 134 540 c 128,-1,11
 112 510 112 510 112 454 c 2,12,-1
 112 287 l 1,13,-1
 55 287 l 1,14,-1
 55 609 l 1,15,-1
 101 609 l 1,16,-1
 110 565 l 1,17,-1
 113 565 l 1,18,19
 124 582 124 582 141.5 593 c 128,-1,20
 159 604 159 604 180 609.5 c 128,-1,21
 201 615 201 615 223 615 c 0,0,1
EndSplineSet
EndChar

StartChar: franc
Encoding: 8355 8355 187
Width: 572
Flags: W
LayerCount: 2
Fore
SplineSet
130 0 m 1,0,-1
 130 130 l 1,1,-1
 45 130 l 1,2,-1
 45 195 l 1,3,-1
 130 195 l 1,4,-1
 130 714 l 1,5,-1
 517 714 l 1,6,-1
 517 635 l 1,7,-1
 217 635 l 1,8,-1
 217 384 l 1,9,-1
 498 384 l 1,10,-1
 498 305 l 1,11,-1
 217 305 l 1,12,-1
 217 195 l 1,13,-1
 368 195 l 1,14,-1
 368 130 l 1,15,-1
 217 130 l 1,16,-1
 217 0 l 1,17,-1
 130 0 l 1,0,-1
EndSplineSet
EndChar

StartChar: lira
Encoding: 8356 8356 188
Width: 572
Flags: W
LayerCount: 2
Fore
SplineSet
336 723 m 0,0,1
 392 723 392 723 435.5 712 c 128,-1,2
 479 701 479 701 513 684 c 1,3,-1
 482 615 l 1,4,5
 451 629 451 629 414.5 639 c 128,-1,6
 378 649 378 649 337 649 c 0,7,8
 284 649 284 649 252.5 620 c 128,-1,9
 221 591 221 591 221 525 c 2,10,-1
 221 437 l 1,11,-1
 423 437 l 1,12,-1
 423 372 l 1,13,-1
 221 372 l 1,14,-1
 221 294 l 1,15,-1
 423 294 l 1,16,-1
 423 228 l 1,17,-1
 220 228 l 1,18,19
 220 185 220 185 211.5 156 c 128,-1,20
 203 127 203 127 187.5 109 c 128,-1,21
 172 91 172 91 152 80 c 1,22,-1
 536 80 l 1,23,-1
 536 0 l 1,24,-1
 33 0 l 1,25,-1
 33 74 l 1,26,27
 64 81 64 81 86.5 99 c 128,-1,28
 109 117 109 117 121 149 c 128,-1,29
 133 181 133 181 133 228 c 1,30,-1
 36 228 l 1,31,-1
 36 294 l 1,32,-1
 133 294 l 1,33,-1
 133 372 l 1,34,-1
 36 372 l 1,35,-1
 36 437 l 1,36,-1
 133 437 l 1,37,-1
 133 503 l 2,38,39
 133 572 133 572 154 621 c 128,-1,40
 175 670 175 670 219.5 696.5 c 128,-1,41
 264 723 264 723 336 723 c 0,0,1
EndSplineSet
EndChar

StartChar: peseta
Encoding: 8359 8359 189
Width: 776
Flags: W
LayerCount: 2
Fore
SplineSet
210 714 m 2,0,1
 343 714 343 714 402 659 c 128,-1,2
 461 604 461 604 461 504 c 0,3,4
 461 459 461 459 448 418.5 c 128,-1,5
 435 378 435 378 404 346 c 128,-1,6
 373 314 373 314 322 296 c 128,-1,7
 271 278 271 278 194 278 c 2,8,-1
 163 278 l 1,9,-1
 163 0 l 1,10,-1
 76 0 l 1,11,-1
 76 714 l 1,12,-1
 210 714 l 2,0,1
204 637 m 2,13,-1
 163 637 l 1,14,-1
 163 355 l 1,15,-1
 189 355 l 2,16,17
 281 355 281 355 326.5 388.5 c 128,-1,18
 372 422 372 422 372 500 c 0,19,20
 372 569 372 569 331 603 c 128,-1,21
 290 637 290 637 204 637 c 2,13,-1
618 517 m 1,22,-1
 618 413 l 1,23,-1
 728 413 l 1,24,-1
 728 346 l 1,25,-1
 618 346 l 1,26,-1
 618 138 l 2,27,28
 618 101 618 101 631 81 c 128,-1,29
 644 61 644 61 675 61 c 0,30,31
 690 61 690 61 710.5 64 c 128,-1,32
 731 67 731 67 741 71 c 1,33,-1
 741 6 l 1,34,35
 729 0 729 0 707.5 -5 c 128,-1,36
 686 -10 686 -10 654 -10 c 0,37,38
 618 -10 618 -10 591 5 c 128,-1,39
 564 20 564 20 549.5 50.5 c 128,-1,40
 535 81 535 81 535 127 c 2,41,-1
 535 346 l 1,42,-1
 458 346 l 1,43,-1
 458 386 l 1,44,-1
 536 422 l 1,45,-1
 567 517 l 1,46,-1
 618 517 l 1,22,-1
EndSplineSet
EndChar

StartChar: Euro
Encoding: 8364 8364 190
Width: 572
Flags: W
LayerCount: 2
Fore
SplineSet
380 723 m 0,0,1
 430 723 430 723 474 712 c 128,-1,2
 518 701 518 701 559 677 c 1,3,-1
 522 605 l 1,4,5
 494 620 494 620 456.5 633 c 128,-1,6
 419 646 419 646 380 646 c 0,7,8
 343 646 343 646 312 634.5 c 128,-1,9
 281 623 281 623 257.5 599 c 128,-1,10
 234 575 234 575 217 539 c 128,-1,11
 200 503 200 503 191 455 c 1,12,-1
 435 455 l 1,13,-1
 435 390 l 1,14,-1
 184 390 l 1,15,16
 183 380 183 380 183 371 c 128,-1,17
 183 362 183 362 183 352 c 0,18,19
 183 343 183 343 183 332.5 c 128,-1,20
 183 322 183 322 184 311 c 1,21,-1
 405 311 l 1,22,-1
 405 246 l 1,23,-1
 192 246 l 1,24,25
 204 190 204 190 229 150 c 128,-1,26
 254 110 254 110 294 89 c 128,-1,27
 334 68 334 68 388 68 c 0,28,29
 427 68 427 68 466.5 77.5 c 128,-1,30
 506 87 506 87 537 100 c 1,31,-1
 537 22 l 1,32,33
 506 9 506 9 468.5 -0.5 c 128,-1,34
 431 -10 431 -10 383 -10 c 0,35,36
 302 -10 302 -10 245 21 c 128,-1,37
 188 52 188 52 153 109.5 c 128,-1,38
 118 167 118 167 103 246 c 1,39,-1
 23 246 l 1,40,-1
 23 311 l 1,41,-1
 95 311 l 1,42,43
 94 323 94 323 94 331 c 128,-1,44
 94 339 94 339 94 352 c 0,45,46
 94 363 94 363 94.5 373.5 c 128,-1,47
 95 384 95 384 95 390 c 1,48,-1
 23 390 l 1,49,-1
 23 455 l 1,50,-1
 102 455 l 1,51,52
 115 537 115 537 150 597 c 128,-1,53
 185 657 185 657 243 690 c 128,-1,54
 301 723 301 723 380 723 c 0,0,1
EndSplineSet
EndChar

StartChar: uni2105
Encoding: 8453 8453 191
Width: 821
Flags: W
LayerCount: 2
Fore
SplineSet
640 714 m 1,0,-1
 244 0 l 1,1,-1
 167 0 l 1,2,-1
 563 714 l 1,3,-1
 640 714 l 1,0,-1
756 163 m 0,4,5
 756 82 756 82 713.5 38.5 c 128,-1,6
 671 -5 671 -5 600 -5 c 0,7,8
 535 -5 535 -5 491.5 38.5 c 128,-1,9
 448 82 448 82 448 163 c 0,10,11
 448 245 448 245 490.5 288 c 128,-1,12
 533 331 533 331 603 331 c 0,13,14
 668 331 668 331 712 288 c 128,-1,15
 756 245 756 245 756 163 c 0,4,5
517 163 m 0,16,17
 517 113 517 113 536.5 81 c 128,-1,18
 556 49 556 49 602 49 c 0,19,20
 647 49 647 49 666.5 81 c 128,-1,21
 686 113 686 113 686 163 c 0,22,23
 686 215 686 215 666.5 246 c 128,-1,24
 647 277 647 277 602 277 c 0,25,26
 556 277 556 277 536.5 246 c 128,-1,27
 517 215 517 215 517 163 c 0,16,17
236 383 m 0,28,29
 163 383 163 383 114 422.5 c 128,-1,30
 65 462 65 462 65 549 c 0,31,32
 65 611 65 611 88.5 648 c 128,-1,33
 112 685 112 685 152 702 c 128,-1,34
 192 719 192 719 240 719 c 0,35,36
 267 719 267 719 292 714 c 128,-1,37
 317 709 317 709 335 701 c 1,38,-1
 318 649 l 1,39,40
 301 655 301 655 279.5 659.5 c 128,-1,41
 258 664 258 664 239 664 c 0,42,43
 186 664 186 664 160 635.5 c 128,-1,44
 134 607 134 607 134 550 c 0,45,46
 134 494 134 494 159.5 465.5 c 128,-1,47
 185 437 185 437 237 437 c 0,48,49
 263 437 263 437 287 442 c 128,-1,50
 311 447 311 447 330 454 c 1,51,-1
 330 402 l 1,52,53
 311 393 311 393 285.5 388 c 128,-1,54
 260 383 260 383 236 383 c 0,28,29
EndSplineSet
EndChar

StartChar: uni2113
Encoding: 8467 8467 192
Width: 520
Flags: W
LayerCount: 2
Fore
SplineSet
311 58 m 0,0,1
 346 58 346 58 372.5 80.5 c 128,-1,2
 399 103 399 103 403 161 c 1,3,-1
 454 161 l 1,4,5
 452 107 452 107 434 68.5 c 128,-1,6
 416 30 416 30 383.5 10 c 128,-1,7
 351 -10 351 -10 302 -10 c 0,8,9
 261 -10 261 -10 226 6.5 c 128,-1,10
 191 23 191 23 169.5 61 c 128,-1,11
 148 99 148 99 148 164 c 2,12,-1
 148 277 l 1,13,14
 126 269 126 269 102 262 c 128,-1,15
 78 255 78 255 54 249 c 1,16,-1
 54 308 l 1,17,18
 80 315 80 315 103 322.5 c 128,-1,19
 126 330 126 330 148 337 c 1,20,-1
 148 576 l 2,21,22
 148 617 148 617 162.5 650.5 c 128,-1,23
 177 684 177 684 208.5 704 c 128,-1,24
 240 724 240 724 292 724 c 0,25,26
 350 724 350 724 384.5 685.5 c 128,-1,27
 419 647 419 647 419 577 c 0,28,29
 419 512 419 512 394.5 458.5 c 128,-1,30
 370 405 370 405 327 365 c 128,-1,31
 284 325 284 325 230 302 c 1,32,-1
 230 167 l 2,33,34
 230 117 230 117 249.5 87.5 c 128,-1,35
 269 58 269 58 311 58 c 0,0,1
352 574 m 0,36,37
 352 620 352 620 337 643 c 128,-1,38
 322 666 322 666 292 666 c 0,39,40
 254 666 254 666 242 640.5 c 128,-1,41
 230 615 230 615 230 574 c 2,42,-1
 230 366 l 1,43,44
 290 398 290 398 321 450 c 128,-1,45
 352 502 352 502 352 574 c 0,36,37
EndSplineSet
EndChar

StartChar: uni2116
Encoding: 8470 8470 193
Width: 1020
Flags: W
LayerCount: 2
Fore
SplineSet
95 0 m 1,0,-1
 95 714 l 1,1,-1
 196 714 l 1,2,-1
 521 126 l 1,3,-1
 525 126 l 1,4,5
 524 152 524 152 522 186 c 128,-1,6
 520 220 520 220 519 254.5 c 128,-1,7
 518 289 518 289 518 314 c 2,8,-1
 518 714 l 1,9,-1
 597 714 l 1,10,-1
 597 0 l 1,11,-1
 499 0 l 1,12,-1
 170 590 l 1,13,-1
 166 590 l 1,14,15
 168 564 168 564 169.5 528.5 c 128,-1,16
 171 493 171 493 172.5 458 c 128,-1,17
 174 423 174 423 174 396 c 2,18,-1
 174 0 l 1,19,-1
 95 0 l 1,0,-1
692 0 m 1,20,-1
 692 69 l 1,21,-1
 949 69 l 1,22,-1
 949 0 l 1,23,-1
 692 0 l 1,20,-1
820 134 m 0,24,25
 777 134 777 134 743.5 153.5 c 128,-1,26
 710 173 710 173 691 211 c 128,-1,27
 672 249 672 249 672 304 c 0,28,29
 672 386 672 386 712.5 429.5 c 128,-1,30
 753 473 753 473 823 473 c 0,31,32
 866 473 866 473 899.5 453.5 c 128,-1,33
 933 434 933 434 952.5 396.5 c 128,-1,34
 972 359 972 359 972 304 c 0,35,36
 972 222 972 222 931 178 c 128,-1,37
 890 134 890 134 820 134 c 0,24,25
822 192 m 256,38,39
 866 192 866 192 885 220.5 c 128,-1,40
 904 249 904 249 904 304 c 0,41,42
 904 360 904 360 885 386.5 c 128,-1,43
 866 413 866 413 822 413 c 0,44,45
 779 413 779 413 759 386.5 c 128,-1,46
 739 360 739 360 739 304 c 0,47,48
 739 249 739 249 758.5 220.5 c 128,-1,49
 778 192 778 192 822 192 c 256,38,39
EndSplineSet
EndChar

StartChar: trademark
Encoding: 8482 8482 194
Width: 773
Flags: W
LayerCount: 2
Fore
SplineSet
325 362 m 1,0,-1
 325 714 l 1,1,-1
 419 714 l 1,2,-1
 513 443 l 1,3,-1
 610 714 l 1,4,-1
 701 714 l 1,5,-1
 701 362 l 1,6,-1
 637 362 l 1,7,-1
 637 566 l 2,8,9
 637 574 637 574 638 597.5 c 128,-1,10
 639 621 639 621 640 633 c 1,11,-1
 636 633 l 1,12,-1
 535 362 l 1,13,-1
 482 362 l 1,14,-1
 386 633 l 1,15,-1
 382 633 l 1,16,17
 383 617 383 617 384 597 c 128,-1,18
 385 577 385 577 385 571 c 2,19,-1
 385 362 l 1,20,-1
 325 362 l 1,0,-1
118 362 m 1,21,-1
 118 660 l 1,22,-1
 17 660 l 1,23,-1
 17 714 l 1,24,-1
 283 714 l 1,25,-1
 283 660 l 1,26,-1
 181 660 l 1,27,-1
 181 362 l 1,28,-1
 118 362 l 1,21,-1
EndSplineSet
EndChar

StartChar: uni2126
Encoding: 8486 8486 195
Width: 717
GlyphClass: 2
Flags: W
AnchorPoint: "Anchor-7" 358 362 basechar 0
AnchorPoint: "Anchor-5" 358 0 basechar 0
AnchorPoint: "Anchor-4" 358 714 basechar 0
LayerCount: 2
Fore
SplineSet
25 0 m 1,0,-1
 25 79 l 1,1,-1
 183 79 l 1,2,3
 146 107 146 107 111 149.5 c 0,4,5
 76 192 76 192 53.5 251 c 0,6,7
 31 310 31 310 31 384 c 0,8,9
 31 482 31 482 69 559 c 0,10,11
 107 636 107 636 180 680.5 c 0,12,13
 253 725 253 725 358 725 c 0,14,15
 464 725 464 725 537 681 c 0,16,17
 610 637 610 637 648 560 c 0,18,19
 686 483 686 483 686 385 c 0,20,21
 686 310 686 310 664 251 c 0,22,23
 642 192 642 192 607.5 149.5 c 0,24,25
 573 107 573 107 535 79 c 1,26,-1
 692 79 l 1,27,-1
 692 0 l 1,28,-1
 424 0 l 1,29,-1
 424 72 l 1,30,31
 486 116 486 116 523 162 c 0,32,33
 560 208 560 208 576 261.5 c 0,34,35
 592 315 592 315 592 381 c 0,36,37
 592 457 592 457 567 517 c 0,38,39
 542 577 542 577 490.5 611.5 c 0,40,41
 439 646 439 646 358 646 c 0,42,43
 278 646 278 646 226.5 611.5 c 0,44,45
 175 577 175 577 150.5 517 c 0,46,47
 126 457 126 457 126 381 c 0,48,49
 126 315 126 315 142 261.5 c 0,50,51
 158 208 158 208 194.5 162.5 c 0,52,53
 231 117 231 117 293 72 c 1,54,-1
 293 0 l 1,55,-1
 25 0 l 1,0,-1
EndSplineSet
EndChar

StartChar: estimated
Encoding: 8494 8494 196
Width: 619
Flags: W
LayerCount: 2
Fore
SplineSet
309 -17 m 0,0,1
 225 -17 225 -17 167 22 c 128,-1,2
 109 61 109 61 79.5 124 c 128,-1,3
 50 187 50 187 50 259 c 256,4,5
 50 331 50 331 73 383 c 128,-1,6
 96 435 96 435 133.5 469 c 128,-1,7
 171 503 171 503 217 519 c 128,-1,8
 263 535 263 535 309 535 c 0,9,10
 383 535 383 535 441.5 501.5 c 128,-1,11
 500 468 500 468 534 406 c 128,-1,12
 568 344 568 344 568 259 c 1,13,-1
 164 259 l 1,14,-1
 164 85 l 1,15,16
 186 62 186 62 225 43.5 c 128,-1,17
 264 25 264 25 309 25 c 0,18,19
 382 25 382 25 425 55 c 128,-1,20
 468 85 468 85 502 139 c 1,21,-1
 537 119 l 1,22,23
 514 82 514 82 484.5 51 c 128,-1,24
 455 20 455 20 413 1.5 c 128,-1,25
 371 -17 371 -17 309 -17 c 0,0,1
455 436 m 1,26,27
 436 456 436 456 398 475 c 128,-1,28
 360 494 360 494 308 494 c 0,29,30
 259 494 259 494 223 477 c 128,-1,31
 187 460 187 460 164 437 c 1,32,-1
 164 301 l 1,33,-1
 455 301 l 1,34,-1
 455 436 l 1,26,27
EndSplineSet
EndChar

StartChar: oneeighth
Encoding: 8539 8539 197
Width: 830
Flags: W
LayerCount: 2
Fore
SplineSet
110 0 m 1,0,-1
 546 714 l 1,1,-1
 621 714 l 1,2,-1
 185 0 l 1,3,-1
 110 0 l 1,0,-1
164 562 m 2,4,5
 164 579 164 579 164.5 594 c 128,-1,6
 165 609 165 609 166 623 c 128,-1,7
 167 637 167 637 168 651 c 1,8,9
 158 642 158 642 146 631.5 c 128,-1,10
 134 621 134 621 121 612 c 2,11,-1
 67 573 l 1,12,-1
 32 622 l 1,13,-1
 162 714 l 1,14,-1
 235 714 l 1,15,-1
 235 286 l 1,16,-1
 164 286 l 1,17,-1
 164 562 l 2,4,5
599 48 m 0,18,19
 641 48 641 48 661 66 c 128,-1,20
 681 84 681 84 681 112 c 0,21,22
 681 141 681 141 658.5 160 c 128,-1,23
 636 179 636 179 598 192 c 2,24,-1
 585 197 l 1,25,26
 563 187 563 187 548 174.5 c 128,-1,27
 533 162 533 162 525.5 146.5 c 128,-1,28
 518 131 518 131 518 112 c 0,29,30
 518 84 518 84 538 66 c 128,-1,31
 558 48 558 48 599 48 c 0,18,19
601 -8 m 0,32,33
 528 -8 528 -8 489 24 c 128,-1,34
 450 56 450 56 450 112 c 0,35,36
 450 153 450 153 472.5 180 c 128,-1,37
 495 207 495 207 527 224 c 1,38,39
 496 244 496 244 479.5 265.5 c 128,-1,40
 463 287 463 287 463 325 c 0,41,42
 463 361 463 361 482 386 c 128,-1,43
 501 411 501 411 532.5 423.5 c 128,-1,44
 564 436 564 436 601 436 c 0,45,46
 656 436 656 436 696 409.5 c 128,-1,47
 736 383 736 383 736 328 c 0,48,49
 736 291 736 291 715 267 c 128,-1,50
 694 243 694 243 664 227 c 1,51,52
 703 211 703 211 726.5 183.5 c 128,-1,53
 750 156 750 156 750 115 c 0,54,55
 750 59 750 59 708.5 25.5 c 128,-1,56
 667 -8 667 -8 601 -8 c 0,32,33
602 254 m 1,57,58
 631 265 631 265 649.5 281.5 c 128,-1,59
 668 298 668 298 668 326 c 0,60,61
 668 352 668 352 650 366.5 c 128,-1,62
 632 381 632 381 600 381 c 256,63,64
 568 381 568 381 550 366.5 c 128,-1,65
 532 352 532 352 532 326 c 256,66,67
 532 300 532 300 552 283 c 128,-1,68
 572 266 572 266 602 254 c 1,57,58
EndSplineSet
EndChar

StartChar: threeeighths
Encoding: 8540 8540 198
Width: 830
Flags: W
LayerCount: 2
Fore
SplineSet
143 0 m 1,0,-1
 579 714 l 1,1,-1
 654 714 l 1,2,-1
 218 0 l 1,3,-1
 143 0 l 1,0,-1
148 278 m 0,4,5
 111 278 111 278 79 284.5 c 128,-1,6
 47 291 47 291 17 306 c 1,7,-1
 17 369 l 1,8,9
 51 353 51 353 85 344 c 128,-1,10
 119 335 119 335 149 335 c 0,11,12
 201 335 201 335 225 355.5 c 128,-1,13
 249 376 249 376 249 411 c 0,14,15
 249 447 249 447 220 463.5 c 128,-1,16
 191 480 191 480 139 480 c 2,17,-1
 82 480 l 1,18,-1
 82 535 l 1,19,-1
 139 535 l 2,20,21
 189 535 189 535 212.5 554.5 c 128,-1,22
 236 574 236 574 236 605 c 0,23,24
 236 637 236 637 215.5 651.5 c 128,-1,25
 195 666 195 666 166 666 c 0,26,27
 135 666 135 666 108.5 655.5 c 128,-1,28
 82 645 82 645 55 628 c 1,29,-1
 19 674 l 1,30,31
 50 697 50 697 84.5 710 c 128,-1,32
 119 723 119 723 165 723 c 0,33,34
 236 723 236 723 272 692 c 128,-1,35
 308 661 308 661 308 613 c 0,36,37
 308 573 308 573 286.5 547 c 128,-1,38
 265 521 265 521 235 511 c 1,39,-1
 235 508 l 1,40,41
 274 501 274 501 297.5 475.5 c 128,-1,42
 321 450 321 450 321 409 c 0,43,44
 321 351 321 351 279 314.5 c 128,-1,45
 237 278 237 278 148 278 c 0,4,5
611 48 m 0,46,47
 653 48 653 48 673 66 c 128,-1,48
 693 84 693 84 693 112 c 0,49,50
 693 141 693 141 670.5 160 c 128,-1,51
 648 179 648 179 610 192 c 2,52,-1
 597 197 l 1,53,54
 575 187 575 187 560 174.5 c 128,-1,55
 545 162 545 162 537.5 146.5 c 128,-1,56
 530 131 530 131 530 112 c 0,57,58
 530 84 530 84 550 66 c 128,-1,59
 570 48 570 48 611 48 c 0,46,47
613 -8 m 0,60,61
 540 -8 540 -8 501 24 c 128,-1,62
 462 56 462 56 462 112 c 0,63,64
 462 153 462 153 484.5 180 c 128,-1,65
 507 207 507 207 539 224 c 1,66,67
 508 244 508 244 491.5 265.5 c 128,-1,68
 475 287 475 287 475 325 c 0,69,70
 475 361 475 361 494 386 c 128,-1,71
 513 411 513 411 544.5 423.5 c 128,-1,72
 576 436 576 436 613 436 c 0,73,74
 668 436 668 436 708 409.5 c 128,-1,75
 748 383 748 383 748 328 c 0,76,77
 748 291 748 291 727 267 c 128,-1,78
 706 243 706 243 676 227 c 1,79,80
 715 211 715 211 738.5 183.5 c 128,-1,81
 762 156 762 156 762 115 c 0,82,83
 762 59 762 59 720.5 25.5 c 128,-1,84
 679 -8 679 -8 613 -8 c 0,60,61
614 254 m 1,85,86
 643 265 643 265 661.5 281.5 c 128,-1,87
 680 298 680 298 680 326 c 0,88,89
 680 352 680 352 662 366.5 c 128,-1,90
 644 381 644 381 612 381 c 256,91,92
 580 381 580 381 562 366.5 c 128,-1,93
 544 352 544 352 544 326 c 256,94,95
 544 300 544 300 564 283 c 128,-1,96
 584 266 584 266 614 254 c 1,85,86
EndSplineSet
EndChar

StartChar: fiveeighths
Encoding: 8541 8541 199
Width: 830
Flags: W
LayerCount: 2
Fore
SplineSet
139 0 m 1,0,-1
 575 714 l 1,1,-1
 650 714 l 1,2,-1
 214 0 l 1,3,-1
 139 0 l 1,0,-1
159 277 m 0,4,5
 127 277 127 277 92 283.5 c 128,-1,6
 57 290 57 290 35 303 c 1,7,-1
 35 370 l 1,8,9
 62 354 62 354 96.5 344.5 c 128,-1,10
 131 335 131 335 157 335 c 0,11,12
 202 335 202 335 228.5 355 c 128,-1,13
 255 375 255 375 255 418 c 0,14,15
 255 456 255 456 228.5 477 c 128,-1,16
 202 498 202 498 154 498 c 0,17,18
 128 498 128 498 109.5 494 c 128,-1,19
 91 490 91 490 76 486 c 1,20,-1
 45 506 l 1,21,-1
 61 714 l 1,22,-1
 304 714 l 1,23,-1
 304 659 l 1,24,-1
 119 659 l 1,25,-1
 110 550 l 1,26,27
 122 552 122 552 136.5 554 c 128,-1,28
 151 556 151 556 168 556 c 0,29,30
 235 556 235 556 280 522 c 128,-1,31
 325 488 325 488 325 424 c 0,32,33
 325 354 325 354 283 315.5 c 128,-1,34
 241 277 241 277 159 277 c 0,4,5
610 48 m 0,35,36
 652 48 652 48 672 66 c 128,-1,37
 692 84 692 84 692 112 c 0,38,39
 692 141 692 141 669.5 160 c 128,-1,40
 647 179 647 179 609 192 c 2,41,-1
 596 197 l 1,42,43
 574 187 574 187 559 174.5 c 128,-1,44
 544 162 544 162 536.5 146.5 c 128,-1,45
 529 131 529 131 529 112 c 0,46,47
 529 84 529 84 549 66 c 128,-1,48
 569 48 569 48 610 48 c 0,35,36
612 -8 m 0,49,50
 539 -8 539 -8 500 24 c 128,-1,51
 461 56 461 56 461 112 c 0,52,53
 461 153 461 153 483.5 180 c 128,-1,54
 506 207 506 207 538 224 c 1,55,56
 507 244 507 244 490.5 265.5 c 128,-1,57
 474 287 474 287 474 325 c 0,58,59
 474 361 474 361 493 386 c 128,-1,60
 512 411 512 411 543.5 423.5 c 128,-1,61
 575 436 575 436 612 436 c 0,62,63
 667 436 667 436 707 409.5 c 128,-1,64
 747 383 747 383 747 328 c 0,65,66
 747 291 747 291 726 267 c 128,-1,67
 705 243 705 243 675 227 c 1,68,69
 714 211 714 211 737.5 183.5 c 128,-1,70
 761 156 761 156 761 115 c 0,71,72
 761 59 761 59 719.5 25.5 c 128,-1,73
 678 -8 678 -8 612 -8 c 0,49,50
613 254 m 1,74,75
 642 265 642 265 660.5 281.5 c 128,-1,76
 679 298 679 298 679 326 c 0,77,78
 679 352 679 352 661 366.5 c 128,-1,79
 643 381 643 381 611 381 c 256,80,81
 579 381 579 381 561 366.5 c 128,-1,82
 543 352 543 352 543 326 c 256,83,84
 543 300 543 300 563 283 c 128,-1,85
 583 266 583 266 613 254 c 1,74,75
EndSplineSet
EndChar

StartChar: seveneighths
Encoding: 8542 8542 200
Width: 830
Flags: W
LayerCount: 2
Fore
SplineSet
97 0 m 1,0,-1
 533 714 l 1,1,-1
 608 714 l 1,2,-1
 172 0 l 1,3,-1
 97 0 l 1,0,-1
99 286 m 1,4,-1
 269 654 l 1,5,-1
 48 654 l 1,6,-1
 48 714 l 1,7,-1
 343 714 l 1,8,-1
 343 665 l 1,9,-1
 173 286 l 1,10,-1
 99 286 l 1,4,-1
607 48 m 0,11,12
 649 48 649 48 669 66 c 128,-1,13
 689 84 689 84 689 112 c 0,14,15
 689 141 689 141 666.5 160 c 128,-1,16
 644 179 644 179 606 192 c 2,17,-1
 593 197 l 1,18,19
 571 187 571 187 556 174.5 c 128,-1,20
 541 162 541 162 533.5 146.5 c 128,-1,21
 526 131 526 131 526 112 c 0,22,23
 526 84 526 84 546 66 c 128,-1,24
 566 48 566 48 607 48 c 0,11,12
609 -8 m 0,25,26
 536 -8 536 -8 497 24 c 128,-1,27
 458 56 458 56 458 112 c 0,28,29
 458 153 458 153 480.5 180 c 128,-1,30
 503 207 503 207 535 224 c 1,31,32
 504 244 504 244 487.5 265.5 c 128,-1,33
 471 287 471 287 471 325 c 0,34,35
 471 361 471 361 490 386 c 128,-1,36
 509 411 509 411 540.5 423.5 c 128,-1,37
 572 436 572 436 609 436 c 0,38,39
 664 436 664 436 704 409.5 c 128,-1,40
 744 383 744 383 744 328 c 0,41,42
 744 291 744 291 723 267 c 128,-1,43
 702 243 702 243 672 227 c 1,44,45
 711 211 711 211 734.5 183.5 c 128,-1,46
 758 156 758 156 758 115 c 0,47,48
 758 59 758 59 716.5 25.5 c 128,-1,49
 675 -8 675 -8 609 -8 c 0,25,26
610 254 m 1,50,51
 639 265 639 265 657.5 281.5 c 128,-1,52
 676 298 676 298 676 326 c 0,53,54
 676 352 676 352 658 366.5 c 128,-1,55
 640 381 640 381 608 381 c 256,56,57
 576 381 576 381 558 366.5 c 128,-1,58
 540 352 540 352 540 326 c 256,59,60
 540 300 540 300 560 283 c 128,-1,61
 580 266 580 266 610 254 c 1,50,51
EndSplineSet
EndChar

StartChar: cyrillicbreve
Encoding: 1114113 -1 201
Width: 0
GlyphClass: 4
Flags: W
AnchorPoint: "Anchor-13" 154 536 mark 0
AnchorPoint: "Anchor-8" 154 536 mark 0
AnchorPoint: "Anchor-4" 154 536 mark 0
LayerCount: 2
Fore
SplineSet
154 606 m 0,0,1
 87 606 87 606 47.5 641 c 128,-1,2
 8 676 8 676 0 740 c 1,3,-1
 78 740 l 1,4,5
 83 703 83 703 102.5 683.5 c 128,-1,6
 122 664 122 664 154 664 c 0,7,8
 187 664 187 664 206 683.5 c 128,-1,9
 225 703 225 703 230 740 c 1,10,-1
 308 740 l 1,11,12
 301 676 301 676 261.5 641 c 128,-1,13
 222 606 222 606 154 606 c 0,0,1
EndSplineSet
EndChar

StartChar: uni2074
Encoding: 8308 8308 202
Width: 350
Flags: W
LayerCount: 2
Fore
SplineSet
341 512 m 1,0,-1
 280 512 l 1,1,-1
 280 416 l 1,2,-1
 205 416 l 1,3,-1
 205 512 l 1,4,-1
 10 512 l 1,5,-1
 10 564 l 1,6,-1
 207 847 l 1,7,-1
 280 847 l 1,8,-1
 280 572 l 1,9,-1
 341 572 l 1,10,-1
 341 512 l 1,0,-1
205 665 m 2,11,12
 205 686 205 686 206 714 c 128,-1,13
 207 742 207 742 208 766 c 1,14,15
 203 755 203 755 187 730.5 c 128,-1,16
 171 706 171 706 160 689 c 2,17,-1
 80 572 l 1,18,-1
 205 572 l 1,19,-1
 205 665 l 2,11,12
EndSplineSet
EndChar

StartChar: uni2075
Encoding: 8309 8309 203
Width: 350
Flags: W
LayerCount: 2
Fore
SplineSet
299 844 m 1,0,-1
 299 789 l 1,1,-1
 114 789 l 1,2,-1
 105 680 l 1,3,4
 117 682 117 682 131.5 684 c 128,-1,5
 146 686 146 686 163 686 c 0,6,7
 230 686 230 686 275 652 c 128,-1,8
 320 618 320 618 320 554 c 0,9,10
 320 484 320 484 278 445.5 c 128,-1,11
 236 407 236 407 154 407 c 0,12,13
 122 407 122 407 87 413.5 c 128,-1,14
 52 420 52 420 30 433 c 1,15,-1
 30 500 l 1,16,17
 57 484 57 484 91.5 474.5 c 128,-1,18
 126 465 126 465 152 465 c 0,19,20
 197 465 197 465 223.5 485 c 128,-1,21
 250 505 250 505 250 548 c 0,22,23
 250 586 250 586 223.5 607 c 128,-1,24
 197 628 197 628 149 628 c 0,25,26
 123 628 123 628 104.5 624 c 128,-1,27
 86 620 86 620 71 616 c 1,28,-1
 40 636 l 1,29,-1
 56 844 l 1,30,-1
 299 844 l 1,0,-1
EndSplineSet
EndChar

StartChar: uni2077
Encoding: 8311 8311 204
Width: 350
Flags: W
LayerCount: 2
Fore
SplineSet
79 416 m 1,0,-1
 249 784 l 1,1,-1
 28 784 l 1,2,-1
 28 844 l 1,3,-1
 323 844 l 1,4,-1
 323 795 l 1,5,-1
 153 416 l 1,6,-1
 79 416 l 1,0,-1
EndSplineSet
EndChar

StartChar: uni2078
Encoding: 8312 8312 205
Width: 350
Flags: W
LayerCount: 2
Fore
SplineSet
176 852 m 0,0,1
 231 852 231 852 271 825.5 c 128,-1,2
 311 799 311 799 311 744 c 0,3,4
 311 707 311 707 290 683 c 128,-1,5
 269 659 269 659 239 643 c 1,6,7
 278 627 278 627 301.5 599.5 c 128,-1,8
 325 572 325 572 325 531 c 0,9,10
 325 475 325 475 283.5 441.5 c 128,-1,11
 242 408 242 408 176 408 c 0,12,13
 127 408 127 408 93.5 422.5 c 128,-1,14
 60 437 60 437 42.5 464 c 128,-1,15
 25 491 25 491 25 528 c 0,16,17
 25 556 25 556 35.5 576.5 c 128,-1,18
 46 597 46 597 63.5 613 c 128,-1,19
 81 629 81 629 102 640 c 1,20,21
 71 660 71 660 54.5 681.5 c 128,-1,22
 38 703 38 703 38 741 c 0,23,24
 38 777 38 777 57 801.5 c 128,-1,25
 76 826 76 826 107.5 839 c 128,-1,26
 139 852 139 852 176 852 c 0,0,1
160 613 m 1,27,28
 138 603 138 603 123 590.5 c 128,-1,29
 108 578 108 578 100.5 562.5 c 128,-1,30
 93 547 93 547 93 528 c 0,31,32
 93 500 93 500 113 482 c 128,-1,33
 133 464 133 464 174 464 c 0,34,35
 216 464 216 464 236 482 c 128,-1,36
 256 500 256 500 256 528 c 0,37,38
 256 557 256 557 233.5 576 c 128,-1,39
 211 595 211 595 173 608 c 2,40,-1
 160 613 l 1,27,28
175 797 m 256,41,42
 143 797 143 797 125 782.5 c 128,-1,43
 107 768 107 768 107 742 c 256,44,45
 107 716 107 716 127 699 c 128,-1,46
 147 682 147 682 177 670 c 1,47,48
 206 681 206 681 224.5 697.5 c 128,-1,49
 243 714 243 714 243 742 c 0,50,51
 243 768 243 768 225 782.5 c 128,-1,52
 207 797 207 797 175 797 c 256,41,42
EndSplineSet
EndChar

StartChar: uniFFFC
Encoding: 65532 65532 219
Width: 1000
Flags: W
LayerCount: 2
Fore
SplineSet
41 593 m 1,0,-1
 41 741 l 1,1,-1
 189 741 l 1,2,-1
 189 687 l 1,3,-1
 95 687 l 1,4,-1
 95 593 l 1,5,-1
 41 593 l 1,0,-1
821 687 m 1,6,-1
 821 741 l 1,7,-1
 969 741 l 1,8,-1
 969 593 l 1,9,-1
 916 593 l 1,10,-1
 916 687 l 1,11,-1
 821 687 l 1,6,-1
41 -187 m 1,12,-1
 41 -39 l 1,13,-1
 95 -39 l 1,14,-1
 95 -134 l 1,15,-1
 189 -134 l 1,16,-1
 189 -187 l 1,17,-1
 41 -187 l 1,12,-1
821 -187 m 1,18,-1
 821 -134 l 1,19,-1
 916 -134 l 1,20,-1
 916 -39 l 1,21,-1
 969 -39 l 1,22,-1
 969 -187 l 1,23,-1
 821 -187 l 1,18,-1
630 -187 m 1,24,-1
 630 -134 l 1,25,-1
 763 -134 l 1,26,-1
 763 -187 l 1,27,-1
 630 -187 l 1,24,-1
248 -187 m 1,28,-1
 248 -134 l 1,29,-1
 380 -134 l 1,30,-1
 380 -187 l 1,31,-1
 248 -187 l 1,28,-1
248 687 m 1,32,-1
 248 741 l 1,33,-1
 380 741 l 1,34,-1
 380 687 l 1,35,-1
 248 687 l 1,32,-1
969 19 m 1,36,-1
 916 19 l 1,37,-1
 916 151 l 1,38,-1
 969 151 l 1,39,-1
 969 19 l 1,36,-1
969 402 m 1,40,-1
 916 402 l 1,41,-1
 916 534 l 1,42,-1
 969 534 l 1,43,-1
 969 402 l 1,40,-1
439 -187 m 1,44,-1
 439 -134 l 1,45,-1
 572 -134 l 1,46,-1
 572 -187 l 1,47,-1
 439 -187 l 1,44,-1
95 19 m 1,48,-1
 41 19 l 1,49,-1
 41 151 l 1,50,-1
 95 151 l 1,51,-1
 95 19 l 1,48,-1
439 687 m 1,52,-1
 439 741 l 1,53,-1
 572 741 l 1,54,-1
 572 687 l 1,55,-1
 439 687 l 1,52,-1
630 687 m 1,56,-1
 630 741 l 1,57,-1
 763 741 l 1,58,-1
 763 687 l 1,59,-1
 630 687 l 1,56,-1
95 210 m 1,60,-1
 41 210 l 1,61,-1
 41 343 l 1,62,-1
 95 343 l 1,63,-1
 95 210 l 1,60,-1
95 402 m 1,64,-1
 41 402 l 1,65,-1
 41 534 l 1,66,-1
 95 534 l 1,67,-1
 95 402 l 1,64,-1
969 210 m 1,68,-1
 916 210 l 1,69,-1
 916 343 l 1,70,-1
 969 343 l 1,71,-1
 969 210 l 1,68,-1
422 307 m 0,72,73
 422 241 422 241 391 200.5 c 128,-1,74
 360 160 360 160 294 160 c 256,75,76
 228 160 228 160 197 200.5 c 128,-1,77
 166 241 166 241 166 307 c 0,78,79
 166 374 166 374 197 414 c 128,-1,80
 228 454 228 454 294 454 c 256,81,82
 360 454 360 454 391 414 c 128,-1,83
 422 374 422 374 422 307 c 0,72,73
228 307 m 256,84,85
 228 262 228 262 244 236.5 c 128,-1,86
 260 211 260 211 294 211 c 0,87,88
 329 211 329 211 344.5 236.5 c 128,-1,89
 360 262 360 262 360 307 c 256,90,91
 360 352 360 352 344.5 377.5 c 128,-1,92
 329 403 329 403 294 403 c 0,93,94
 260 403 260 403 244 377.5 c 128,-1,95
 228 352 228 352 228 307 c 256,84,85
547 450 m 2,96,97
 600 450 600 450 627.5 434 c 128,-1,98
 655 418 655 418 655 377 c 0,99,100
 655 353 655 353 643.5 337 c 128,-1,101
 632 321 632 321 611 317 c 1,102,-1
 611 313 l 1,103,104
 633 309 633 309 648 295 c 128,-1,105
 663 281 663 281 663 247 c 0,106,107
 663 208 663 208 636.5 186 c 128,-1,108
 610 164 610 164 564 164 c 2,109,-1
 463 164 l 1,110,-1
 463 450 l 1,111,-1
 547 450 l 2,96,97
555 337 m 2,112,113
 578 337 578 337 586.5 345 c 128,-1,114
 595 353 595 353 595 369 c 0,115,116
 595 386 595 386 585 393 c 128,-1,117
 575 400 575 400 552 400 c 2,118,-1
 523 400 l 1,119,-1
 523 337 l 1,120,-1
 555 337 l 2,112,113
523 289 m 1,121,-1
 523 214 l 1,122,-1
 559 214 l 2,123,124
 583 214 583 214 592 224.5 c 128,-1,125
 601 235 601 235 601 253 c 0,126,127
 601 269 601 269 592 279 c 128,-1,128
 583 289 583 289 557 289 c 2,129,-1
 523 289 l 1,121,-1
728 161 m 0,130,131
 704 161 704 161 689 166 c 1,132,-1
 689 216 l 1,133,134
 697 215 697 215 704.5 213.5 c 128,-1,135
 712 212 712 212 722 212 c 0,136,137
 740 212 740 212 752 220.5 c 128,-1,138
 764 229 764 229 764 254 c 2,139,-1
 764 450 l 1,140,-1
 825 450 l 1,141,-1
 825 256 l 2,142,143
 825 207 825 207 798 184 c 128,-1,144
 771 161 771 161 728 161 c 0,130,131
EndSplineSet
EndChar

StartChar: uniFFFD
Encoding: 65533 65533 220
Width: 1000
Flags: W
LayerCount: 2
Fore
SplineSet
499 760 m 1,0,-1
 958 302 l 1,1,-1
 499 -156 l 1,2,-1
 41 302 l 1,3,-1
 499 760 l 1,0,-1
531 202 m 2,4,5
 531 227 531 227 541 242 c 128,-1,6
 551 257 551 257 584 282 c 0,7,8
 613 305 613 305 632 325.5 c 128,-1,9
 651 346 651 346 660.5 370 c 128,-1,10
 670 394 670 394 670 427 c 0,11,12
 670 494 670 494 624 531 c 128,-1,13
 578 568 578 568 498 568 c 0,14,15
 470 568 470 568 440.5 561.5 c 128,-1,16
 411 555 411 555 384 544 c 128,-1,17
 357 533 357 533 334 520 c 1,18,-1
 374 433 l 1,19,20
 407 450 407 450 438 461 c 128,-1,21
 469 472 469 472 496 472 c 0,22,23
 527 472 527 472 542 458 c 128,-1,24
 557 444 557 444 557 421 c 0,25,26
 557 393 557 393 544 375.5 c 128,-1,27
 531 358 531 358 498 332 c 0,28,29
 461 302 461 302 444.5 274.5 c 128,-1,30
 428 247 428 247 428 208 c 2,31,-1
 428 179 l 1,32,-1
 531 179 l 1,33,-1
 531 202 l 2,4,5
415 45 m 0,34,35
 415 10 415 10 435 -5.5 c 128,-1,36
 455 -21 455 -21 484 -21 c 0,37,38
 511 -21 511 -21 531.5 -5.5 c 128,-1,39
 552 10 552 10 552 45 c 0,40,41
 552 82 552 82 531.5 97 c 128,-1,42
 511 112 511 112 484 112 c 0,43,44
 455 112 455 112 435 97 c 128,-1,45
 415 82 415 82 415 45 c 0,34,35
EndSplineSet
EndChar

StartChar: uni1EB1
Encoding: 7857 7857 221
Width: 561
GlyphClass: 2
Flags: W
AnchorPoint: "Anchor-7" 263 267 basechar 0
AnchorPoint: "Anchor-6" 511 536 basechar 0
AnchorPoint: "Anchor-5" 281 0 basechar 0
AnchorPoint: "Anchor-4" 281 844 basechar 0
LayerCount: 2
Fore
SplineSet
426 737 m 1,0,1
 421 677 421 677 384.5 641.5 c 128,-1,2
 348 606 348 606 277 606 c 256,3,4
 206 606 206 606 171 641 c 128,-1,5
 136 676 136 676 131 737 c 1,6,-1
 184 737 l 1,7,8
 189 696 189 696 212 684 c 128,-1,9
 235 672 235 672 278 672 c 0,10,11
 316 672 316 672 342 684.5 c 128,-1,12
 368 697 368 697 373 737 c 1,13,-1
 426 737 l 1,0,1
244 844 m 1,14,15
 259 813 259 813 272.5 791 c 128,-1,16
 286 769 286 769 305 744 c 1,17,-1
 305 733 l 1,18,-1
 257 733 l 1,19,20
 240 747 240 747 222.5 763 c 128,-1,21
 205 779 205 779 188.5 797 c 128,-1,22
 172 815 172 815 157 834 c 1,23,-1
 157 844 l 1,24,-1
 244 844 l 1,14,15
288 545 m 0,25,26
 386 545 386 545 433 502 c 128,-1,27
 480 459 480 459 480 365 c 2,28,-1
 480 0 l 1,29,-1
 416 0 l 1,30,-1
 399 76 l 1,31,-1
 395 76 l 1,32,33
 372 47 372 47 347.5 27.5 c 128,-1,34
 323 8 323 8 291.5 -1 c 128,-1,35
 260 -10 260 -10 215 -10 c 0,36,37
 167 -10 167 -10 128.5 7 c 128,-1,38
 90 24 90 24 68 59.5 c 128,-1,39
 46 95 46 95 46 149 c 0,40,41
 46 229 46 229 109 272.5 c 128,-1,42
 172 316 172 316 303 320 c 2,43,-1
 394 323 l 1,44,-1
 394 355 l 2,45,46
 394 422 394 422 365 448 c 128,-1,47
 336 474 336 474 283 474 c 0,48,49
 241 474 241 474 203 461.5 c 128,-1,50
 165 449 165 449 132 433 c 1,51,-1
 105 499 l 1,52,53
 140 518 140 518 188 531.5 c 128,-1,54
 236 545 236 545 288 545 c 0,25,26
314 259 m 2,55,56
 214 255 214 255 175.5 227 c 128,-1,57
 137 199 137 199 137 148 c 0,58,59
 137 103 137 103 164.5 82 c 128,-1,60
 192 61 192 61 235 61 c 0,61,62
 303 61 303 61 348 98.5 c 128,-1,63
 393 136 393 136 393 214 c 2,64,-1
 393 262 l 1,65,-1
 314 259 l 2,55,56
EndSplineSet
EndChar

StartChar: uni1EB2
Encoding: 7858 7858 222
Width: 639
GlyphClass: 2
Flags: W
AnchorPoint: "Anchor-7" 319 358 basechar 0
AnchorPoint: "Anchor-6" 519 714 basechar 0
AnchorPoint: "Anchor-5" 324 0 basechar 0
AnchorPoint: "Anchor-4" 318 1043 basechar 0
LayerCount: 2
Fore
SplineSet
467 902 m 1,0,1
 462 842 462 842 425.5 806.5 c 128,-1,2
 389 771 389 771 318 771 c 256,3,4
 247 771 247 771 212 806 c 128,-1,5
 177 841 177 841 172 902 c 1,6,-1
 225 902 l 1,7,8
 230 861 230 861 253 849 c 128,-1,9
 276 837 276 837 319 837 c 0,10,11
 357 837 357 837 383 849.5 c 128,-1,12
 409 862 409 862 414 902 c 1,13,-1
 467 902 l 1,0,1
297 1043 m 0,14,15
 342 1043 342 1043 366.5 1026 c 128,-1,16
 391 1009 391 1009 391 974 c 0,17,18
 391 946 391 946 373 931.5 c 128,-1,19
 355 917 355 917 330 911 c 1,20,-1
 327 891 l 1,21,-1
 286 891 l 1,22,-1
 281 936 l 1,23,24
 309 941 309 941 324 948.5 c 128,-1,25
 339 956 339 956 339 973 c 256,26,27
 339 990 339 990 325.5 996.5 c 128,-1,28
 312 1003 312 1003 292 1003 c 0,29,30
 281 1003 281 1003 271.5 1002 c 128,-1,31
 262 1001 262 1001 256 1000 c 1,32,-1
 256 1039 l 1,33,34
 263 1041 263 1041 273 1042 c 128,-1,35
 283 1043 283 1043 297 1043 c 0,14,15
545 0 m 1,36,-1
 459 221 l 1,37,-1
 176 221 l 1,38,-1
 91 0 l 1,39,-1
 0 0 l 1,40,-1
 279 717 l 1,41,-1
 360 717 l 1,42,-1
 638 0 l 1,43,-1
 545 0 l 1,36,-1
352 517 m 2,44,45
 349 525 349 525 342 546 c 128,-1,46
 335 567 335 567 328.5 589.5 c 128,-1,47
 322 612 322 612 318 624 c 1,48,49
 313 604 313 604 307.5 583.5 c 128,-1,50
 302 563 302 563 296.5 546 c 128,-1,51
 291 529 291 529 287 517 c 2,52,-1
 206 301 l 1,53,-1
 432 301 l 1,54,-1
 352 517 l 2,44,45
EndSplineSet
EndChar

StartChar: uni1EB3
Encoding: 7859 7859 223
Width: 561
GlyphClass: 2
Flags: W
AnchorPoint: "Anchor-7" 263 267 basechar 0
AnchorPoint: "Anchor-6" 511 536 basechar 0
AnchorPoint: "Anchor-5" 281 0 basechar 0
AnchorPoint: "Anchor-4" 281 878 basechar 0
LayerCount: 2
Fore
SplineSet
430 737 m 1,0,1
 425 677 425 677 388.5 641.5 c 128,-1,2
 352 606 352 606 281 606 c 256,3,4
 210 606 210 606 175 641 c 128,-1,5
 140 676 140 676 135 737 c 1,6,-1
 188 737 l 1,7,8
 193 696 193 696 216 684 c 128,-1,9
 239 672 239 672 282 672 c 0,10,11
 320 672 320 672 346 684.5 c 128,-1,12
 372 697 372 697 377 737 c 1,13,-1
 430 737 l 1,0,1
260 878 m 0,14,15
 305 878 305 878 329.5 861 c 128,-1,16
 354 844 354 844 354 809 c 0,17,18
 354 781 354 781 336 766.5 c 128,-1,19
 318 752 318 752 293 746 c 1,20,-1
 290 726 l 1,21,-1
 249 726 l 1,22,-1
 244 771 l 1,23,24
 272 776 272 776 287 783.5 c 128,-1,25
 302 791 302 791 302 808 c 256,26,27
 302 825 302 825 288.5 831.5 c 128,-1,28
 275 838 275 838 255 838 c 0,29,30
 244 838 244 838 234.5 837 c 128,-1,31
 225 836 225 836 219 835 c 1,32,-1
 219 874 l 1,33,34
 226 876 226 876 236 877 c 128,-1,35
 246 878 246 878 260 878 c 0,14,15
288 545 m 0,36,37
 386 545 386 545 433 502 c 128,-1,38
 480 459 480 459 480 365 c 2,39,-1
 480 0 l 1,40,-1
 416 0 l 1,41,-1
 399 76 l 1,42,-1
 395 76 l 1,43,44
 372 47 372 47 347.5 27.5 c 128,-1,45
 323 8 323 8 291.5 -1 c 128,-1,46
 260 -10 260 -10 215 -10 c 0,47,48
 167 -10 167 -10 128.5 7 c 128,-1,49
 90 24 90 24 68 59.5 c 128,-1,50
 46 95 46 95 46 149 c 0,51,52
 46 229 46 229 109 272.5 c 128,-1,53
 172 316 172 316 303 320 c 2,54,-1
 394 323 l 1,55,-1
 394 355 l 2,56,57
 394 422 394 422 365 448 c 128,-1,58
 336 474 336 474 283 474 c 0,59,60
 241 474 241 474 203 461.5 c 128,-1,61
 165 449 165 449 132 433 c 1,62,-1
 105 499 l 1,63,64
 140 518 140 518 188 531.5 c 128,-1,65
 236 545 236 545 288 545 c 0,36,37
314 259 m 2,66,67
 214 255 214 255 175.5 227 c 128,-1,68
 137 199 137 199 137 148 c 0,69,70
 137 103 137 103 164.5 82 c 128,-1,71
 192 61 192 61 235 61 c 0,72,73
 303 61 303 61 348 98.5 c 128,-1,74
 393 136 393 136 393 214 c 2,75,-1
 393 262 l 1,76,-1
 314 259 l 2,66,67
EndSplineSet
EndChar

StartChar: uni1EB4
Encoding: 7860 7860 224
Width: 639
GlyphClass: 2
Flags: W
AnchorPoint: "Anchor-7" 319 358 basechar 0
AnchorPoint: "Anchor-6" 519 714 basechar 0
AnchorPoint: "Anchor-5" 324 0 basechar 0
AnchorPoint: "Anchor-4" 318 1046 basechar 0
LayerCount: 2
Fore
SplineSet
464 900 m 1,0,1
 459 841 459 841 422.5 806 c 128,-1,2
 386 771 386 771 315 771 c 256,3,4
 244 771 244 771 209 805 c 128,-1,5
 174 839 174 839 169 900 c 1,6,-1
 222 900 l 1,7,8
 227 860 227 860 250 848.5 c 128,-1,9
 273 837 273 837 316 837 c 0,10,11
 354 837 354 837 380 849 c 128,-1,12
 406 861 406 861 411 900 c 1,13,-1
 464 900 l 1,0,1
478 1046 m 1,14,15
 475 1016 475 1016 463.5 992 c 128,-1,16
 452 968 452 968 432.5 954 c 128,-1,17
 413 940 413 940 386 940 c 0,18,19
 368 940 368 940 351 947 c 128,-1,20
 334 954 334 954 317.5 963 c 128,-1,21
 301 972 301 972 285.5 979 c 128,-1,22
 270 986 270 986 256 986 c 0,23,24
 237 986 237 986 226.5 974.5 c 128,-1,25
 216 963 216 963 209 939 c 1,26,-1
 164 939 l 1,27,28
 169 986 169 986 192.5 1015.5 c 128,-1,29
 216 1045 216 1045 256 1045 c 0,30,31
 274 1045 274 1045 292 1038 c 128,-1,32
 310 1031 310 1031 326.5 1022 c 128,-1,33
 343 1013 343 1013 358.5 1006 c 128,-1,34
 374 999 374 999 387 999 c 0,35,36
 407 999 407 999 417 1010.5 c 128,-1,37
 427 1022 427 1022 433 1046 c 1,38,-1
 478 1046 l 1,14,15
545 0 m 1,39,-1
 459 221 l 1,40,-1
 176 221 l 1,41,-1
 91 0 l 1,42,-1
 0 0 l 1,43,-1
 279 717 l 1,44,-1
 360 717 l 1,45,-1
 638 0 l 1,46,-1
 545 0 l 1,39,-1
352 517 m 2,47,48
 349 525 349 525 342 546 c 128,-1,49
 335 567 335 567 328.5 589.5 c 128,-1,50
 322 612 322 612 318 624 c 1,51,52
 313 604 313 604 307.5 583.5 c 128,-1,53
 302 563 302 563 296.5 546 c 128,-1,54
 291 529 291 529 287 517 c 2,55,-1
 206 301 l 1,56,-1
 432 301 l 1,57,-1
 352 517 l 2,47,48
EndSplineSet
EndChar

StartChar: uni1EB5
Encoding: 7861 7861 225
Width: 561
GlyphClass: 2
Flags: W
AnchorPoint: "Anchor-7" 263 267 basechar 0
AnchorPoint: "Anchor-6" 511 536 basechar 0
AnchorPoint: "Anchor-5" 281 0 basechar 0
AnchorPoint: "Anchor-4" 281 881 basechar 0
LayerCount: 2
Fore
SplineSet
426 735 m 1,0,1
 421 676 421 676 384.5 641 c 128,-1,2
 348 606 348 606 277 606 c 256,3,4
 206 606 206 606 171 640 c 128,-1,5
 136 674 136 674 131 735 c 1,6,-1
 184 735 l 1,7,8
 189 695 189 695 212 683.5 c 128,-1,9
 235 672 235 672 278 672 c 0,10,11
 316 672 316 672 342 684 c 128,-1,12
 368 696 368 696 373 735 c 1,13,-1
 426 735 l 1,0,1
440 881 m 1,14,15
 437 851 437 851 425.5 827 c 128,-1,16
 414 803 414 803 394.5 789 c 128,-1,17
 375 775 375 775 348 775 c 0,18,19
 330 775 330 775 313 782 c 128,-1,20
 296 789 296 789 279.5 798 c 128,-1,21
 263 807 263 807 247.5 814 c 128,-1,22
 232 821 232 821 218 821 c 0,23,24
 199 821 199 821 188.5 809.5 c 128,-1,25
 178 798 178 798 171 774 c 1,26,-1
 126 774 l 1,27,28
 131 821 131 821 154.5 850.5 c 128,-1,29
 178 880 178 880 218 880 c 0,30,31
 236 880 236 880 254 873 c 128,-1,32
 272 866 272 866 288.5 857 c 128,-1,33
 305 848 305 848 320.5 841 c 128,-1,34
 336 834 336 834 349 834 c 0,35,36
 369 834 369 834 379 845.5 c 128,-1,37
 389 857 389 857 395 881 c 1,38,-1
 440 881 l 1,14,15
288 545 m 0,39,40
 386 545 386 545 433 502 c 128,-1,41
 480 459 480 459 480 365 c 2,42,-1
 480 0 l 1,43,-1
 416 0 l 1,44,-1
 399 76 l 1,45,-1
 395 76 l 1,46,47
 372 47 372 47 347.5 27.5 c 128,-1,48
 323 8 323 8 291.5 -1 c 128,-1,49
 260 -10 260 -10 215 -10 c 0,50,51
 167 -10 167 -10 128.5 7 c 128,-1,52
 90 24 90 24 68 59.5 c 128,-1,53
 46 95 46 95 46 149 c 0,54,55
 46 229 46 229 109 272.5 c 128,-1,56
 172 316 172 316 303 320 c 2,57,-1
 394 323 l 1,58,-1
 394 355 l 2,59,60
 394 422 394 422 365 448 c 128,-1,61
 336 474 336 474 283 474 c 0,62,63
 241 474 241 474 203 461.5 c 128,-1,64
 165 449 165 449 132 433 c 1,65,-1
 105 499 l 1,66,67
 140 518 140 518 188 531.5 c 128,-1,68
 236 545 236 545 288 545 c 0,39,40
314 259 m 2,69,70
 214 255 214 255 175.5 227 c 128,-1,71
 137 199 137 199 137 148 c 0,72,73
 137 103 137 103 164.5 82 c 128,-1,74
 192 61 192 61 235 61 c 0,75,76
 303 61 303 61 348 98.5 c 128,-1,77
 393 136 393 136 393 214 c 2,78,-1
 393 262 l 1,79,-1
 314 259 l 2,69,70
EndSplineSet
EndChar

StartChar: uni1EB6
Encoding: 7862 7862 226
Width: 561
GlyphClass: 2
Flags: W
AnchorPoint: "Anchor-7" 319 358 basechar 0
AnchorPoint: "Anchor-6" 519 714 basechar 0
AnchorPoint: "Anchor-5" 324 -176 basechar 0
AnchorPoint: "Anchor-4" 318 918 basechar 0
LayerCount: 2
Fore
SplineSet
323 -176 m 256,0,1
 302 -176 302 -176 286.5 -162 c 0,2,3
 271 -148 271 -148 271 -120 c 0,4,5
 271 -91 271 -91 286.5 -77.5 c 0,6,7
 302 -64 302 -64 323 -64 c 256,8,9
 344 -64 344 -64 359.5 -77.5 c 0,10,11
 375 -91 375 -91 375 -120 c 0,12,13
 375 -148 375 -148 359.5 -162 c 0,14,15
 344 -176 344 -176 323 -176 c 256,0,1
478 918 m 1,16,17
 475 878 475 878 455.5 848 c 0,18,19
 436 818 436 818 402 801 c 0,20,21
 368 784 368 784 320 784 c 0,22,23
 246 784 246 784 208.5 820.5 c 0,24,25
 171 857 171 857 167 918 c 1,26,-1
 221 918 l 1,27,28
 224 891 224 891 236.5 877.5 c 0,29,30
 249 864 249 864 270.5 859.5 c 0,31,32
 292 855 292 855 322 855 c 0,33,34
 348 855 348 855 369.5 860 c 0,35,36
 391 865 391 865 405.5 878.5 c 0,37,38
 420 892 420 892 423 918 c 1,39,-1
 478 918 l 1,16,17
545 0 m 1,40,-1
 459 221 l 1,41,-1
 176 221 l 1,42,-1
 91 0 l 1,43,-1
 0 0 l 1,44,-1
 279 717 l 1,45,-1
 360 717 l 1,46,-1
 638 0 l 1,47,-1
 545 0 l 1,40,-1
352 517 m 2,48,49
 349 525 349 525 342 546 c 0,50,51
 335 567 335 567 328.5 589.5 c 0,52,53
 322 612 322 612 318 624 c 1,54,55
 313 604 313 604 307.5 583.5 c 0,56,57
 302 563 302 563 296.5 546 c 0,58,59
 291 529 291 529 287 517 c 2,60,-1
 206 301 l 1,61,-1
 432 301 l 1,62,-1
 352 517 l 2,48,49
EndSplineSet
EndChar

StartChar: uni1EB7
Encoding: 7863 7863 227
Width: 561
GlyphClass: 2
Flags: W
AnchorPoint: "Anchor-7" 263 267 basechar 0
AnchorPoint: "Anchor-6" 511 536 basechar 0
AnchorPoint: "Anchor-5" 281 -176 basechar 0
AnchorPoint: "Anchor-4" 281 740 basechar 0
LayerCount: 2
Fore
SplineSet
263 -176 m 256,0,1
 242 -176 242 -176 226.5 -162 c 0,2,3
 211 -148 211 -148 211 -120 c 0,4,5
 211 -91 211 -91 226.5 -77.5 c 0,6,7
 242 -64 242 -64 263 -64 c 256,8,9
 284 -64 284 -64 299.5 -77.5 c 0,10,11
 315 -91 315 -91 315 -120 c 0,12,13
 315 -148 315 -148 299.5 -162 c 0,14,15
 284 -176 284 -176 263 -176 c 256,0,1
441 740 m 1,16,17
 438 700 438 700 418.5 670 c 0,18,19
 399 640 399 640 365 623 c 0,20,21
 331 606 331 606 283 606 c 0,22,23
 209 606 209 606 171.5 642.5 c 0,24,25
 134 679 134 679 130 740 c 1,26,-1
 184 740 l 1,27,28
 187 713 187 713 199.5 699.5 c 0,29,30
 212 686 212 686 233.5 681.5 c 0,31,32
 255 677 255 677 285 677 c 0,33,34
 311 677 311 677 332.5 682 c 0,35,36
 354 687 354 687 368.5 700.5 c 0,37,38
 383 714 383 714 386 740 c 1,39,-1
 441 740 l 1,16,17
EndSplineSet
Refer: 68 97 N 1 0 0 1 0 0 3
EndChar

StartChar: uni1EB8
Encoding: 7864 7864 228
Width: 447
GlyphClass: 2
Flags: W
AnchorPoint: "Anchor-7" 296 357 basechar 0
AnchorPoint: "Anchor-6" 536 714 basechar 0
AnchorPoint: "Anchor-5" 300 -176 basechar 0
AnchorPoint: "Anchor-4" 305 714 basechar 0
LayerCount: 2
Fore
SplineSet
299 -176 m 256,0,1
 278 -176 278 -176 262.5 -162 c 0,2,3
 247 -148 247 -148 247 -120 c 0,4,5
 247 -91 247 -91 262.5 -77.5 c 0,6,7
 278 -64 278 -64 299 -64 c 256,8,9
 320 -64 320 -64 335.5 -77.5 c 0,10,11
 351 -91 351 -91 351 -120 c 0,12,13
 351 -148 351 -148 335.5 -162 c 0,14,15
 320 -176 320 -176 299 -176 c 256,0,1
EndSplineSet
Refer: 40 69 N 1 0 0 1 0 0 3
EndChar

StartChar: uni1EB9
Encoding: 7865 7865 229
Width: 564
GlyphClass: 2
Flags: W
AnchorPoint: "Anchor-7" 284 268 basechar 0
AnchorPoint: "Anchor-6" 544 536 basechar 0
AnchorPoint: "Anchor-5" 301 -176 basechar 0
AnchorPoint: "Anchor-4" 285 536 basechar 0
LayerCount: 2
Fore
SplineSet
300 -176 m 256,0,1
 279 -176 279 -176 263.5 -162 c 0,2,3
 248 -148 248 -148 248 -120 c 0,4,5
 248 -91 248 -91 263.5 -77.5 c 0,6,7
 279 -64 279 -64 300 -64 c 256,8,9
 321 -64 321 -64 336.5 -77.5 c 0,10,11
 352 -91 352 -91 352 -120 c 0,12,13
 352 -148 352 -148 336.5 -162 c 0,14,15
 321 -176 321 -176 300 -176 c 256,0,1
EndSplineSet
Refer: 72 101 N 1 0 0 1 0 0 3
MultipleSubs2: "'ccmp' Glyph Composition/Decomposition lookup 6 subtable" e dotbelowcomb
EndChar

StartChar: uni1EBA
Encoding: 7866 7866 230
Width: 447
GlyphClass: 2
Flags: W
AnchorPoint: "Anchor-7" 296 357 basechar 0
AnchorPoint: "Anchor-6" 536 714 basechar 0
AnchorPoint: "Anchor-5" 300 0 basechar 0
AnchorPoint: "Anchor-4" 305 986 basechar 0
LayerCount: 2
Fore
SplineSet
406 908 m 0,0,1
 406 870 406 870 383 849.5 c 0,2,3
 360 829 360 829 325 821 c 1,4,-1
 320 768 l 1,5,-1
 266 768 l 1,6,-1
 259 853 l 1,7,8
 295 859 295 859 316.5 870.5 c 0,9,10
 338 882 338 882 338 905 c 0,11,12
 338 929 338 929 319.5 937 c 0,13,14
 301 945 301 945 273 945 c 0,15,16
 260 945 260 945 246.5 944 c 0,17,18
 233 943 233 943 225 941 c 1,19,-1
 225 993 l 1,20,21
 234 996 234 996 247.5 997.5 c 0,22,23
 261 999 261 999 280 999 c 0,24,25
 340 999 340 999 373 977 c 0,26,27
 406 955 406 955 406 908 c 0,0,1
EndSplineSet
Refer: 40 69 N 1 0 0 1 0 0 3
EndChar

StartChar: uni1EBB
Encoding: 7867 7867 231
Width: 564
GlyphClass: 2
Flags: W
AnchorPoint: "Anchor-7" 284 268 basechar 0
AnchorPoint: "Anchor-6" 544 536 basechar 0
AnchorPoint: "Anchor-5" 301 0 basechar 0
AnchorPoint: "Anchor-4" 285 821 basechar 0
LayerCount: 2
Fore
SplineSet
406 730 m 0,0,1
 406 692 406 692 383 671.5 c 128,-1,2
 360 651 360 651 325 643 c 1,3,-1
 320 590 l 1,4,-1
 266 590 l 1,5,-1
 259 675 l 1,6,7
 295 681 295 681 316.5 692.5 c 128,-1,8
 338 704 338 704 338 727 c 0,9,10
 338 751 338 751 319.5 759 c 128,-1,11
 301 767 301 767 273 767 c 0,12,13
 260 767 260 767 246.5 766 c 128,-1,14
 233 765 233 765 225 763 c 1,15,-1
 225 815 l 1,16,17
 234 818 234 818 247.5 819.5 c 128,-1,18
 261 821 261 821 280 821 c 0,19,20
 340 821 340 821 373 799 c 128,-1,21
 406 777 406 777 406 730 c 0,0,1
292 546 m 0,22,23
 361 546 361 546 410.5 516 c 128,-1,24
 460 486 460 486 486.5 431.5 c 128,-1,25
 513 377 513 377 513 304 c 2,26,-1
 513 251 l 1,27,-1
 146 251 l 1,28,29
 148 160 148 160 192.5 112.5 c 128,-1,30
 237 65 237 65 317 65 c 0,31,32
 368 65 368 65 407.5 74.5 c 128,-1,33
 447 84 447 84 489 102 c 1,34,-1
 489 25 l 1,35,36
 448 7 448 7 408 -1.5 c 128,-1,37
 368 -10 368 -10 313 -10 c 0,38,39
 237 -10 237 -10 178.5 21 c 128,-1,40
 120 52 120 52 87.5 113.5 c 128,-1,41
 55 175 55 175 55 264 c 0,42,43
 55 352 55 352 84.5 415 c 128,-1,44
 114 478 114 478 167.5 512 c 128,-1,45
 221 546 221 546 292 546 c 0,22,23
291 474 m 0,46,47
 228 474 228 474 191.5 433.5 c 128,-1,48
 155 393 155 393 148 321 c 1,49,-1
 421 321 l 1,50,51
 421 367 421 367 407 401 c 128,-1,52
 393 435 393 435 364.5 454.5 c 128,-1,53
 336 474 336 474 291 474 c 0,46,47
EndSplineSet
EndChar

StartChar: uni1EBC
Encoding: 7868 7868 232
Width: 447
GlyphClass: 2
Flags: W
AnchorPoint: "Anchor-7" 296 357 basechar 0
AnchorPoint: "Anchor-6" 536 714 basechar 0
AnchorPoint: "Anchor-5" 300 0 basechar 0
AnchorPoint: "Anchor-4" 305 913 basechar 0
LayerCount: 2
Fore
SplineSet
121 784 m 1,0,1
 124 814 124 814 132.5 837.5 c 0,2,3
 141 861 141 861 155 877.5 c 0,4,5
 169 894 169 894 188 903 c 0,6,7
 207 912 207 912 231 912 c 0,8,9
 253 912 253 912 273.5 903.5 c 0,10,11
 294 895 294 895 313 883.5 c 0,12,13
 332 872 332 872 349.5 863.5 c 0,14,15
 367 855 367 855 383 855 c 0,16,17
 406 855 406 855 418.5 869.5 c 0,18,19
 431 884 431 884 438 913 c 1,20,-1
 488 913 l 1,21,22
 482 855 482 855 454 820 c 0,23,24
 426 785 426 785 379 785 c 0,25,26
 358 785 358 785 338 793.5 c 0,27,28
 318 802 318 802 298.5 813.5 c 0,29,30
 279 825 279 825 261.5 833.5 c 0,31,32
 244 842 244 842 227 842 c 0,33,34
 203 842 203 842 191 827.5 c 0,35,36
 179 813 179 813 172 784 c 1,37,-1
 121 784 l 1,0,1
EndSplineSet
Refer: 40 69 N 1 0 0 1 0 0 3
EndChar

StartChar: uni1EBD
Encoding: 7869 7869 233
Width: 564
GlyphClass: 2
Flags: W
AnchorPoint: "Anchor-7" 284 268 basechar 0
AnchorPoint: "Anchor-6" 544 536 basechar 0
AnchorPoint: "Anchor-5" 301 0 basechar 0
AnchorPoint: "Anchor-4" 285 735 basechar 0
LayerCount: 2
Fore
SplineSet
101 606 m 1,0,1
 104 636 104 636 112.5 659.5 c 0,2,3
 121 683 121 683 135 699.5 c 0,4,5
 149 716 149 716 168 725 c 0,6,7
 187 734 187 734 211 734 c 0,8,9
 233 734 233 734 253.5 725.5 c 0,10,11
 274 717 274 717 293 705.5 c 0,12,13
 312 694 312 694 329.5 685.5 c 0,14,15
 347 677 347 677 363 677 c 0,16,17
 386 677 386 677 398.5 691.5 c 0,18,19
 411 706 411 706 418 735 c 1,20,-1
 468 735 l 1,21,22
 462 677 462 677 434 642 c 0,23,24
 406 607 406 607 359 607 c 0,25,26
 338 607 338 607 318 615.5 c 0,27,28
 298 624 298 624 278.5 635.5 c 0,29,30
 259 647 259 647 241.5 655.5 c 0,31,32
 224 664 224 664 207 664 c 0,33,34
 183 664 183 664 171 649.5 c 0,35,36
 159 635 159 635 152 606 c 1,37,-1
 101 606 l 1,0,1
EndSplineSet
Refer: 72 101 N 1 0 0 1 0 0 3
EndChar

